<?xml version="1.0" encoding="utf-8"?><svg xmlns="http://www.w3.org/2000/svg" xmlns:xlink="http://www.w3.org/1999/xlink"><symbol viewBox="0 0 24 24" id="ancient-pavilion" xmlns="http://www.w3.org/2000/svg"><path fill="none" d="M0 0h24v24H0z"/><path d="M12.513 2.001a9.004 9.004 0 009.97 5.877A4.501 4.501 0 0119 11.888V19l2 .001v2H3v-2h2v-7.113a4.503 4.503 0 01-3.484-4.01 9.004 9.004 0 009.972-5.876h1.025zM17 12H7v7h10v-7z"/></symbol><symbol viewBox="0 0 24 24" id="arrow-left-s" xmlns="http://www.w3.org/2000/svg"><path d="M0 0h24v24H0z" fill="none"/><path d="M10.828 12l4.95 4.95-1.414 1.414L8 12l6.364-6.364 1.414 1.414z"/></symbol><symbol viewBox="0 0 24 24" id="arrow-right" xmlns="http://www.w3.org/2000/svg"><path d="M0 0h24v24H0z" fill="none"/><path d="M16.172 11l-5.364-5.364 1.414-1.414L20 12l-7.778 7.778-1.414-1.414L16.172 13H4v-2z"/></symbol><symbol viewBox="0 0 24 24" id="arrow-right-s" xmlns="http://www.w3.org/2000/svg"><path d="M0 0h24v24H0z" fill="none"/><path d="M13.172 12l-4.95-4.95 1.414-1.414L16 12l-6.364 6.364-1.414-1.414z"/></symbol><symbol viewBox="0 0 24 24" id="arrow-up" xmlns="http://www.w3.org/2000/svg"><path d="M0 0h24v24H0z" fill="none"/><path d="M13 7.828V20h-2V7.828l-5.364 5.364-1.414-1.414L12 4l7.778 7.778-1.414 1.414z"/></symbol><symbol viewBox="0 0 64 64" id="bitcoin" xmlns="http://www.w3.org/2000/svg"><path d="M63.04 39.741c-4.275 17.143-21.638 27.576-38.783 23.301C7.12 58.768-3.313 41.404.962 24.262 5.234 7.117 22.597-3.317 39.737.957c17.144 4.274 27.576 21.64 23.302 38.784z" fill="#f7931a"/><path d="M46.11 27.441c.636-4.258-2.606-6.547-7.039-8.074l1.438-5.768-3.51-.875-1.4 5.616c-.924-.23-1.872-.447-2.814-.662l1.41-5.653-3.509-.875-1.439 5.766c-.764-.174-1.514-.346-2.242-.527l.004-.018-4.842-1.209-.934 3.75s2.605.597 2.55.634c1.422.355 1.68 1.296 1.636 2.042l-1.638 6.571c.098.025.225.061.365.117l-.37-.092-2.297 9.205c-.174.432-.615 1.08-1.609.834.035.051-2.552-.637-2.552-.637l-1.743 4.019 4.57 1.139c.85.213 1.682.436 2.502.646l-1.453 5.834 3.507.875 1.44-5.772c.957.26 1.887.5 2.797.726l-1.434 5.745 3.511.875 1.453-5.823c5.987 1.133 10.49.676 12.384-4.739 1.527-4.36-.076-6.875-3.226-8.515 2.294-.529 4.022-2.038 4.483-5.155zM38.086 38.69c-1.085 4.36-8.426 2.003-10.806 1.412l1.928-7.729c2.38.594 10.012 1.77 8.878 6.317zm1.086-11.312c-.99 3.966-7.1 1.951-9.082 1.457l1.748-7.01c1.982.494 8.365 1.416 7.334 5.553z" fill="#fff"/></symbol><symbol viewBox="0 0 24 24" fill-rule="evenodd" clip-rule="evenodd" stroke-linejoin="round" stroke-miterlimit="2" id="circle" xmlns="http://www.w3.org/2000/svg"><circle cx="12" cy="12" r="9.967"/></symbol><symbol viewBox="0 0 24 24" id="double-quotes" xmlns="http://www.w3.org/2000/svg"><path fill="none" d="M0 0h24v24H0z"/><path d="M4.583 17.321C3.553 16.227 3 15 3 13.011c0-3.5 2.457-6.637 6.03-8.188l.893 1.378c-3.335 1.804-3.987 4.145-4.247 5.621.537-.278 1.24-.375 1.929-.311 1.804.167 3.226 1.648 3.226 3.489a3.5 3.5 0 01-3.5 3.5 3.871 3.871 0 01-2.748-1.179zm10 0C13.553 16.227 13 15 13 13.011c0-3.5 2.457-6.637 6.03-8.188l.893 1.378c-3.335 1.804-3.987 4.145-4.247 5.621.537-.278 1.24-.375 1.929-.311 1.804.167 3.226 1.648 3.226 3.489a3.5 3.5 0 01-3.5 3.5 3.871 3.871 0 01-2.748-1.179z"/></symbol><symbol viewBox="0 0 24 24" id="download" xmlns="http://www.w3.org/2000/svg"><path fill="none" d="M0 0h24v24H0z"/><path d="M3 19h18v2H3v-2zm10-5.828L19.071 7.1l1.414 1.414L12 17 3.515 8.515 4.929 7.1 11 13.17V2h2v11.172z"/></symbol><symbol viewBox="0 0 32 32" id="ethereum" xmlns="http://www.w3.org/2000/svg"><g fill="none" fill-rule="evenodd"><circle cx="16" cy="16" r="16" fill="#627EEA"/><g fill="#FFF" fill-rule="nonzero"><path fill-opacity=".602" d="M16.498 4v8.87l7.497 3.35z"/><path d="M16.498 4L9 16.22l7.498-3.35z"/><path fill-opacity=".602" d="M16.498 21.968v6.027L24 17.616z"/><path d="M16.498 27.995v-6.028L9 17.616z"/><path fill-opacity=".2" d="M16.498 20.573l7.497-4.353-7.497-3.348z"/><path fill-opacity=".602" d="M9 16.22l7.498 4.353v-7.701z"/></g></g></symbol><symbol viewBox="0 0 24 24" id="lock" xmlns="http://www.w3.org/2000/svg"><path d="M0 0h24v24H0z" fill="none"/><path d="M19 10h1a1 1 0 011 1v10a1 1 0 01-1 1H4a1 1 0 01-1-1V11a1 1 0 011-1h1V9a7 7 0 1114 0zM5 12v8h14v-8zm6 2h2v4h-2zm6-4V9A5 5 0 007 9v1z"/></symbol><symbol clip-rule="evenodd" fill-rule="evenodd" stroke-linejoin="round" stroke-miterlimit="1.414" viewBox="0 0 512 512" id="paypal" xmlns="http://www.w3.org/2000/svg"><g fill-rule="nonzero"><path d="M167.43 480.867l8.362-53.111-18.626-.432h-88.94l61.809-391.906a5.178 5.178 0 011.727-3.07 5.047 5.047 0 013.293-1.215H285.02c49.785 0 84.143 10.36 102.081 30.808 8.41 9.593 13.766 19.617 16.356 30.649 2.717 11.575 2.765 25.404.111 42.271l-.191 1.231V146.9l8.41 4.764c7.082 3.757 12.71 8.058 17.026 12.982 7.195 8.202 11.847 18.626 13.813 30.984 2.03 12.71 1.36 27.835-1.966 44.958-3.837 19.697-10.04 36.851-18.418 50.889-7.706 12.934-17.522 23.661-29.177 31.975-11.128 7.898-24.35 13.893-39.298 17.73-14.485 3.773-31 5.676-49.114 5.676h-11.671c-8.346 0-16.452 3.006-22.815 8.394-6.379 5.5-10.6 13.014-11.895 21.231l-.88 4.78-14.772 93.609-.671 3.437c-.176 1.087-.48 1.63-.927 1.998-.4.336-.976.56-1.535.56z" fill="#253b80"/><path d="M420.03 137.347a261.562 261.562 0 01-1.534 8.793c-19.777 101.538-87.437 136.615-173.85 136.615h-43.999c-10.567 0-19.473 7.674-21.12 18.098L157.002 443.72l-6.379 40.497c-1.071 6.843 4.205 13.014 11.111 13.014h78.036c9.241 0 17.091-6.715 18.546-15.828l.768-3.964 14.692-93.24.944-5.117a18.766 18.766 0 0118.545-15.86h11.671c75.606 0 134.793-30.696 152.091-119.524 7.227-37.107 3.486-68.091-15.636-89.882-5.787-6.571-12.966-12.023-21.36-16.468z" fill="#179bd7"/><path d="M399.343 129.098a155.99 155.99 0 00-9.337-2.399 178.203 178.203 0 00-9.897-1.87c-11.862-1.919-24.86-2.83-38.786-2.83H223.782c-2.894 0-5.644.655-8.106 1.839-5.42 2.606-9.449 7.738-10.424 14.02l-25.005 158.375-.72 4.62c1.647-10.424 10.553-18.098 21.12-18.098h43.999c86.413 0 154.073-35.093 173.85-136.615a226.967 226.967 0 001.535-8.793c-5.004-2.654-10.424-4.924-16.26-6.859-1.439-.48-2.926-.943-4.428-1.39z" fill="#222d65"/><path d="M205.252 137.859a18.686 18.686 0 0110.424-14.005 18.716 18.716 0 018.106-1.839h117.541c13.926 0 26.924.911 38.786 2.83 3.39.543 6.683 1.167 9.897 1.87a155.99 155.99 0 019.337 2.399c1.502.447 2.99.91 4.444 1.374 5.836 1.935 11.256 4.221 16.26 6.86 5.883-37.524-.048-63.072-20.337-86.206-22.366-25.469-62.735-36.373-114.392-36.373H135.354c-10.552 0-19.553 7.675-21.184 18.115L51.706 428.819c-1.231 7.834 4.812 14.9 12.71 14.9h92.585l23.246-147.486z" fill="#253b80"/></g></symbol></svg>