<svg clip-rule="evenodd" fill-rule="evenodd" viewBox="0 0 500 500" xmlns="http://www.w3.org/2000/svg"><path d="m0 0h500v500h-500z" fill="none"/><g stroke="#000"><circle cx="59.655" cy="248.83" fill="#4d804d" r="18.082"/><path d="m67.361 248.764-12.019 9.527v-19.054z" fill="#e60101" stroke-width="1.001"/><circle cx="135.794" cy="248.83" fill="#4d804d" r="18.082"/><path d="m143.5 248.764-12.019 9.527v-19.054z" fill="#e60101" stroke-width="1.001"/><circle cx="211.931" cy="248.83" fill="#4d804d" r="18.082"/><path d="m219.637 248.764-12.019 9.527v-19.054z" fill="#e60101" stroke-width="1.001"/><circle cx="288.069" cy="248.83" fill="#4d804d" r="18.082"/><path d="m295.776 248.764-12.019 9.527v-19.054z" fill="#e60101" stroke-width="1.001"/><circle cx="364.208" cy="248.83" fill="#4d804d" r="18.082"/><path d="m371.915 248.764-12.019 9.527v-19.054z" fill="#e60101" stroke-width="1.001"/><circle cx="440.347" cy="248.83" fill="#4d804d" r="18.082"/><path d="m448.054 248.764-12.019 9.527v-19.054z" fill="#e60101" stroke-width="1.001"/><circle cx="397.803" cy="182.24" fill="#4d804d" r="18.082"/><path d="m405.51 182.175-12.019 9.527v-19.054z" fill="#e60101" stroke-width="1.001"/><circle cx="397.803" cy="315.128" fill="#4d804d" r="18.082"/><path d="m405.51 315.063-12.019 9.527v-19.054z" fill="#e60101" stroke-width="1.001"/><circle cx="349.237" cy="372.113" fill="#4d804d" r="18.082"/><path d="m356.944 372.048-12.019 9.527v-19.054z" fill="#e60101" stroke-width="1.001"/><circle cx="349.237" cy="127.886" fill="#4d804d" r="18.082"/><path d="m356.944 127.821-12.019 9.527v-19.054z" fill="#e60101" stroke-width="1.001"/></g></svg>