<svg clip-rule="evenodd" fill-rule="evenodd" viewBox="0 0 500 500" xmlns="http://www.w3.org/2000/svg"><path d="m0 0h500v500h-500z" fill="none"/><g stroke="#000"><circle cx="83.2" cy="211.836" fill="#4d804d" r="18.082"/><path d="m90.906 211.768-12.019 9.527v-19.054z" fill="#e60101" stroke-width="1.001"/><circle cx="156.494" cy="211.836" fill="#4d804d" r="18.082"/><path d="m164.2 211.768-12.019 9.527v-19.054z" fill="#e60101" stroke-width="1.001"/><circle cx="229.788" cy="211.836" fill="#4d804d" r="18.082"/><path d="m237.494 211.768-12.019 9.527v-19.054z" fill="#e60101" stroke-width="1.001"/><circle cx="303.082" cy="211.836" fill="#4d804d" r="18.082"/><path d="m310.789 211.768-12.019 9.527v-19.054z" fill="#e60101" stroke-width="1.001"/><circle cx="376.376" cy="211.836" fill="#4d804d" r="18.082"/><path d="m384.083 211.768-12.019 9.527v-19.054z" fill="#e60101" stroke-width="1.001"/><circle cx="123.625" cy="288.167" fill="#4d804d" r="18.082"/><path d="m131.331 288.1-12.019 9.527v-19.054z" fill="#e60101" stroke-width="1.001"/><circle cx="196.919" cy="288.167" fill="#4d804d" r="18.082"/><path d="m204.626 288.1-12.019 9.527v-19.054z" fill="#e60101" stroke-width="1.001"/><circle cx="270.212" cy="288.167" fill="#4d804d" r="18.082"/><path d="m277.92 288.1-12.019 9.527v-19.054z" fill="#e60101" stroke-width="1.001"/><circle cx="343.506" cy="288.167" fill="#4d804d" r="18.082"/><path d="m351.213 288.1-12.019 9.527v-19.054z" fill="#e60101" stroke-width="1.001"/><circle cx="416.801" cy="288.167" fill="#4d804d" r="18.082"/><path d="m424.507 288.1-12.019 9.527v-19.054z" fill="#e60101" stroke-width="1.001"/></g></svg>