<svg clip-rule="evenodd" fill-rule="evenodd" viewBox="0 0 500 500" xmlns="http://www.w3.org/2000/svg"><path d="m0 0h500v500h-500z" fill="none"/><g stroke="#000"><circle cx="56.789" cy="252.935" fill="#4d804d" r="18.082"/><path d="m64.497 252.871-12.019 9.527v-19.054z" fill="#e60101" stroke-width="1.001"/><circle cx="443.209" cy="252.935" fill="#4d804d" r="18.082"/><path d="m450.919 252.871-12.019 9.527v-19.054z" fill="#e60101" stroke-width="1.001"/><circle cx="245.413" cy="58.411" fill="#4d804d" r="18.082"/><path d="m253.121 58.346-12.019 9.527v-19.054z" fill="#e60101" stroke-width="1.001"/><circle cx="245.413" cy="441.589" fill="#4d804d" r="18.082"/><path d="m253.121 441.524-12.019 9.527v-19.054z" fill="#e60101" stroke-width="1.001"/><circle cx="83.572" cy="157.568" fill="#4d804d" r="18.082"/><path d="m91.279 157.503-12.019 9.527v-19.054z" fill="#e60101" stroke-width="1.001"/><circle cx="417.922" cy="157.568" fill="#4d804d" r="18.082"/><path d="m425.631 157.503-12.019 9.527v-19.054z" fill="#e60101" stroke-width="1.001"/><circle cx="141.38" cy="93.958" fill="#4d804d" r="18.082"/><path d="m149.088 93.893-12.019 9.527v-19.054z" fill="#e60101" stroke-width="1.001"/><circle cx="360.518" cy="93.958" fill="#4d804d" r="18.082"/><path d="m368.227 93.893-12.019 9.527v-19.054z" fill="#e60101" stroke-width="1.001"/><circle cx="413.921" cy="348.626" fill="#4d804d" r="18.082"/><path d="m421.628 348.561-12.019 9.527v-19.054z" fill="#e60101" stroke-width="1.001"/><circle cx="87.633" cy="348.626" fill="#4d804d" r="18.082"/><path d="m95.34 348.561-12.019 9.527v-19.054z" fill="#e60101" stroke-width="1.001"/><circle cx="340.09" cy="418.395" fill="#4d804d" r="18.082"/><path d="m347.799 418.33-12.019 9.527v-19.054z" fill="#e60101" stroke-width="1.001"/><circle cx="156.893" cy="418.395" fill="#4d804d" r="18.082"/><path d="m164.602 418.33-12.019 9.527v-19.054z" fill="#e60101" stroke-width="1.001"/></g></svg>