<svg clip-rule="evenodd" fill-rule="evenodd" viewBox="0 0 500 500" xmlns="http://www.w3.org/2000/svg"><path d="m0 0h500v500h-500z" fill="none"/><g stroke="#000"><circle cx="51.388" cy="250" fill="#4d804d" r="18.082"/><path d="m59.093 249.934-12.019 9.527v-19.054z" fill="#e60101" stroke-width="1.001"/><circle cx="108.134" cy="250" fill="#4d804d" r="18.082"/><path d="m115.84 249.934-12.019 9.527v-19.054z" fill="#e60101" stroke-width="1.001"/><circle cx="164.881" cy="250" fill="#4d804d" r="18.082"/><path d="m172.588 249.934-12.019 9.527v-19.054z" fill="#e60101" stroke-width="1.001"/><circle cx="221.627" cy="250" fill="#4d804d" r="18.082"/><path d="m229.333 249.934-12.019 9.527v-19.054z" fill="#e60101" stroke-width="1.001"/><circle cx="278.374" cy="250" fill="#4d804d" r="18.082"/><path d="m286.08 249.934-12.019 9.527v-19.054z" fill="#e60101" stroke-width="1.001"/><circle cx="335.121" cy="250" fill="#4d804d" r="18.082"/><path d="m342.828 249.934-12.019 9.527v-19.054z" fill="#e60101" stroke-width="1.001"/><circle cx="391.866" cy="250" fill="#4d804d" r="18.082"/><path d="m399.574 249.934-12.019 9.527v-19.054z" fill="#e60101" stroke-width="1.001"/><circle cx="448.613" cy="250" fill="#4d804d" r="18.082"/><path d="m456.32 249.934-12.019 9.527v-19.054z" fill="#e60101" stroke-width="1.001"/></g></svg>