<svg clip-rule="evenodd" fill-rule="evenodd" viewBox="0 0 500 500" xmlns="http://www.w3.org/2000/svg"><path d="m0 0h500v500h-500z" fill="none"/><g stroke="#000"><circle cx="61.062" cy="55.67" fill="#4d804d" r="18.082"/><path d="m68.767 55.604-12.019 9.527v-19.054z" fill="#e60101" stroke-width="1.001"/><circle cx="124.041" cy="120.447" fill="#4d804d" r="18.082"/><path d="m131.747 120.381-12.019 9.527v-19.054z" fill="#e60101" stroke-width="1.001"/><circle cx="187.021" cy="185.224" fill="#4d804d" r="18.082"/><path d="m194.727 185.158-12.019 9.527v-19.054z" fill="#e60101" stroke-width="1.001"/><circle cx="250.002" cy="250.001" fill="#4d804d" r="18.082"/><path d="m257.708 249.934-12.019 9.527v-19.054z" fill="#e60101" stroke-width="1.001"/><circle cx="312.982" cy="314.777" fill="#4d804d" r="18.082"/><path d="m320.689 314.711-12.019 9.527v-19.054z" fill="#e60101" stroke-width="1.001"/><circle cx="375.962" cy="379.554" fill="#4d804d" r="18.082"/><path d="m383.669 379.488-12.019 9.527v-19.054z" fill="#e60101" stroke-width="1.001"/><circle cx="438.941" cy="444.331" fill="#4d804d" r="18.082"/><path d="m446.647 444.265-12.019 9.527v-19.054z" fill="#e60101" stroke-width="1.001"/></g></svg>