<svg clip-rule="evenodd" fill-rule="evenodd" viewBox="0 0 500 500" xmlns="http://www.w3.org/2000/svg"><path d="m0 0h500v500h-500z" fill="none"/><g stroke="#000"><circle cx="58.516" cy="250.001" fill="#4d804d" r="18.082"/><path d="m66.222 249.935-12.019 9.527v-19.054z" fill="#e60101" stroke-width="1.001"/><circle cx="154.258" cy="250.001" fill="#4d804d" r="18.082"/><path d="m161.965 249.935-12.019 9.527v-19.054z" fill="#e60101" stroke-width="1.001"/><circle cx="154.258" cy="185.972" fill="#4d804d" r="18.082"/><path d="m161.965 185.906-12.019 9.527v-19.054z" fill="#e60101" stroke-width="1.001"/><circle cx="154.258" cy="121.942" fill="#4d804d" r="18.082"/><path d="m161.965 121.876-12.019 9.527v-19.054z" fill="#e60101" stroke-width="1.001"/><circle cx="154.258" cy="57.913" fill="#4d804d" r="18.082"/><path d="m161.965 57.847-12.019 9.527v-19.054z" fill="#e60101" stroke-width="1.001"/><circle cx="154.258" cy="442.089" fill="#4d804d" r="18.082"/><path d="m161.965 442.023-12.019 9.527v-19.054z" fill="#e60101" stroke-width="1.001"/><circle cx="154.258" cy="378.06" fill="#4d804d" r="18.082"/><path d="m161.965 377.994-12.019 9.527v-19.054z" fill="#e60101" stroke-width="1.001"/><circle cx="154.258" cy="314.03" fill="#4d804d" r="18.082"/><path d="m161.965 313.964-12.019 9.527v-19.054z" fill="#e60101" stroke-width="1.001"/><circle cx="250.001" cy="250" fill="#4d804d" r="18.082"/><path d="m257.708 249.935-12.019 9.527v-19.054z" fill="#e60101" stroke-width="1.001"/><circle cx="250.001" cy="185.732" fill="#4d804d" r="18.082"/><path d="m257.708 185.666-12.019 9.527v-19.054z" fill="#e60101" stroke-width="1.001"/><circle cx="250.001" cy="121.462" fill="#4d804d" r="18.082"/><path d="m257.708 121.398-12.019 9.527v-19.054z" fill="#e60101" stroke-width="1.001"/><circle cx="250.001" cy="378.538" fill="#4d804d" r="18.082"/><path d="m257.708 378.473-12.019 9.527v-19.054z" fill="#e60101" stroke-width="1.001"/><circle cx="250.001" cy="314.269" fill="#4d804d" r="18.082"/><path d="m257.708 314.204-12.019 9.527v-19.054z" fill="#e60101" stroke-width="1.001"/><circle cx="345.744" cy="249.316" fill="#4d804d" r="18.082"/><path d="m353.45 249.249-12.019 9.527v-19.054z" fill="#e60101" stroke-width="1.001"/><circle cx="345.744" cy="187.899" fill="#4d804d" r="18.082"/><path d="m353.45 187.832-12.019 9.527v-19.054z" fill="#e60101" stroke-width="1.001"/><circle cx="345.744" cy="312.103" fill="#4d804d" r="18.082"/><path d="m353.45 312.036-12.019 9.527v-19.054z" fill="#e60101" stroke-width="1.001"/><circle cx="441.486" cy="250.001" fill="#4d804d" r="18.082"/><path d="m449.193 249.935-12.019 9.527v-19.054z" fill="#e60101" stroke-width="1.001"/></g></svg>