<svg clip-rule="evenodd" fill-rule="evenodd" viewBox="0 0 500 500" xmlns="http://www.w3.org/2000/svg"><path d="m0 0h500v500h-500z" fill="none"/><g stroke="#000"><circle cx="49.186" cy="342.898" fill="#4d804d" r="18.082"/><path d="m56.892 342.831-12.019 9.527v-19.054z" fill="#e60101" stroke-width="1.001"/><circle cx="48.725" cy="271.261" fill="#4d804d" r="18.082"/><path d="m56.431 271.194-12.019 9.527v-19.054z" fill="#e60101" stroke-width="1.001"/><circle cx="129.605" cy="284.237" fill="#4d804d" r="18.082"/><path d="m137.31 284.17-12.019 9.527v-19.054z" fill="#e60101" stroke-width="1.001"/><circle cx="129.144" cy="212.6" fill="#4d804d" r="18.082"/><path d="m136.849 212.533-12.019 9.527v-19.054z" fill="#e60101" stroke-width="1.001"/><circle cx="210.023" cy="228.741" fill="#4d804d" r="18.082"/><path d="m217.729 228.674-12.019 9.527v-19.054z" fill="#e60101" stroke-width="1.001"/><circle cx="209.561" cy="157.105" fill="#4d804d" r="18.082"/><path d="m217.267 157.037-12.019 9.527v-19.054z" fill="#e60101" stroke-width="1.001"/><circle cx="290.441" cy="228.741" fill="#4d804d" r="18.082"/><path d="m298.147 228.674-12.019 9.527v-19.054z" fill="#e60101" stroke-width="1.001"/><circle cx="289.979" cy="157.105" fill="#4d804d" r="18.082"/><path d="m297.686 157.038-12.019 9.527v-19.054z" fill="#e60101" stroke-width="1.001"/><circle cx="370.859" cy="284.237" fill="#4d804d" r="18.082"/><path d="m378.565 284.17-12.019 9.527v-19.054z" fill="#e60101" stroke-width="1.001"/><circle cx="370.398" cy="212.601" fill="#4d804d" r="18.082"/><path d="m378.104 212.533-12.019 9.527v-19.054z" fill="#e60101" stroke-width="1.001"/><circle cx="451.276" cy="339.356" fill="#4d804d" r="18.082"/><path d="m458.983 339.289-12.019 9.527v-19.054z" fill="#e60101" stroke-width="1.001"/><circle cx="450.815" cy="267.72" fill="#4d804d" r="18.082"/><path d="m458.522 267.652-12.019 9.527v-19.054z" fill="#e60101" stroke-width="1.001"/></g></svg>