<svg clip-rule="evenodd" fill-rule="evenodd" viewBox="0 0 500 500" xmlns="http://www.w3.org/2000/svg"><path d="m0 0h500v500h-500z" fill="none"/><g stroke="#000"><circle cx="166.436" cy="250" fill="#4d804d" r="18.082"/><path d="m174.142 249.935-12.019 9.527v-19.054z" fill="#e60101" stroke-width="1.001"/><circle cx="222.145" cy="194.137" fill="#4d804d" r="18.082"/><path d="m229.852 194.071-12.019 9.527v-19.054z" fill="#e60101" stroke-width="1.001"/><circle cx="222.145" cy="305.863" fill="#4d804d" r="18.082"/><path d="m229.852 305.797-12.019 9.527v-19.054z" fill="#e60101" stroke-width="1.001"/><circle cx="277.856" cy="135.064" fill="#4d804d" r="18.082"/><path d="m285.562 134.998-12.019 9.527v-19.054z" fill="#e60101" stroke-width="1.001"/><circle cx="277.856" cy="364.937" fill="#4d804d" r="18.082"/><path d="m285.562 364.871-12.019 9.527v-19.054z" fill="#e60101" stroke-width="1.001"/><circle cx="333.566" cy="68.928" fill="#4d804d" r="18.082"/><path d="m341.272 68.861-12.019 9.527v-19.054z" fill="#e60101" stroke-width="1.001"/><circle cx="333.566" cy="431.075" fill="#4d804d" r="18.082"/><path d="m341.272 431.009-12.019 9.527v-19.054z" fill="#e60101" stroke-width="1.001"/></g></svg>