<svg height="1000" viewBox="0 0 1000 1000" width="1000" xmlns="http://www.w3.org/2000/svg"><path d="m169.215 386.836 343.077-249.339" fill="none" stroke="#000" stroke-linecap="round" stroke-linejoin="round" stroke-width="5"/><path d="m514.895 144.799 6.081-13.664-14.875 1.565z"/><path d="m544.807 132.476 344.938 250.698" fill="none" stroke="#000" stroke-linecap="round" stroke-linejoin="round" stroke-width="5"/><path d="m883.603 387.904 14.875 1.566-6.082-13.666z"/><path d="m904.275 411.702-131.791 405.444" fill="none" stroke="#000" stroke-linecap="round" stroke-linejoin="round" stroke-width="5"/><path d="m766.088 812.766 3.107 14.63 11.117-10.006z"/><path d="m749 840.5h-426" fill="none" stroke="#000" stroke-linecap="round" stroke-linejoin="round" stroke-width="5"/><path d="m325 832.73-12.953 7.479 12.953 7.479z"/><path d="m294.291 825.68-131.955-405.942" fill="none" stroke="#000" stroke-linecap="round" stroke-linejoin="round" stroke-width="5"/><path d="m170.086 419.521-11.116-10.007-3.109 14.63z"/><g fill="none" stroke="#000" stroke-linecap="round" stroke-linejoin="round" stroke-width="5"><path d="m171 397.5h6"/><path d="m189 397.5h684" stroke-dasharray="12 12"/><path d="m879 397.5h6"/></g><path d="m883 404.937 12.953-7.478-12.953-7.48z"/><path d="m896.001 407-577.388 418.938" style="stroke:#000;stroke-width:5;stroke-linecap:round;stroke-linejoin:round;stroke-dasharray:12 12;fill:none"/><path d="m316.017 818.633-6.092 13.659 14.876-1.553z"/><path d="m303.968 824.881 220.616-678.893" style="stroke:#000;stroke-width:5;stroke-linecap:round;stroke-linejoin:round;stroke-dasharray:12 12;fill:none"/><path d="m530.98 150.368-3.108-14.63-11.116 10.007z"/><path d="m536.788 137.902 220.975 679.997" style="stroke:#000;stroke-width:5;stroke-linecap:round;stroke-linejoin:round;stroke-dasharray:12 12;fill:none"/><path d="m750.014 818.116 11.115 10.008 3.11-14.63z"/><path d="m752.366 831-577.973-419.427" style="stroke:#000;stroke-width:5;stroke-linecap:round;stroke-linejoin:round;stroke-dasharray:12 12;fill:none"/><path d="m180.532 406.839-14.875-1.555 6.09 13.661z"/><circle cx="532.5" cy="123.5" r="9.5"/><circle cx="908.5" cy="397.5" r="9.5"/><circle cx="764.5" cy="840.5" r="9.5"/><circle cx="299.5" cy="840.5" r="9.5"/><circle cx="155.5" cy="397.5" r="9.5"/><g fill="none" stroke="#000" stroke-linecap="round" stroke-linejoin="round" stroke-width="5"><path d="m644 930.5h6"/><path d="m662 930.5h211" stroke-dasharray="12 12"/><path d="m879 930.5h6"/></g><path d="m179 930.5h241" style="stroke:#000;stroke-width:5;stroke-linecap:round;stroke-linejoin:round;stroke-miterlimit:10;fill:none"/><g font-family="'ArialMT'" font-size="18"><text transform="translate(238 921)">hervorbringen</text><text transform="translate(728 921)">zerstören</text><text transform="translate(509 106)">Feuer</text><text transform="translate(926 400.503)">Erde</text><text transform="translate(741.366 871.503)">Metall</text><text transform="translate(267.366 871.503)">Wasser</text><text transform="translate(99.366 402.5)">Holz</text></g></svg>