<?xml version="1.0" encoding="UTF-8" standalone="no"?>
<!DOCTYPE svg PUBLIC "-//W3C//DTD SVG 1.1//EN" "http://www.w3.org/Graphics/SVG/1.1/DTD/svg11.dtd">
<svg width="100%" height="100%" viewBox="0 0 883 472" version="1.1" xmlns="http://www.w3.org/2000/svg" xmlns:xlink="http://www.w3.org/1999/xlink" xml:space="preserve" xmlns:serif="http://www.serif.com/" style="fill-rule:evenodd;clip-rule:evenodd;">
    <g transform="matrix(0.48,0,0,0.48,294.04,16)">
        <circle cx="158.25" cy="168.802" r="69.385" style="fill:none;stroke:white;stroke-width:5.21px;"/>
    </g>
    <g>
        <g transform="matrix(0.444,0,0,0.444,295.642,16.769)">
            <circle cx="93" cy="83" r="34" style="fill:none;stroke:white;stroke-width:5.62px;"/>
        </g>
        <g transform="matrix(0.444,0,0,0.444,330.777,7.37)">
            <circle cx="93" cy="83" r="34" style="fill:none;stroke:white;stroke-width:5.62px;"/>
        </g>
        <g transform="matrix(0.444,0,0,0.444,364.765,21.131)">
            <circle cx="93" cy="83" r="34" style="fill:none;stroke:white;stroke-width:5.62px;"/>
        </g>
        <g transform="matrix(0.444,0,0,0.444,381.297,54.813)">
            <circle cx="93" cy="83" r="34" style="fill:none;stroke:white;stroke-width:5.62px;"/>
        </g>
        <g transform="matrix(0.444,0,0,0.444,372.701,89.143)">
            <circle cx="93" cy="83" r="34" style="fill:none;stroke:white;stroke-width:5.62px;"/>
        </g>
        <g transform="matrix(0.444,0,0,0.444,345.035,110.684)">
            <circle cx="93" cy="83" r="34" style="fill:none;stroke:white;stroke-width:5.62px;"/>
        </g>
        <g transform="matrix(0.444,0,0,0.444,310.375,110.517)">
            <circle cx="93" cy="83" r="34" style="fill:none;stroke:white;stroke-width:5.62px;"/>
        </g>
        <g transform="matrix(0.444,0,0,0.444,282.026,87.02)">
            <circle cx="93" cy="83" r="34" style="fill:none;stroke:white;stroke-width:5.62px;"/>
        </g>
        <g transform="matrix(0.444,0,0,0.444,276.525,49.624)">
            <circle cx="93" cy="83" r="34" style="fill:none;stroke:white;stroke-width:5.62px;"/>
        </g>
    </g>
    <path d="M351.16,91.84C351.16,91.84 357.162,82.627 358.36,81.76C359.558,80.893 362.807,76.563 363.64,76C364.473,75.437 367.964,71.584 369.88,71.2C371.796,70.816 375.066,70.476 377.56,70.72C380.054,70.964 382.582,70.823 383.8,71.68C385.018,72.537 386.399,73.955 386.2,75.04C386.001,76.125 385.314,76.691 385.24,77.44C385.166,78.189 385.239,82.535 384.76,83.68C384.281,84.825 384.253,84.363 383.8,86.56C383.347,88.757 383.808,90.794 382.84,91.84C381.872,92.886 379.785,95.748 377.56,96.16C375.335,96.572 373.802,97.156 374.2,98.56C374.598,99.964 380.665,112.25 382.36,115.84C382.99,117.174 382.325,119.896 381.4,120.16C380.243,120.491 376.829,120.542 375.64,118.24C374.451,115.938 369.091,104.793 368.92,104.32C368.749,103.847 368.529,103.848 367.96,104.32C367.563,104.649 364.613,107.924 363.16,108.16C361.882,108.368 361.075,108.466 359.8,107.68C358.525,106.894 356.933,105.212 355.96,104.8C354.987,104.388 350.687,100.21 348.76,98.08C347.663,96.867 345.974,96.52 344.92,96.64C344.323,96.708 343.377,96.262 343.48,95.68C343.583,95.098 349.051,94.762 350.2,95.2C351.349,95.638 352.851,96.265 355,96.64C357.149,97.015 357.31,96.976 358.36,96.16C359.41,95.344 362.537,91.564 362.68,90.88C362.876,89.941 362.733,86.685 361.72,86.56C360.832,86.451 359.848,87.501 359.32,88.48C358.906,89.248 358.202,90.945 357.4,91.84C356.516,92.827 355.574,94.067 353.56,93.28C351.546,92.493 351.16,91.84 351.16,91.84ZM364.329,97.313C363.683,97.621 362.554,98.752 362.2,99.52C361.864,100.246 361.254,101.566 362.2,101.92C363.146,102.274 363.555,102.332 364.12,101.92C366.03,100.527 365.906,100.236 366.04,100C366.329,99.489 366.624,98.136 366.04,97.6C365.456,97.064 365.016,96.986 364.329,97.313ZM373.24,89.92C373.24,89.92 371.46,89.808 371.8,90.88C372.14,91.952 372.052,93.232 372.76,93.28C373.468,93.328 373.851,94.067 374.2,93.28C374.549,92.493 374.909,91.245 374.68,90.4C374.487,89.689 373.601,89.908 373.322,89.931C372.835,89.971 373.24,89.92 373.24,89.92ZM367.48,80.32C367.48,80.32 370.329,77.598 371.8,76.96C373.271,76.322 373.24,76.96 373.24,76.96C373.24,76.96 373.481,79.403 373.72,80.32C373.959,81.237 374.097,81.45 374.2,82.72C374.303,83.99 374.93,84.83 374.2,85.12C373.656,85.336 370.988,85.563 370.36,85.12C369.732,84.677 369.042,84.229 368.92,83.2C368.798,82.171 367.931,82.283 367.48,81.76C367.029,81.237 367.48,80.32 367.48,80.32Z" style="fill:white;"/>
    <g>
        <g transform="matrix(1,0,0,1,356.649,174.741)">
            <text x="0px" y="0px" style="font-family:'Arial-BoldMT', 'Arial', sans-serif;font-weight:700;font-size:10px;fill:none;">Kōga</text>
        </g>
        <g transform="matrix(1,0,0,1,356.649,174.741)">
            <text x="0px" y="0px" style="font-family:'Arial-BoldMT', 'Arial', sans-serif;font-weight:700;font-size:10px;fill:white;">Kōga</text>
        </g>
    </g>
    <g>
        <g transform="matrix(1,0,0,1,526.305,173.224)">
            <text x="0px" y="0px" style="font-family:'Arial-BoldMT', 'Arial', sans-serif;font-weight:700;font-size:10px;fill:none;">Iga</text>
        </g>
        <g transform="matrix(1,0,0,1,526.305,173.224)">
            <text x="0px" y="0px" style="font-family:'Arial-BoldMT', 'Arial', sans-serif;font-weight:700;font-size:10px;fill:white;">Iga</text>
        </g>
    </g>
    <path d="M546.464,123.856L553.678,120.043L556.082,125.942C556.082,125.942 565.677,125.258 569.189,125.942C572.547,126.596 573.737,127.022 574.841,128.471C575.717,129.621 576.029,131.558 574.841,132.45C573.653,133.342 572.556,132.268 568.229,131.924C566.67,131.8 561.534,132.272 558.251,134.257C555.203,136.1 553.197,135.403 549.132,141.57C547.116,144.628 546.826,144.92 545.587,146.614C544.821,147.661 542.262,147.882 541.295,146.711C540.328,145.54 540.512,144.157 541.295,142.05C541.888,140.454 547.971,132.943 549.827,130.701C549.747,128.765 546.463,123.855 546.463,123.855L546.464,123.856ZM517.804,120.311L526.353,124.932L521.378,130.589C521.378,130.589 526.479,135.435 527.803,138.76C529.068,141.938 529.049,143.726 528.427,145.439C527.934,146.798 526.969,147.104 525.576,146.587C524.183,146.07 522.977,144.766 521.866,142.914C521.061,141.574 518.422,137.661 513.845,135.159C510.72,133.451 509.955,131.434 502.569,131.35C498.907,131.308 499.363,131.476 497.268,131.35C495.972,131.272 495.363,130.098 495.825,128.651C496.287,127.205 497.271,125.724 499.374,124.932C502.168,123.88 502.83,123.307 514.27,126.583C515.78,125.397 517.901,120.561 517.805,120.31L517.804,120.311ZM502.623,95.984L503.976,104.031L496.876,105.225C496.876,105.225 496.039,114.984 494.58,118.841C493.37,122.041 492.995,121.725 491.271,122.318C489.904,122.788 489.037,122.238 488.586,120.823C487.965,118.874 488.475,117.959 489.217,115.93C489.753,114.462 489.618,105.778 489.217,102.238C488.815,98.699 488.486,97.066 483.909,91.269C481.639,88.395 481.73,89.662 480.512,87.953C479.758,86.897 480.354,84.878 481.769,84.328C483.184,83.778 485.067,84.5 486.821,85.905C488.15,86.97 493.311,90.521 495.524,97.177C497.88,96.769 502.625,95.983 502.625,95.983L502.623,95.984ZM565.907,103.362L567.421,93.528L574.496,95.344C574.496,95.344 578.359,89.13 581.083,86.81C583.687,84.592 585.488,84.172 587.311,84.212C588.756,84.244 590.316,86.019 590.273,87.504C590.23,88.989 589.357,89.916 587.959,91.562C586.947,92.754 582.471,96.953 581.721,101.493C581.141,105.007 580.974,105.205 583.003,112.307C583.745,114.904 583.622,117.011 583.29,119.183C583.094,120.466 582.209,121.934 580.691,121.96C578.817,121.988 577.098,120.893 576.331,119.183C575.857,118.162 574.963,113.113 573.588,109.065C572.676,106.381 571.014,104.405 571.063,103.362C568.712,102.93 565.908,103.362 565.908,103.362L565.907,103.362ZM511.798,65.616L504.266,76.443C503.306,74.514 502.241,72.597 500.108,70.792C499.648,70.795 497.502,72.73 495.893,73.919C493.704,75.537 491.767,76.592 489.557,77.099C486.222,77.862 485.866,77.341 484.28,76.443C483.022,75.731 482.4,74.248 483.141,72.961C483.882,71.673 485.282,70.802 487.386,70.313C489.628,69.791 493.612,67.74 495.893,65.004C498.426,61.966 502.006,58.124 502.284,53.951C502.527,50.297 501.664,50.193 502.284,47.608C502.586,46.346 504.842,45.614 506.192,46.31C507.542,47.006 508.246,48.304 509.197,50.342C511,54.205 507.785,61.029 506.192,63.489C508.058,64.984 511.798,65.617 511.798,65.617L511.798,65.616ZM563.036,73.216L558.052,66.275L563.753,61.878C563.753,61.878 560.057,57.531 560.437,51.26C560.561,49.217 561.313,46.43 562.199,45.379C562.967,44.467 564.85,44.173 565.752,44.953C567.775,46.702 566.537,49.486 566.964,51.74C567.539,54.783 568.74,56.639 569.498,58.197C570.012,59.253 570.768,59.699 571.514,60.607C574.464,64.199 579.226,64.069 581.782,64.522C583.08,64.752 583.959,66.331 584.49,67.343C585.021,68.356 584.959,70.271 584.01,71.076C582.999,71.933 580.477,72.302 578.422,72.007C575.796,71.631 571.685,70.554 569.218,68.336C565.956,69.953 563.037,73.214 563.037,73.214L563.036,73.216ZM536.68,58.72L528.52,58.72C528.52,58.72 528.643,52.015 528.52,51.52C528.323,50.727 521.225,48.966 518.44,46.72C515.777,44.572 515.859,44.678 515.56,42.88C515.323,41.454 516.013,40.714 517.48,40.48C518.947,40.246 520.402,40.372 522.28,41.44C523.639,42.213 529.284,43.649 532.84,43.84C536.396,44.031 537.404,44.993 543.88,41.44C547.091,39.678 545.353,39.479 547.24,38.56C548.406,37.992 550.772,38.993 551.08,40.48C551.388,41.967 550.837,43.783 549.16,45.28C547.89,46.414 542.104,50.993 536.68,51.52C536.575,53.394 536.68,58.705 536.68,58.72Z" style="fill:white;stroke:white;stroke-width:1px;stroke-linejoin:round;stroke-miterlimit:2;"/>
    <g transform="matrix(0.455,0,0,0.455,455.179,16.381)">
        <circle cx="174.678" cy="166.819" r="141.248" style="fill:none;stroke:white;stroke-width:21.99px;"/>
    </g>
    <g transform="matrix(0.525,0,0,0.525,452.946,11.991)">
        <circle cx="154" cy="153" r="63.963" style="fill:none;stroke:white;stroke-width:11.43px;"/>
    </g>
    <path d="M540.04,114.4L549.64,75.52C551.087,75.329 552.244,75.732 553,76.96L543.88,115.36C543.88,115.36 541.978,115.874 540.04,114.4ZM516.52,107.68C517.503,108.376 518.455,108.093 519.4,108.16L527.56,69.28L524.2,68.8L516.52,107.68Z" style="fill:none;stroke:white;stroke-width:0.7px;"/>
    <path d="M551.56,82.72C551.56,82.72 558.888,80.317 559.72,80.8C560.552,81.283 559.636,85.852 559.24,86.56C558.844,87.268 554.92,107.2 554.92,107.2L545.32,109.6L551.56,82.72ZM549.16,97.6C549.998,96.962 554.906,95.935 555.4,96.64C555.894,97.345 555.432,100.262 554.44,100.96C553.448,101.658 548.37,103.179 548.2,102.4C548.03,101.621 547.937,98.531 549.16,97.6ZM551.56,88C552.36,87.28 554.068,86.657 555.4,86.56C556.811,86.457 557.817,86.207 557.8,87.52C557.789,88.351 557.956,89.487 556.36,89.92C554.764,90.353 550.799,91.407 550.6,90.88C550.401,90.353 550.954,88.546 551.56,88ZM548.2,81.28C548.2,81.28 547.505,82.074 546.76,81.28C546.015,80.486 540.7,76.036 540.04,76C539.38,75.964 538.755,75.472 538.6,76.48C538.445,77.488 532.444,100.793 532.84,101.92C533.236,103.047 540.9,109.374 541,110.56C541.69,107.568 548.2,81.28 548.2,81.28ZM536.68,91.84C535.727,91.893 534.505,95.988 534.76,96.64C535.387,98.242 540.357,103.269 541.48,103.36C542.512,103.444 544.177,98.309 543.4,97.12C542.623,95.931 538.427,91.744 536.68,91.84ZM538.6,83.2C539.48,84.48 544.303,88.497 544.84,88.48C545.819,88.448 546.307,87.263 545.8,86.08C545.503,85.388 540.132,80.752 539.56,80.8C538.12,80.921 538.112,82.49 538.6,83.2ZM527.559,69.304L527.56,69.28L527.559,69.304C527.611,69.509 528.071,70.76 528.04,71.2C528.005,71.696 536.037,81.42 535.72,82.24C535.403,83.06 528.222,110.321 527.56,110.56C526.898,110.799 522.225,103.882 521.8,103.36C521.375,102.838 520.36,103.36 520.36,103.36C520.36,103.36 527.428,70.331 527.559,69.304ZM522.76,97.6C522.524,95.674 523.768,90.907 524.2,90.88C525.427,90.804 529.835,97.532 529.96,98.08C530.291,99.535 529.195,104.926 528.52,104.8C527.42,104.595 523.056,100.011 522.76,97.6ZM525.64,82.72C526.28,84.4 530.385,89.81 530.92,89.92C532.493,90.245 533.329,88.558 532.84,87.52C532.351,86.482 528.453,80.28 527.08,79.84C526.227,79.567 525.258,81.717 525.64,82.72ZM517.046,105.527C517.131,105.014 517.246,103.797 516.52,103.36C515.59,102.801 508.084,106.901 507.88,105.76C507.676,104.619 512.87,73.543 513.64,72.64C514.41,71.737 523.668,69.897 524.2,69.76C523.398,73.133 517.618,102.606 517.046,105.527L517,105.76L517.046,105.527ZM509.8,96.64C511.542,95.037 517.163,93.2 517.96,93.28C518.858,93.239 517.983,97.044 517.48,97.6C516.12,98.8 511.06,100.68 509.8,100.48C508.53,100.321 509.666,97.386 509.8,96.64ZM512.68,82.24C513.94,80.859 519.48,78.4 520.84,78.4C521.979,78.42 521.035,81.594 520.84,82.24C519.49,83.452 514.04,85.6 512.68,85.6C511.56,85.6 511.84,82.981 512.68,82.24Z" style="fill:white;stroke:white;stroke-width:1px;stroke-linejoin:round;stroke-miterlimit:2;"/>
    <g>
        <path d="M851,78C850.243,79.888 843.01,85.865 841,88C838.99,90.135 839.57,99.865 838,101C836.43,102.135 833.73,103.705 835,105C836.27,106.295 835.33,108.985 835,111C834.67,113.015 831.97,115.945 833,118C834.03,120.055 833.25,123.145 833,124C832.75,124.855 837.708,129.398 837,132C836.292,134.602 831.116,135.566 832,138C832.884,140.434 838.266,143.932 838,147C837.734,150.068 838.167,158.56 837,159C835.833,159.44 834.429,162.038 835,163C835.571,163.962 836.395,164.434 835,166C833.605,167.566 831.606,168.732 831,171C830.394,173.268 829.801,180.115 828,182C826.199,183.885 822.684,187.923 823,190C823.316,192.077 824.06,194.746 823,196C821.94,197.254 818.124,199.602 818,202C817.876,204.398 815.595,206.949 813,208C810.405,209.051 813.345,214.164 806,216C803.393,216.652 803.945,213.973 798,218C792.055,222.027 795.39,225.299 785,227C782.552,227.401 771.307,246.514 769,248C766.693,249.486 766.322,255.043 765,256C763.678,256.957 760.121,261.535 758,260C755.879,258.465 751.854,257.045 750,259C748.146,260.955 742.898,261.144 741,262C739.102,262.856 736.927,267.967 735,268C733.073,268.033 732.925,266.622 731,267C729.075,267.378 719.54,266.304 717,275C714.46,283.696 719.115,282.241 718,285C716.885,287.759 716.884,292.607 716,295C715.116,297.393 712.193,304.842 711,306C709.807,307.158 706.437,306.45 708,312C708.759,314.695 706.353,318.982 705,321C703.647,323.018 701.171,325.839 701,328C700.829,330.161 698.773,337.975 696,338C693.227,338.025 678.043,338.368 678,338C677.957,337.632 674.175,345.219 670,347C668.454,347.659 670.007,348.933 671,350C671.993,351.067 672.449,353.263 671,354C669.551,354.737 665.216,357.954 665,359C664.784,360.046 659.442,367.403 659,369C658.558,370.597 658.522,372.881 657,374C655.478,375.119 650.42,377.476 650,380C649.58,382.524 651.076,383.051 650,384C648.924,384.949 648.355,386.267 649,388C649.645,389.733 649.993,391.514 649,392C648.007,392.486 646.648,393.189 647,395C647.352,396.811 648.651,401.62 650,404C651.349,406.38 652.651,407.819 652,409C651.349,410.181 651.143,410.936 652,412C652.857,413.064 652.554,411.56 653,413C653.446,414.44 654.651,416.414 653,417C651.349,417.586 646.35,416.97 644,416C641.65,415.03 638.51,413.887 637,414C635.49,414.113 633.819,414.642 632,415C630.181,415.358 627.685,413.79 627,415C626.315,416.21 624.114,417.706 624,419C623.886,420.294 624.673,421.609 623,422C621.327,422.391 618.49,422.505 618,424C617.51,425.495 617.664,430.088 617,431C616.336,431.912 613.298,435.81 611,436C608.702,436.19 603.393,436.607 602,436C600.607,435.393 597.949,433.726 595,435C592.051,436.274 588.086,436.984 586,436C583.914,435.016 577.587,430.096 577,429C576.448,427.969 576.126,425.931 577,425C577.874,424.069 574.139,423.161 575,422C575.861,420.839 577.448,419.713 579,420C580.552,420.287 580.757,420.139 582,419C583.243,417.861 586.491,414.241 587,414C588.234,413.415 589.088,412.047 591,412C593.128,411.947 593.797,411.227 595,411C596.203,410.773 598.986,409.422 599,408C599.014,406.578 600.092,405.883 601,406L603,407C603.711,406.956 605.772,405.77 606,405C606.228,404.23 606.962,403.196 608,403C609.038,402.804 609.83,404.077 610,403C610.17,401.923 609.41,395.879 610,395C610.59,394.121 611.242,389.009 611,388C610.758,386.991 609.227,382.322 608,383C606.773,383.678 607.031,384.393 606,385C604.969,385.607 601.031,386.199 600,386C598.969,385.801 597.313,386.944 597,388C596.687,389.056 595.742,393.051 594,393C592.258,392.949 591.03,393.743 590,394C588.97,394.257 588.406,394.958 588,396C587.594,397.042 587.714,397.616 587,398C586.286,398.384 585.627,397.971 585,399C584.373,400.029 582.902,404.858 583,406C583.098,407.142 582.546,407.113 582,408C581.454,408.887 582.19,410.529 581,411C579.81,411.471 577.512,412.966 577,412C576.488,411.034 574.848,407.672 575,407C575.28,405.766 574.695,404.136 575,403C575.347,401.706 576.539,401.481 577,400C577.419,398.652 578.539,396.904 578,396C577.461,395.096 576.062,392.38 575,393C573.938,393.62 567.961,395.676 566,395C564.039,394.324 560.894,392.615 560,393C559.106,393.385 558.417,395.34 557,395C555.583,394.66 553.772,394.387 553,396C552.228,397.613 552.128,402.012 553,403C553.872,403.988 555.356,404.791 555,406C554.644,407.209 553.839,409.335 553,410C552.161,410.665 551.282,410.65 551,412C550.718,413.35 550.993,416 550,416C549.007,416 547.443,417.55 547,418C546.557,418.45 546.194,418.543 545,419C543.806,419.457 539.979,419.235 538,420C536.021,420.765 536.382,423.41 536,424C535.618,424.59 534.619,426.264 533,427C531.74,427.573 530.159,428.671 527,427C523.841,425.329 523.267,425.712 523,425C522.733,424.288 523.871,422.664 523,422C522.129,421.336 521.871,421.08 522,420C522.129,418.92 522.897,416.268 523,416C523.103,415.732 524.663,414.529 524,413C523.337,411.471 523.354,410.442 524,410C524.646,409.558 527.173,406.905 527,406C526.827,405.095 527.327,404.549 528,404C528.673,403.451 528.522,400.777 529,400C529.478,399.223 531.314,398.266 531,397C530.686,395.734 531.267,394.447 532,394C532.733,393.553 534.335,392.327 536,392C537.665,391.673 538.892,392.105 539,391C539.108,389.895 539.865,389.259 539,388C538.135,386.741 535.871,386.031 534,386C532.609,385.964 531.244,385.623 530,385C529.411,384.694 525.991,385.46 525,386C524.009,386.54 522.32,389.346 521,389C519.68,388.654 519.508,387.682 518,388C516.492,388.318 514.729,390.817 514,392C513.271,393.183 511.427,394.481 510,394C508.573,393.519 506.695,393.374 505,394C503.305,394.626 499.694,396.676 499,398C498.306,399.324 496.996,401.133 495,401C493.004,400.867 489.861,399.293 489,398C488.139,396.707 481.29,389.749 480,389C478.71,388.251 476.88,388.534 476,387C475.12,385.466 475.498,381.936 474,381C472.502,380.064 463.96,373.352 461,373C458.04,372.648 456.711,371.835 456,371C455.289,370.165 450.691,369.848 452,369C453.309,368.152 455.221,365.915 457,367C458.779,368.085 460.289,368.452 462,368C463.711,367.548 465.92,365.687 465,364C464.08,362.313 464.248,360.673 462,360C459.752,359.327 457.235,359.29 457,358C456.765,356.71 456.053,356.398 455,356C453.947,355.602 452.872,357.626 452,357C451.128,356.374 450.268,355.451 451,354C451.732,352.549 452.342,351.109 454,350C455.658,348.891 458.342,344.913 457,344C455.658,343.087 453.228,343.471 453,344C452.772,344.529 451.221,345.94 450,345C448.779,344.06 447.972,343.034 447,344C446.028,344.966 446.086,346.216 445,347C443.914,347.784 442.502,347.008 442,348C441.498,348.992 442.012,349.753 441,351C439.988,352.247 436.354,350.344 435,352C433.646,353.656 430.816,356.217 430,357C429.184,357.783 425.501,360.633 426,363C426.499,365.367 428.548,367.419 429,370C429.452,372.581 431.038,371.876 431,373C430.962,374.124 431.051,374.923 430,376C428.949,377.077 431.095,380.212 431,381C430.895,381.875 428.83,383.44 428,384C427.17,384.56 426.575,382.507 426,381C425.425,379.493 424.299,378.91 423,379C421.701,379.09 420.916,379.023 420,378C419.084,376.977 415.178,377.379 415,378C414.822,378.621 411.05,380.084 410,379C408.95,377.916 408.036,377.983 407,378C405.964,378.017 401.774,379.191 401,378C400.226,376.809 399.868,377.191 398,377C396.132,376.809 392.465,376.118 392,377C391.535,377.882 386.068,382.245 386,383C385.932,383.755 384.397,385.595 383,386C381.603,386.405 380.054,385.984 379,387C377.946,388.016 378.604,390.092 377,391C375.396,391.908 371.47,393.911 371,394C370.53,394.089 360.475,398.576 355,404C355,404 352.965,405.495 352,401C351.035,396.505 343.266,389.024 342,388C340.6,387.479 338.44,387.34 339,386C339.56,384.66 341.635,381.178 341,380C339.157,378.99 336.89,378.245 337,376C337.11,373.755 339.689,373.13 341,372C342.814,369.695 345.655,367.599 344,364C342.345,360.401 340.877,358.552 340,358C339.123,357.448 338.588,358.129 338,357C339.795,354.831 340.588,353.531 339,352C337.412,350.469 336.722,351.478 337,350C337.278,348.522 344.387,339.376 346,339C347.613,338.624 348.653,339.597 349.492,338.557C350.331,337.516 350.717,337.49 352,337C353.283,336.51 356.925,333.496 357,332C357.075,330.504 355.576,326.207 355,325C354.424,323.793 354.472,321.105 356,320C357.528,318.895 358.95,315.552 361,316C363.05,316.448 363.105,319.385 365,319C366.895,318.615 372.464,317.902 373,317C373.536,316.098 376.996,313.199 376,310C375.004,306.801 374.211,304.205 373,304C371.789,303.795 368.852,303.603 367,303C365.148,302.397 364.67,302.19 364,301C363.33,299.81 362.025,298.524 361,297C359.975,295.476 360.445,296.159 360,294C359.555,291.841 358.666,286.924 356,284C353.334,281.076 352.624,281.86 352,280C351.376,278.14 350.893,277.817 349.492,277C348.091,276.183 347.824,277.565 346,276C344.176,274.435 343.976,270.571 341,271C338.024,271.429 335.933,273.608 336,275C336.067,276.392 335.416,277.021 337,278C337.186,281.006 334.085,283.246 332,283C329.915,282.754 327.634,280.994 325,281C322.366,281.006 320.361,280.28 320,279C319.639,277.72 315.394,276.009 315,280C314.606,283.991 316.124,282.021 316,284C315.934,285.052 316.307,288.54 313,287C309.783,285.27 308.594,286.757 308,285C307.406,283.243 308.649,282.854 306,282C303.351,281.146 302.117,282.602 302,281C301.883,279.398 303.515,275.243 302,274C299.647,272.617 292.936,269.157 290,269C287.902,265.277 289.705,265.154 288,262C286.295,258.846 283.927,256.832 282,257C280.073,257.168 276.009,255.445 275,254C273.991,252.555 274.832,248.129 272,248C269.168,247.871 265.935,248.715 265,247C264.065,245.285 264.199,243.624 262,244C259.801,244.376 260.071,245.904 257,245C253.929,244.096 251.244,242.238 250,241C248.756,239.762 247.062,240.335 247,239C246.938,237.665 248.67,235.578 247,234C245.33,232.422 246.068,230.681 245,229C243.932,227.319 238.779,221.714 238,222C235.963,224.103 222.857,237.694 222,241C221.143,244.306 221.498,244.043 220,244C219.329,243.981 217.251,245.37 216.13,247C215.009,248.63 214.844,250.499 214,251C210.518,249.549 200.877,247.034 200,242C199.123,236.966 198.85,238.739 200,236C201.15,233.261 204.36,234.164 203,232C201.64,229.836 191.6,222.526 189,223C186.4,223.474 185.359,223.924 182,223C178.641,222.076 176.183,219.334 175,217C173.817,214.666 172.559,214.942 172,214C171.441,213.058 171.398,208.254 171,208C170.602,207.746 170.754,204.771 169,205C167.246,205.229 166.459,203.519 166,203C165.049,201.925 165.37,199.72 166,198C166.63,196.28 169.987,193.674 170,192C170.013,190.326 174.41,186.842 176,185C177.59,183.158 174.826,180.89 178,181C181.174,181.11 186.995,185.722 189,187C191.005,188.278 191.52,191.524 195,192C198.48,192.476 201.478,193.47 203,192C204.522,190.53 206.051,187.62 208,188C209.949,188.38 207.798,190.596 210,190C212.202,189.404 213.607,187.873 216.13,187C218.653,186.127 218.384,184.439 222,186C225.616,187.561 230.294,190.91 232,192C233.706,193.09 234.97,196.759 237,196C239.03,195.241 239.856,192.241 244,192C248.144,191.759 247.146,191.006 250,190C252.854,188.994 253.562,188.59 255,187C256.438,185.41 257.779,186.385 261,186C264.221,185.615 265.021,185.204 268,185C270.979,184.796 273.238,188.644 276,188C278.762,187.356 279.046,182.938 283,181C286.954,179.062 286.24,176.631 291,178C295.76,179.369 300.048,180.276 302,181C303.952,181.724 305.958,184.385 309,185C312.042,185.615 314.477,184.903 315,187C315.523,189.097 313.562,190.036 317,191C320.438,191.964 321.52,191.681 324,193C326.48,194.319 328.454,197.489 331,200C333.546,202.511 331.798,203.748 336,204C340.202,204.252 337.6,203.086 341,205C344.4,206.914 344.89,210.321 347,210C349.11,209.679 352.438,208.737 354,211C355.562,213.263 356.493,214.334 357,216C357.507,217.666 353.987,219.671 358,220C362.013,220.329 363.741,219.159 366,220C368.259,220.841 369.235,220.599 371,222C372.765,223.401 375.248,226.401 378,227C380.752,227.599 382.742,227.022 384,229C385.258,230.978 383.574,231.076 388,232C392.426,232.924 398.461,232.974 400,233C401.539,233.026 402.515,233.444 403,236C403.485,238.556 403.792,244.023 402,246C400.208,247.977 397.894,249.879 399,252C400.106,254.121 401.648,254.596 404,254C406.352,253.404 407.6,252.59 408,251C408.4,249.41 407.859,248.078 409,249C410.141,249.922 409.402,253.982 411,254C412.598,254.018 413.872,253.367 416,254C418.128,254.633 419.981,256.35 421,258C422.019,259.65 421.578,261.223 424,261C426.422,260.777 425.379,259.742 428,262C430.621,264.258 430.518,263.844 434,264C437.482,264.156 443.814,263.066 445,261C446.186,258.934 449.098,258.855 448,257C446.902,255.145 446.176,256.234 447,254C447.824,251.766 448.182,251.566 450,251C451.818,250.434 453.261,250.583 453,248C452.739,245.417 453.274,242.372 457,242C460.726,241.628 461.997,240.878 463,239C464.003,237.122 467.088,235.697 470,236C472.912,236.303 473.299,234.148 475,232C476.701,229.852 476.902,228.558 481,229C485.098,229.442 486.144,229.786 489,229C491.856,228.214 496.205,228.551 497,227C497.795,225.449 501.194,221.002 504,220C506.806,218.998 508.483,219.767 510,218C511.517,216.233 513.507,210.007 512,208C510.493,205.993 507.869,201.639 510,201C512.131,200.361 515.056,198.554 516,197C516.944,195.446 520.25,189.777 523,190C525.75,190.223 526.618,190.855 529,191C531.382,191.145 535.245,193.018 537,195C538.755,196.982 538.787,199.94 540,198C541.213,196.06 543.312,188.542 546,188C548.688,187.458 553.584,185.108 556,187C558.416,188.892 558.765,190.042 559,193C559.235,195.958 558.451,199.175 557,199C555.549,198.825 555.114,197.844 554,199C552.886,200.156 552.131,203.905 550,205C547.869,206.095 548.842,208.471 546,208C543.158,207.529 544.269,206.622 541,206C537.731,205.378 535.443,205.857 535,207C534.557,208.143 533.846,211.502 532,211C530.154,210.498 531.635,209.092 529,210C526.365,210.908 523.328,212.279 525,214C526.672,215.721 526.72,215.562 529,216C531.28,216.438 532.618,216.388 532,218C531.382,219.612 527.635,221.063 527,223C526.365,224.937 526.659,227.431 526,229C525.341,230.569 523.478,229.438 524,232C524.522,234.562 523.28,235.492 526,236C528.72,236.508 530.829,241.498 533,241C535.171,240.502 538.173,239.287 540,238C541.827,236.713 542.541,236.215 545,238C547.459,239.785 548.861,242.938 552,243C555.139,243.062 556.819,242.993 559,244C561.181,245.007 561.91,245.607 566,245C570.09,244.393 569.766,242.426 573,243C576.234,243.574 574.954,246.071 578,246C581.046,245.929 581.834,246.836 584,245C586.166,243.164 585.328,241.45 588,242C590.672,242.55 591.853,243.71 595,244C598.147,244.29 600.118,245.041 602,244C603.882,242.959 605.354,243.703 606,242C606.646,240.297 607.571,236.823 611,236C614.429,235.177 615.987,234.865 617,232C618.013,229.135 619.741,227.834 622,227C624.259,226.166 620.109,225.009 625,224C629.891,222.991 630.381,224.654 635,225C639.619,225.346 641.363,225.111 643,224C644.637,222.889 646.141,224.551 648,225C649.859,225.449 651.533,226.804 653,225C654.467,223.196 655.286,226.394 658,225C660.714,223.606 663.859,225.514 665,222C666.141,218.486 670.173,215.809 670,213C669.827,210.191 672.493,204.772 675,204C677.507,203.228 677.776,204.97 678,202C678.224,199.03 678.042,197.626 681,195C683.958,192.374 684.765,192.746 686,190C687.235,187.254 685.958,188.023 691,186C696.042,183.977 697.808,183.962 698,181C698.192,178.038 701.869,178.263 703,176C704.131,173.737 700.797,171.793 704,170C707.203,168.207 707.424,170.66 711,168C714.576,165.34 719.184,157.057 722,157C724.816,156.943 725.6,160.436 727,157C728.4,153.564 729.04,152.225 730,151C730.96,149.775 731.299,150.423 732,148C732.701,145.577 732.125,146.676 734,145C735.875,143.324 735.818,142.206 736,140C736.182,137.794 737.414,136.206 739,137C740.586,137.794 743.728,137.169 744,134C744.272,130.831 741.366,131.319 742,130C742.634,128.681 746.499,127.313 746,126C745.501,124.687 745.878,123.415 744,124C742.122,124.585 738.589,126.385 738,124C737.411,121.615 738.39,118.529 740,117C741.61,115.471 745.12,111.39 747,110C748.88,108.61 751.591,109.486 753,107C754.409,104.514 757.447,103.377 759,102C759.12,98.678 756.778,99.521 758,97C759.222,94.479 760.525,96.231 761,93C761.475,89.769 761.248,82.471 763,81C764.752,79.529 767.207,77.386 769,76C770.793,74.614 771.111,75.434 773,74C774.889,72.566 774.039,72.151 776,72C777.961,71.849 780.611,74.212 782,76C783.389,77.788 783.901,81.29 786,80C788.099,78.71 788.467,79.025 789,76C789.533,72.975 790.167,73.585 792,72C793.833,70.415 793.04,66.548 794,65C794.96,63.452 797.149,61.975 798,60C798.851,58.025 796.999,55.764 799,55C801.001,54.236 808.295,56.862 809,62C809.705,67.138 807.674,66.615 807,70C806.326,73.385 806.131,75.495 805,77C803.869,78.505 802.131,81.658 803,83C803.869,84.342 803.674,86.737 805,86C806.326,85.263 803.987,83.399 807,83C810.013,82.601 810.97,80.942 813,83C815.03,85.058 817.338,89.774 819,91C820.662,92.226 822.375,97.322 825,98C827.625,98.678 828.019,98.449 829,98C829.981,97.551 830.791,95.057 831,94C831.209,92.943 827.712,93.05 829,91C830.288,88.95 832.333,88.682 833,86C833.667,83.318 835.152,83.29 834,81C832.848,78.71 832.375,76.929 830,77C827.625,77.071 825.037,75.127 825,74C824.963,72.873 825.856,70.302 825,70C824.144,69.698 824.935,69.681 825,68C825.065,66.319 827.29,66.343 825,65C822.71,63.657 823.911,63.463 825,61C826.089,58.537 825.76,56.993 827,55C828.24,53.007 826.538,52.017 830,52C833.462,51.983 835.363,51.252 836,53C836.637,54.748 834.653,56.138 838,60C841.347,63.862 841.834,64.814 842,67C842.166,69.186 840.967,71.434 843,72C845.033,72.566 846.304,72.206 847,73C847.696,73.794 848.611,74.826 848,76C847.389,77.174 846.822,78.637 848,78C850.561,76.616 851.165,77.59 851,78Z" style="fill:none;stroke:white;stroke-width:2px;"/>
        <path d="M620,186C620,186 623.789,181.319 624,180C624.211,178.681 625.334,177.35 627,177C628.666,176.65 630.32,175.316 631,175C631.68,174.684 631.175,174.792 633,175C634.825,175.208 634.916,174.264 637,173C639.084,171.736 643.873,168.982 646,168C648.127,167.018 649.287,166.03 651,166C652.713,165.97 652.142,164.423 654,165C655.858,165.577 655.717,166.72 657,167C658.283,167.28 659.259,167.182 659,169C658.741,170.818 658.993,171.316 657,173C655.007,174.684 651.483,178.698 652,180C652.517,181.302 652.597,181.487 652,183C651.403,184.513 651.714,184.342 653,186C654.286,187.658 656.731,188.904 656,191C655.269,193.096 652.697,194.152 653,195C653.303,195.848 654.235,196.317 652,197C649.765,197.683 648.263,198.81 646,199C643.737,199.19 643.405,200.255 640,201C636.595,201.745 637.434,201.665 634,202C630.566,202.335 624.772,201.793 624,200C623.228,198.207 622.61,197.496 624,197C625.39,196.504 628.841,194.869 628,193C627.159,191.131 625.69,188.935 624,190C622.31,191.065 620.31,191.687 620,190C619.69,188.313 618.41,187.487 620,186ZM326,304C326,304 328.918,302.898 331,301C333.082,299.102 333.714,297.427 337,297C340.286,296.573 345.2,296.347 346,296C346.8,295.653 350.379,295.267 352,295C353.621,294.733 356.317,294.117 357,295C357.683,295.883 357.85,297.052 357,298C356.15,298.948 355.543,299.22 356,301C356.457,302.78 357.996,304.928 356,306C354.004,307.072 349.36,309.333 349,311C348.64,312.667 347.828,313.655 349,315C350.172,316.345 351.904,317.363 351,319C350.096,320.637 346.564,324.297 344,324C341.436,323.703 332.29,324.053 331,322C329.71,319.947 330.666,319.662 329,319C327.334,318.338 326.742,318.107 327,316C327.258,313.893 328.819,312.552 328,311C327.181,309.448 327.425,308.935 326,309C324.575,309.065 323.271,307.304 324,306C324.729,304.696 326,304 326,304ZM211.074,279.482C212.167,279.323 213.883,280.065 217,281C220.117,281.935 219.591,282.978 222,281C224.409,279.022 229.628,273.882 232,274C234.372,274.118 233.489,274.488 236,273C238.511,271.512 243.603,265.922 246,265C248.397,264.078 250.315,263.615 252,264C253.685,264.385 255.242,265.868 255,268C254.758,270.132 254.162,270.35 254,273C253.838,275.65 254.399,277.062 255,279C255.601,280.938 253.793,281.843 256,283C258.207,284.157 259.432,284.54 262,285C264.568,285.46 267.301,285.091 269,287C270.699,288.909 271.4,290.715 274,291C276.6,291.285 276.265,292.723 279,293C281.735,293.277 281.499,294.248 282,292C282.501,289.752 280.043,282.065 282,282C283.957,281.935 283.835,282.142 287,282C290.165,281.858 288.846,281.598 291,281C293.154,280.402 295.872,285 298,285C300.128,285 301.121,284.624 303,286C304.879,287.376 307.081,292.033 311,293C314.919,293.967 316.176,293.588 318,296C319.824,298.412 321.716,305.395 321,307C320.284,308.605 318.483,310.804 319,313C319.517,315.196 318.643,320.451 320,322C321.357,323.549 320.95,323.845 321,325C321.05,326.155 316.315,329.017 316,330C315.685,330.983 314.085,330.564 315,332C315.915,333.436 317.472,334.495 317,335C316.528,335.505 313.296,333.882 312,335C310.704,336.118 309.197,336.955 307,336C304.803,335.045 302.255,334.265 301,335C299.745,335.735 297.62,338.349 296,338C294.38,337.651 294.839,337.123 293,338C291.161,338.877 289.675,340.908 289,342C288.325,343.092 286.901,341.996 287,344C287.099,346.004 287.353,347.543 286,348C284.647,348.457 283.422,348.784 283,350C282.578,351.216 282.955,353.098 282,353C281.045,352.902 279.101,351.573 279,354C278.899,356.427 279.163,359.036 277,358C274.837,356.964 271.539,355.788 272,354C272.461,352.212 272.926,350.616 273,349C273.074,347.384 271.998,348.295 272,346C272.002,343.705 271.079,343.974 272,342C272.921,340.026 272.911,339.032 271,337C269.089,334.968 267.126,330.075 266,328C264.874,325.925 262.659,324.206 263,322C263.341,319.794 264.177,318.812 261,318C257.823,317.188 257.855,319.195 256,318C254.145,316.805 254.224,315.578 252,316C249.776,316.422 250.439,318.275 248,318C245.561,317.725 242.73,317.516 242,319C241.27,320.484 242.332,325.232 240,326C237.668,326.768 234.992,325.699 232,327C229.008,328.301 229.2,328.933 226,329C222.8,329.067 221.569,329.017 220,330C218.431,330.983 218.404,331.415 217,333C215.596,334.585 213.47,335.583 213,337C212.53,338.417 207.9,344.372 206,344C204.1,343.628 203.119,342.119 202,340C200.881,337.881 199.042,337.645 200,336C200.958,334.355 200.743,334.557 202,333C203.257,331.443 203.126,330.925 203,329C202.874,327.075 200.567,323.83 199,323C197.433,322.17 194.469,321.976 193,321C191.531,320.024 189.465,318.414 190,316C190.535,313.586 190.713,311.862 193,311C195.287,310.138 195.334,310.391 196,309C196.666,307.609 195.188,307.457 197,306C198.812,304.543 203.057,303.825 204,302C204.943,300.175 206.604,299.65 207,297C207.396,294.35 209.218,290.854 208,289C206.782,287.146 206.221,283.835 207,283C207.779,282.165 210.069,279.629 211.074,279.482ZM162,202C163.052,202.314 163.459,205.519 163,205C161.493,206.578 160.164,208.06 160,210C159.836,211.94 160.75,214.076 159,215C157.25,215.924 157.309,214.79 157,217C156.691,219.21 156.261,221.225 157,222C157.739,222.775 158.358,224.149 157,225C155.642,225.851 155.17,225.073 156,227C156.83,228.927 157.267,232.534 160,235C163.961,238.574 161.48,241.022 163,242C170.742,242.768 175.112,243.437 178,242C179.969,241.02 180.773,241.554 181,243C181.227,244.446 182,250 182,250C182,250 182.66,255.041 181,256C179.34,256.959 176.365,260.078 176,261C175.635,261.922 176.21,264.47 174,264C171.79,263.53 169.286,263.756 169,262C168.714,260.244 166.781,258.874 166,259C165.219,259.126 164.598,259.014 164,259C163.402,258.986 164.125,269.173 166,271C167.875,272.827 179.08,276.784 179,279C177.522,281.425 172.812,283.906 173,287C173.188,290.094 172.225,291.25 174,292C175.775,292.75 179.219,292.594 179,294C178.781,295.406 176.043,294.566 175,296C173.957,297.434 171.79,299.603 172,301C172.21,302.397 173.468,308.543 172,309C170.532,309.457 165.884,308.333 163,309C160.116,309.667 156.665,311.467 155,312C153.335,312.533 150.382,315.09 147,315C143.618,314.91 140.673,313.272 139,315C137.327,316.728 129.551,322.787 129,325C128.449,327.213 127.621,328.775 128,331C128.379,333.225 127.998,335.188 126,336C124.002,336.812 126.681,339.924 124,340C121.319,340.076 119.085,339.058 118,341C116.915,342.942 111.447,345.998 111,348C110.553,350.002 110.006,351.733 110,353C109.994,354.267 111.726,356.797 111,357C110.274,357.203 106.13,358.615 106,357C105.87,355.385 105.878,354.293 105,354C104.122,353.707 102.379,354.001 100,357C97.621,359.999 95.385,360.059 95,363C94.615,365.941 94.81,368.284 93,369C91.19,369.716 91.886,373.069 90,373C88.114,372.931 86.123,371.962 86,370C85.877,368.038 84.275,362.098 82,360C79.725,357.902 79.421,358.001 78,359C76.579,359.999 72.873,359.469 72,359C71.127,358.531 70.551,357.652 70,359C69.449,360.348 68.733,361.597 70,363C71.267,364.403 73.432,364.591 72,366C70.568,367.409 68.998,370.327 68,371C67.002,371.673 66.031,375.671 64,375C61.969,374.329 58.881,370.844 57,370C55.119,369.156 51.705,370.731 51,369C50.295,367.269 48.979,366.366 51,365C53.021,363.634 64.003,356.922 64,355C63.997,353.078 63.165,349.815 64,349C64.835,348.185 66.396,349.101 66,347C65.604,344.899 64.116,343.478 65,343C65.884,342.522 69.615,339.559 71,338C72.385,336.441 72.174,337.124 72,335C71.826,332.876 70.928,330.942 69,331C67.072,331.058 67.304,330.759 66,330C64.696,329.241 64.38,327.039 63,328C61.62,328.961 61.359,331.656 61,333C60.641,334.344 58.322,337.043 57,338C55.678,338.957 54.839,338.778 54,341C53.161,343.222 53.231,341.912 54,344C54.769,346.088 55.93,346.025 55,347C54.07,347.975 52.866,347.788 52,349C51.134,350.212 51.103,351.733 50,353C48.897,354.267 47.926,359.636 46,358C44.074,356.364 35.783,347.435 35,344C34.217,340.565 33.348,339.699 32,338C30.652,336.301 30.063,329.346 32,328C33.937,326.654 45.55,330.158 46,329C46.45,327.842 48.711,324.014 48,321C47.289,317.986 43.088,312.892 44,311C44.912,309.108 47.425,307.688 49,307C50.575,306.312 50.796,308.092 51,305C51.204,301.908 50.881,301.56 53,301C55.119,300.44 57.778,298.314 59,297C60.222,295.686 60.493,295.432 62,295C63.507,294.568 62.788,293.067 65,292C67.212,290.933 67.572,290.9 69,292C70.428,293.1 72.582,294.691 75,294C77.418,293.309 79.758,291.471 81,289C82.242,286.529 82.473,286.827 84,285C85.527,283.173 83.634,276.936 85,276C86.366,275.064 87.719,277.033 89,275C90.281,272.967 91.327,271.62 90,271C88.673,270.38 86.236,271.325 87,269C87.764,266.675 88.783,266.024 91,266C93.217,265.976 94.449,266.163 96,266C97.551,265.837 102.088,266.051 103,265C103.912,263.949 105.039,262.804 105,261C104.961,259.196 105.668,246.001 105,244C104.332,241.999 104.69,241.803 105,239C105.31,236.197 106.787,229.38 105,228C103.213,226.62 100.981,223.337 100,224C99.019,224.663 95.987,227.213 96,228C96.013,228.787 94.154,229.928 94,231C93.846,232.072 92.993,233.244 93,235C93.007,236.756 92.81,237.706 92,238C91.19,238.294 90.977,238.673 90,241C89.023,243.327 89.02,244.801 90,247C90.98,249.199 88.935,253.278 88,254C87.065,254.722 84.64,256.886 84,255C83.36,253.114 83.032,250.618 84,249C84.968,247.382 86.36,247.205 85,246C83.64,244.795 79.727,241.329 77,241C74.273,240.671 75.432,240.7 73,241C70.568,241.3 64.073,243.287 64,241C63.927,238.713 63.891,230.192 63,229C62.109,227.808 61.052,226.456 62,225C62.948,223.544 68.691,220.006 69,218C69.309,215.994 69.195,213.823 71,214C72.805,214.177 74.05,214.258 75,216C75.95,217.742 75.378,218.833 75,220C74.622,221.167 73.77,226.304 75,228C76.23,229.696 79.339,235.019 81,234C82.661,232.981 84.613,231.101 85,229C85.387,226.899 87.746,227.365 88,225C88.254,222.635 90.473,219.796 88,218C85.527,216.204 84.527,216.55 83,214C82.591,210.402 81.521,205.078 83,204C84.479,202.922 83.731,202.923 84,201C84.269,199.077 84.236,197.299 86,197C87.764,196.701 88.251,195.202 90,197C91.749,198.798 94.449,202.965 96,202C97.551,201.035 98.169,202.181 98,200C97.831,197.819 96.771,196.445 98,195C99.229,193.555 99.695,192.236 101,193C102.305,193.764 104.787,193.901 104,196C103.213,198.099 101.695,196.826 102,199C102.305,201.174 100.34,202.659 103,203C105.66,203.341 105.754,205.358 107,204C108.246,202.642 106.79,201.288 110,202C113.21,202.712 112.946,204.057 115,203C117.054,201.943 119.508,196.503 123,198C126.492,199.497 125.733,202.196 128,202C130.267,201.804 131.007,201.874 132,201C132.993,200.126 137.388,200.643 139,200C140.612,199.357 141.5,198.558 142,197C142.5,195.442 145.628,195.063 147,197C148.372,198.937 148.343,200.728 150,202C151.657,203.272 151.476,204.841 153,205C154.524,205.159 156.863,205.847 158,204C159.137,202.153 160.948,201.686 162,202Z" style="fill:none;stroke:white;stroke-width:2px;"/>
    </g>
    <path d="M759,101C760.162,101.445 762.486,102.334 764.282,102.171C766.115,102.004 768.547,99.029 770,100C771.453,100.971 768.564,106.147 773,108C776.654,106.214 774.825,104.069 779.594,104.744C782.627,105.172 780.903,106.261 784,106C787.93,105.669 788.809,103.641 791,104.744C793.191,105.846 802.316,118.922 801,122C799.684,125.078 798.031,125.654 798,128C797.969,130.346 799.746,131.857 798,133C796.254,134.143 794.686,134.997 794,138C793.314,141.003 793.709,141.935 791,143C788.291,144.065 786.811,142.055 787,146C787.189,149.945 787.221,152.87 785,153C782.779,153.13 780.452,152.702 779.594,158C778.737,163.298 781.058,162.66 781,165C780.942,167.34 781.309,168.128 779.594,170C777.879,171.872 780.452,171.718 779.594,174C778.737,176.282 777.918,176.533 776,178C774.082,179.467 773.511,180.613 773,182C772.489,183.387 772.043,183.878 770,184C767.957,184.122 769.841,192.568 767,193C764.159,193.432 763.966,191.465 761,193C758.034,194.535 757.233,195.463 755,198C752.767,200.537 749.848,202.278 748,203C746.152,203.722 746.46,206.928 746,209C745.54,211.072 743.033,211.783 743,214C742.967,216.217 743.605,216.598 742,218C740.395,219.402 740.585,219.576 740,222C739.415,224.424 740.545,224.881 739,226C737.455,227.119 735.73,226.226 735,229C734.27,231.774 735.16,234.959 733,236C730.84,237.041 721.165,242.671 720,242C718.835,241.329 719,242 719,242C719,242 717.82,239.569 716,241C714.18,242.431 712.23,246.504 711,249C709.77,251.496 706.477,254.869 705,256C703.523,257.131 701.867,257.847 700,260C698.133,262.153 698.522,264.499 696,264C693.478,263.501 690.687,261.154 690,260C689.313,258.846 688.077,256.094 686,256C683.923,255.906 688.077,253.239 686,252C683.923,250.761 681.712,251.156 680,252C678.288,252.844 677.999,252.381 676,252C674.001,251.619 673.307,251.401 672,252C670.693,252.599 669.634,253.851 669,252C668.366,250.149 666.572,249.241 669,247C671.428,244.759 673.224,243.896 673,242C672.776,240.104 672.572,239.409 672,237C671.428,234.591 669.917,233.044 673,231C676.083,228.956 677.547,229.411 680,229C682.453,228.589 687.422,229.536 688,226C688.578,222.464 684.279,221.946 686,220C687.721,218.054 689.627,219.213 688,216C686.373,212.787 685.872,213.256 686,211C686.128,208.744 686.282,206.033 684,205C681.718,203.967 679.427,203.136 678,203M678,338C678,338 675.184,328.353 673,326C670.816,323.647 669.512,322.11 669,320C668.488,317.89 667.552,318.07 669,317C670.448,315.93 670.124,315.745 669,314C667.876,312.255 663.146,309.992 663,308C662.854,306.008 664.452,303.22 665,301C665.548,298.78 666.044,297.222 665,295C663.956,292.778 666.779,291.347 665,289C663.221,286.653 663.189,285.022 661,284C658.811,282.978 659.109,285.104 657,283C654.891,280.896 656.784,280.289 654,279C651.216,277.711 650.091,278.452 649,279C647.909,279.548 648.339,281.349 645,281C641.661,280.651 640.871,279.512 639,281C637.129,282.488 637.281,282.777 635,283C632.719,283.223 632.588,283.592 631,285C629.412,286.408 629.161,288.002 628,285C626.839,281.998 626.836,281.024 625,279C623.164,276.976 619.856,276.454 622,275C624.144,273.546 626.221,272.742 628,271C629.779,269.258 633.564,264.622 637,264L643,264C646.439,263.378 645.191,263.072 649,262C652.809,260.928 651.679,263.807 655,262C658.321,260.193 663.22,253.105 668.517,251.186M648,393C648,393 646.353,391.579 645,389C643.647,386.421 641.985,387.147 640,388C638.015,388.853 633.665,389.419 632,386C630.335,382.581 631.585,382.507 630,378C628.415,373.493 626.865,372.907 627,370C627.135,367.093 628.449,367.723 626,366C623.551,364.277 620.497,365.819 621,363C621.503,360.181 621.937,358.731 623,356C624.063,353.269 626.529,353.259 626,350C625.471,346.741 623.713,343.403 626,342C628.287,340.597 631.393,341.579 634,340C636.607,338.421 638.145,336.267 640,336C641.855,335.733 641.329,334.619 643,333C644.671,331.381 646.209,331.131 648,331C649.791,330.869 648.753,328.043 651,326C653.247,323.957 654.993,325.243 657,323C659.007,320.757 660.145,319.179 659,316C657.855,312.821 659.201,313.019 660,311C660.799,308.981 658.049,308.939 660,308C661.951,307.061 663,308 663,308M628.024,341.284C628.024,341.284 623.649,339.867 622,341C620.351,342.133 619.745,341.403 618,341C616.255,340.597 614.945,339.227 614,341C613.055,342.773 612.609,344.251 612,343C611.391,341.749 609.345,340.987 608,339C606.655,337.013 606.337,336.523 604,336C601.663,335.477 600.593,335.339 601,334C601.407,332.661 600.833,330.411 604,330C607.167,329.589 607.329,330.283 610,330C612.671,329.717 613.361,330.123 615,328C616.639,325.877 621.217,324.891 622,325C622.783,325.109 624.705,325.835 624,324C623.295,322.165 621.217,321.803 622,320C622.783,318.197 627.377,315.355 627,313C626.623,310.645 625.713,310.603 627,308C628.287,305.397 629.249,306.827 628,304C626.751,301.173 622.609,300.715 625,298C627.391,295.285 628.305,295.067 629,293C629.695,290.933 629.925,289.365 628.828,286.514M577,246C577,246 579.473,249.595 577,251C574.527,252.405 570.705,256.939 573,258C575.295,259.061 578.433,259.707 580,259C581.567,258.293 584.545,258.187 586,256C587.455,253.813 587.937,253.163 590,254C592.063,254.837 593.761,255.867 594,259C594.239,262.133 593.841,268.475 595,271C596.159,273.525 596.465,275.531 599,276C601.535,276.469 601.265,275.947 603,278C604.735,280.053 604.321,281.483 606,280C607.679,278.517 607.889,279.307 609,280C610.111,280.693 610.177,282.379 612,280C613.823,277.621 614.337,275.531 616,276C617.663,276.469 621.428,276.029 621.428,276.029M628,415C628,415 629.505,410.507 628,408C626.495,405.493 627.729,402.219 625,402C622.271,401.781 622.289,402.251 621,404C619.711,405.749 619.617,406.763 618,406C616.383,405.237 615.585,404.683 614,404C612.415,403.317 610.657,405.323 610,404M606,385C606,385 605.601,379.819 606,378C606.399,376.181 606.705,377.915 607,375C607.295,372.085 603.937,373.371 606,371C608.063,368.629 607.761,371.595 609,368C610.239,364.405 611.937,366.763 610,362C608.063,357.237 606.321,359.579 607,357C607.679,354.421 610.321,354.523 609,353C607.679,351.477 606.737,351.339 609,350C611.263,348.661 613.073,349.563 613,347C612.927,344.437 613,343 613,343M600,386C600,386 600.945,382.155 599,380C597.055,377.845 596.913,376.459 595,376C593.087,375.541 593.265,377.531 591,375C588.735,372.469 581.761,367.675 580,367C578.239,366.325 576.529,367.259 577,365C577.471,362.741 577.393,360.587 575,360C572.607,359.413 569.953,356.987 570,355C570.047,353.013 568.801,349.691 570,347C571.199,344.309 572.385,345.403 570,343C567.615,340.597 566.353,340.347 565,339C563.647,337.653 560.737,337.467 562,335C563.263,332.533 565.585,333.563 565,331C564.415,328.437 563.409,320.651 565,320C566.591,319.349 568.001,319.851 568,318C567.999,316.149 568.417,316.107 570,316C571.583,315.893 572.961,317.515 574,316C575.039,314.485 574.481,312.539 577,313C579.519,313.461 580.945,313.163 581,316C581.055,318.837 579.329,319.403 580,322C580.671,324.597 581.825,326.539 584,328C586.175,329.461 584.705,331.515 588,331C591.295,330.485 588.353,330.155 592,330C595.647,329.845 597.105,335.675 599,335C600.895,334.325 601,335 601,335M578.74,313.289C578.74,313.289 577.745,309.963 581,308C584.255,306.037 584.753,305.883 587,305C589.247,304.117 591.521,303.771 590,301C588.479,298.229 585.617,299.531 585,296C584.383,292.469 587.025,293.755 585,291C582.975,288.245 578.513,288.363 581,286C583.487,283.637 583.825,282.763 585,280C586.175,277.237 587.601,277.115 589,275C590.399,272.885 588.577,271.675 590,271C591.423,270.325 595,270 595,270M560,393C560,393 558.529,391.323 560,389C561.471,386.677 563.553,386.779 562,385C560.447,383.221 556.161,381.435 556,379C555.839,376.565 558.721,376.683 556,374C553.279,371.317 550.049,369.035 550,368C549.951,366.965 552.625,361.691 555,361C557.375,360.309 558.529,361.099 560,360C561.471,358.901 565.745,358.251 567,358C568.255,357.749 569.825,355.579 570,355M538,387C538,387 539.761,385.115 543,385C546.239,384.885 546.353,386.363 547,383C547.647,379.637 547.089,378.715 545,377C542.911,375.285 539.697,373.787 539,373C538.303,372.213 536.817,374.811 535,373C533.183,371.189 527.681,365.051 528,363C528.319,360.949 528.353,358.731 530,356C531.647,353.269 533.505,353.467 532,351C530.495,348.533 530.273,347.403 530,344C529.727,340.597 529.249,337.931 530,336C530.751,334.069 530.913,334.667 530,332C529.087,329.333 526.657,327.835 528,325C529.343,322.165 531.953,318.443 535,318C538.047,317.557 537.393,318.875 539,317C540.607,315.125 544.049,313.003 547,314C549.951,314.997 550.081,316.443 552,317C553.919,317.557 555.985,316.907 557,318C558.015,319.093 557.761,319.755 560,320C562.239,320.245 565,320 565,320M540.4,374.005C540.4,374.005 540.785,370.219 543,370C545.215,369.781 546.225,368.395 547,368C547.775,367.605 548.641,367.755 550,368M507,394C507,394 504.593,389.115 505,387C505.407,384.885 506.929,384.875 507,382C507.071,379.125 503.569,374.811 505,373C506.431,371.189 509.905,369.467 509,367C508.095,364.533 505.393,363.227 507,361C508.607,358.773 510.321,357.627 511,355C511.679,352.373 511.761,352.235 513,350C514.239,347.765 512.609,347.227 514,345C515.391,342.773 517.073,343.579 517,341C516.927,338.421 515.281,339.035 517,337C518.719,334.965 520.513,333.387 520,332C519.487,330.613 519.217,328.923 523,329C526.783,329.077 528.325,328.967 528.325,328.967M477,388L478.115,387.053C479.051,386.26 479.284,387.746 480,385C480.831,381.813 478.99,379.84 481,378C482.763,376.387 482.831,376.433 483,375C483.241,372.954 481.793,368.779 484,368C486.207,367.221 486.513,365.691 487,363C487.487,360.309 487.777,359.483 490,359C492.223,358.517 493.473,358.347 494,356C494.527,353.653 494.993,352.859 497,353C499.007,353.141 498.945,352.107 500,350C501.055,347.893 502.721,348.795 504,347C505.279,345.205 503.953,345.019 505,343C506.047,340.981 505.649,341.451 507,340C508.351,338.549 506.113,336.059 508,335C509.887,333.941 507.761,333.467 511,333C514.239,332.533 520,332 520,332M511,333C511,333 510.058,331.229 508,330C505.942,328.771 504.773,328.849 504,327C503.227,325.151 502.845,324.197 501,323C499.155,321.803 496.203,321.455 497,320C497.797,318.545 498.121,316.613 499,315C499.879,313.387 500.402,313.147 501,312C501.598,310.853 501,308 501,308M453,250C453,250 453.921,250.802 455,253C456.079,255.198 456.211,255.897 458,256C459.789,256.103 460.491,255.372 461,258L461,263C461.69,264.791 463.423,266.956 465,268C466.577,269.044 466.256,267.689 468,269C469.744,270.311 470.645,274.531 473,275C475.355,275.469 476.483,273.716 478,275C479.517,276.284 483.234,275.526 484,275M475,233C475,233 475.017,234.548 476,237C476.983,239.452 476.845,239.833 478,241C479.155,242.167 479.397,243.208 480,244C480.603,244.792 483.686,246.865 484,248C484.314,249.135 484.501,248.973 484,251C483.499,253.027 482.058,252.168 484,254C485.942,255.832 487.614,255.915 488,258C488.386,260.085 489.171,260.376 490,261C490.829,261.624 493,263 493,263M496,228C496,228 499.407,227.597 501,229C502.593,230.403 502.058,231.878 504,232C505.942,232.122 507.805,230.792 509,232C510.195,233.208 511.181,233.615 512,234C512.819,234.385 514.466,234.81 515,236C515.534,237.19 516,240 516,240M530,263C530,263 528.783,268.594 527,269C525.217,269.406 523.787,268.522 525,271C526.213,273.478 527.715,274.259 529,275C530.285,275.741 535.009,278.196 535,280C534.991,281.804 535.914,284.857 535,286C534.086,287.143 529.163,291.536 529,294C528.837,296.464 528.692,295.536 527,296C525.308,296.464 525.045,298.007 524,299C522.955,299.993 519.941,300.658 520,302C520.059,303.342 521.588,303.491 522,305C522.412,306.509 524.394,306.867 522,308C519.606,309.133 517.651,309.953 517,309C516.349,308.047 515.362,306.224 514,307C512.638,307.776 511.262,307.057 511,309C510.738,310.943 510.339,311.962 509,311C507.661,310.038 507.678,307.772 505,308C502.322,308.228 501.841,307.229 500,308C498.159,308.771 496.637,310.677 495,309C493.363,307.323 492.366,307.482 493,306C493.634,304.518 494.637,303.916 494,302C493.363,300.084 492.709,298.079 491,297C489.291,295.921 487.795,292.323 488,291C488.205,289.677 487.614,290.033 488,288C488.386,285.967 488.99,285.843 490,285C491.01,284.157 492.347,283.463 491,282C489.653,280.537 488.691,281.906 487,280C485.309,278.094 482.148,276.431 484,275C485.852,273.569 491.171,270.947 491,269C490.829,267.053 492.275,264.919 493,263C493.725,261.081 494.836,260.358 496,259C497.164,257.642 506,253 506,253M525,236C525,236 524.674,236.548 523,238C521.326,239.452 519.923,240.005 518,240C516.077,239.995 514.547,240.104 514,241C513.453,241.896 507.696,246.865 507,248C506.304,249.135 504.882,253.073 506,254C507.118,254.927 506.9,254.087 509,256C511.1,257.913 510.366,258.829 512,260C513.634,261.171 512.466,262.367 514,261C515.534,259.633 513.941,258.639 517,259C520.059,259.361 520.502,260.729 522,260C523.498,259.271 523.606,256.467 525,259C526.394,261.533 524.892,263.2 527,263C529.108,262.8 528.629,261.752 530,263C531.371,264.248 532.095,265.2 533,264C533.905,262.8 533.019,261.643 535,261C536.981,260.357 539.679,261.634 541,260C542.321,258.366 541.96,257.254 543,256C544.04,254.746 548.177,252.702 550,253C551.823,253.298 552.548,254.268 553,256C553.452,257.732 554.386,258.729 556,259C557.614,259.271 557.77,259.263 560,258C562.23,256.737 562.965,256.639 564,258C565.035,259.361 565.888,261.363 567,260C568.112,258.637 571.192,257.725 573,258M480,316C480,316 483.515,320.016 485,321C486.485,321.984 486.981,321.392 488,323C489.019,324.608 489.542,325.854 491,326C492.458,326.146 492.547,327.845 493,326C493.453,324.155 493.189,322.831 494,322C494.811,321.169 497,321 497,321M457,344C457,344 457.586,343.701 458.456,344C459.688,344.423 461.488,345.442 463,345C465.581,344.245 464.799,342.56 467,342C469.201,341.44 468.084,342.026 470,343C471.916,343.974 471.912,344.289 473,343C474.088,341.711 475.569,340.361 477,339C478.431,337.639 479.026,338.795 479,336C478.974,333.205 479.035,331.51 480,331C480.965,330.49 481.949,329.854 482,328C482.051,326.146 480.483,321.998 480,320C479.517,318.002 480.211,315.98 480,315C479.789,314.02 474.7,306.848 471,306C467.3,305.152 468.509,307.21 467,306C465.491,304.79 465.034,302.749 463,303C460.966,303.251 461.478,304.197 460,303C458.522,301.803 456.274,300.74 455,301C453.726,301.26 453.821,297.979 454,296C454.179,294.021 455.007,294.233 455,292C454.993,289.767 455.631,288.033 454,287C452.369,285.967 450.446,285.011 451,283C451.554,280.989 450.907,278.259 452,277C453.093,275.741 453.541,274.512 453,273C452.459,271.488 452.907,270.956 453,270C453.093,269.044 456.02,267.119 457,266C457.98,264.881 461,263 461,263M407.231,258.846C407.231,258.846 404.722,257.523 402,259C399.278,260.477 397.538,261.091 397,262C396.462,262.909 395.89,263.523 394,262C392.11,260.477 392.962,257.363 391,257C389.038,256.637 389.394,257.203 388,255C386.606,252.797 384.978,251.667 384,253C383.022,254.333 383.074,254.387 381,255C378.926,255.613 378.658,253.619 377,255C375.342,256.381 374.29,258.771 372,257C369.71,255.229 367.986,253.971 370,253C372.014,252.029 374.45,252.835 374,250C373.55,247.165 369.938,246.131 372,243C374.062,239.869 374.818,238.995 377,237C379.182,235.005 381.922,232.563 381,227M427,284C427,284 423.89,283.091 424,281C424.11,278.909 425.682,278.675 424,277C422.318,275.325 419.986,276.051 420,273C420.014,269.949 418.418,270.867 418,269C417.582,267.133 418.93,267.427 418,266C417.07,264.573 409.762,266.499 409,264C408.238,261.501 409.042,261.315 408,260C406.958,258.685 406.946,258.131 409,257C411.054,255.869 410.69,255.331 411,254M400,353C400.833,352.625 403.997,353.959 405,353C406.538,351.53 409.11,349.742 411,349C412.89,348.258 415.894,347.68 418,349C420.106,350.32 420.364,351.586 423,351C425.636,350.414 426.99,350.304 428,349C429.01,347.696 433.274,345.708 434,343C434.726,340.292 434.336,335.393 435,334C435.664,332.607 438.807,331.862 440,332C441.193,332.138 442.651,333.08 443,332M443.442,330.049C443.442,330.049 440.77,329.487 439,328C437.819,326.047 435.461,325.483 435,323C434.539,320.517 433.866,316.857 432,317C430.134,317.143 427.427,320.546 427,321C426.573,321.454 426.582,323.421 424,323C421.418,322.579 418.986,322.952 418,323C417.014,323.048 414.36,322.264 414,322M391,378C391,378 390.478,375.812 391,373C391.522,370.188 391.948,370.717 393,369C394.052,367.283 395.198,367.215 395,365C394.802,362.785 393.824,362.402 396,361C398.176,359.598 399.95,359.495 400,358C400.05,356.505 401.074,354.93 400,353C398.926,351.07 398.137,347.866 399,346C399.863,344.134 404.608,341.551 405,339C405.392,336.449 404.983,337.267 405,334C405.017,330.733 404.827,330.922 406,329C407.173,327.078 407.702,325.89 408,324C408.298,322.11 408.141,320.546 410,321C411.859,321.454 412.767,322.264 414,322C415.233,321.736 417.549,321.513 417,319C416.451,316.487 414.454,316.105 414,314C413.546,311.895 414.235,311.072 413,309C411.765,306.928 410.703,304.476 411,302C411.297,299.524 409.704,296.099 412,295C414.296,293.901 419.457,292.598 421,291C422.543,289.402 426.771,286.189 427,284C427.229,281.811 431.212,282.97 434,283C436.788,283.03 442.089,284.845 443,283C443.911,281.155 446.996,280.281 447,278C447.004,275.719 447.716,272.685 449,272C450.284,271.315 453,271 453,271M447,345C447,345 445.84,343.02 446,341C446.16,338.98 447.559,338.769 447,337C446.441,335.231 442.651,334.111 443,332C443.349,329.889 444.996,326.39 446,325C447.004,323.61 446.528,324.982 447,322C447.472,319.018 447.435,319.044 449,318C450.565,316.956 451.499,316.574 453,314C454.501,311.426 456.436,307.321 455,306C453.564,304.679 454.655,301.726 455,301M360,294C360,294 363.707,292.997 365,294C366.293,295.003 368.326,296.026 369,295C369.674,293.974 371.076,293.171 371,291C370.924,288.829 370.283,287.303 372,287C373.717,286.697 374.24,288.185 376,287C377.76,285.815 379.668,285.419 380,284C380.332,282.581 379.242,281.257 381,281C382.758,280.743 383.993,280.874 384,280C384.007,279.126 384.228,274.166 385,274M394,295C394,295 390.13,292.449 390,290C389.87,287.551 390.698,286.43 392,285C393.302,283.57 395.796,283.588 394,282C392.204,280.412 390.267,280.745 390,279C389.733,277.255 387.621,275.903 386,275C384.379,274.097 383.053,271.806 382,270C380.947,268.194 380.563,264.611 380,264C379.437,263.389 377.446,263.631 377,262C376.554,260.369 376,256 376,256M357,332C357,332 359.724,333.754 361,332C362.276,330.246 361.253,328.793 363,330C364.747,331.207 364.311,331.694 367,332C369.689,332.306 369.016,330.459 371,332C372.984,333.541 372.485,334.047 375,334C377.515,333.953 382,334 382,334M395,367C395,367 392.162,364.307 389,365C385.838,365.693 384.946,367.283 382,367C379.054,366.717 380.626,364.947 376,365C371.374,365.053 368.85,363.795 368,365C367.15,366.205 364.658,367.379 362,365C359.342,362.621 355.81,360.419 357,358C358.19,355.581 356.946,352.595 360,353C363.054,353.405 363.666,353.715 364,351C364.334,348.285 364.338,346.995 366,347C367.662,347.005 366.802,345.267 368,343C369.198,340.733 369.554,339.779 372,340C374.446,340.221 374.738,343.107 376,340C377.262,336.893 377.538,336.179 379,335C380.462,333.821 381.234,335.123 382,333C382.766,330.877 381.906,328.243 384,327C386.094,325.757 386.498,325.699 387,324C387.502,322.301 390.815,319.85 391.437,319.44M408,325C408,325 405.234,321.699 402,322C398.766,322.301 392.914,323.155 392,321C391.086,318.845 390.402,314.115 391,312C391.598,309.885 391.122,303.043 392,300C392.878,296.957 394.178,295.699 395,293C395.822,290.301 393.698,290.339 397,290C400.302,289.661 401.266,291.875 402,290C402.734,288.125 404.402,287.203 406,286C407.598,284.797 408.434,283.811 410,282C411.566,280.189 411.954,281.315 414,278C416.046,274.685 419.09,272.723 420,273M200,324C200,324 202.329,320.857 205,319.44C207.671,318.022 206.921,317.226 208,315C209.079,312.774 206.985,311.866 212,312C217.015,312.134 217.609,312.474 220,310C222.391,307.526 222.617,307.066 225,308C227.383,308.934 228.185,311.418 229,308C229.815,304.582 228.729,303.21 231,303C233.271,302.79 233.145,305.258 235,303C236.855,300.742 234.665,300.026 238,300C241.335,299.974 240.697,303.866 243,300C245.303,296.134 242.041,295.146 247,295C251.959,294.854 252.921,293.226 255,295C257.079,296.774 257.929,298.586 260,298C262.071,297.414 264.681,298.874 266,300C267.319,301.126 268.249,301.418 269,303C269.751,304.582 267.769,305.37 271,306C274.231,306.63 274.697,309.658 276,310C277.303,310.342 277.321,311.482 280,312C282.679,312.518 283.609,312.618 285,315C286.391,317.382 287.561,319.242 288,321C288.439,322.758 288.025,322.298 289,324C289.975,325.702 288.361,328.458 290,329C291.639,329.542 293.209,329.722 293,332C292.791,334.278 293,338 293,338M357,220L357,232C357,232 357.05,233.705 355,236C352.95,238.295 352.794,239.817 353,242C353.206,244.183 353.21,245.129 355,246C356.79,246.871 357.546,246.905 358,249C358.454,251.095 360,252 360,252M343,271C343,271 342.138,271.849 343,268C343.862,264.151 341.706,263.433 344,262C346.294,260.567 346.25,261.529 348,259C349.75,256.471 352.106,255.065 354,255C355.894,254.935 355.546,255.913 357,256C358.454,256.087 358.394,258.009 359,255C359.606,251.991 359.194,252.185 361,251C362.806,249.815 362.378,250.009 364,251C365.622,251.991 365.69,254.425 367,255C368.31,255.575 368.746,256.089 370,255M278,299C278,299 281.913,301.21 283,302C284.087,302.79 288,306 288,306C288,306 287.721,307.962 290,308C292.279,308.038 292.137,308.346 294,308C295.863,307.654 295.401,310.298 298,310C300.599,309.702 299.177,309.242 302,308C304.823,306.758 304.441,306.906 307,306C309.559,305.094 311.657,307.194 314,308C316.343,308.806 320.53,308 320.53,308M273,307C273,307 276.057,306.234 277,304C277.943,301.766 277.033,302.202 278,300C278.967,297.798 278.057,296.01 278,293M301,273C301,273 302.014,271.366 304,271C305.986,270.634 306.911,269.757 308,269C309.089,268.243 310.646,268.407 312,267C313.354,265.593 314.771,264.155 315,263C315.229,261.845 315.479,261.129 316,260C316.521,258.871 317.604,258.425 318,257C318.396,255.575 318.7,253.721 319,253C319.3,252.279 318.893,250.249 319,248C319.107,245.751 319.472,246.511 320,245C320.528,243.489 320.003,243.787 320,243C319.995,241.638 320.768,240.295 320.768,240.295M289,265C289,265 290.833,265.454 291,264C291.167,262.546 292.576,262.797 292,261C291.424,259.203 291.283,260.011 291,258C290.717,255.989 289.033,254.325 291,254C292.967,253.675 294.462,254.253 295,253C295.538,251.747 295.177,251.331 296,249C296.823,246.669 296.734,246.809 298,246C299.266,245.191 299.891,243.244 299,242C298.109,240.756 299.256,240.587 300,239C300.744,237.413 302.484,236.186 302,235C301.516,233.814 302.363,233.336 303,232C303.637,230.664 304.756,230.228 305,229C305.244,227.772 305.021,226.542 306,226C306.979,225.458 307.357,224.126 307.558,224.105M295.692,215C295.692,215 296.284,215.662 298,215C299.716,214.338 300.227,214.169 301,213C301.773,211.831 303.078,210.226 304,210C304.922,209.774 304.628,209.697 305,208C305.372,206.303 304.642,206.204 307,205C309.358,203.796 310.464,204.204 312,204C313.536,203.796 313.893,204.647 315,203C316.107,201.353 316.029,201.218 317,200C317.971,198.782 317.908,200.375 319,199C320.092,197.625 320.165,197.331 320,196C319.835,194.669 320,192 320,192M272,248C272,248 270.983,245.462 272,244C273.017,242.538 273.21,242.403 273,241C272.79,239.597 272.228,239.267 272,237C271.772,234.733 270.644,234.697 272,232C273.356,229.303 273.4,229.335 274,227C274.6,224.665 276.608,225.747 276,223C275.392,220.253 273.852,220.724 274,218C274.148,215.276 274.495,213.778 275,213C275.505,212.222 276.721,211.208 276,209C275.279,206.792 275.667,205.47 277,205C278.333,204.53 279.631,205.542 280,203C280.369,200.458 281.029,198.406 282,197C282.971,195.594 284.011,197.8 284,195C283.989,192.2 282.88,188.361 284,187C285.12,185.639 283.785,184.886 284,183C284.215,181.114 284,180 284,180M319,230L314,228C314,228 314.559,227.222 312,226C309.441,224.778 309.161,226.919 308,225C306.839,223.081 307.423,221.973 306,221C304.577,220.027 302.061,220.765 301,220C299.939,219.235 300.663,217.479 299,217C297.337,216.521 296.36,217.516 296,216C295.64,214.484 295.301,213.248 294,212C292.699,210.752 293.074,209.434 293,208C292.926,206.566 296.581,205.922 293,205C289.419,204.078 286.011,205.357 285,205C283.989,204.643 283.744,206.113 282,206C280.256,205.887 280.065,205.34 279.059,204.644M357,230C357,230 351.914,227.674 352,226C352.086,224.326 352.968,223.222 351,224C349.032,224.778 349.909,226.43 348,226C346.091,225.57 344.814,227.407 345,224C345.186,220.593 345.791,218.235 343,218C340.209,217.765 338.275,217.14 335,217C331.725,216.86 331.519,218.163 331,220C330.481,221.837 329.365,224.353 328,224C326.635,223.647 323.021,224.733 322,226C320.979,227.267 318.718,228.095 319,230C319.282,231.905 319.134,231.041 320,233C320.866,234.959 320.492,234.969 320,237C319.508,239.031 321.437,241.2 322,243C322.563,244.8 326.537,251.811 328,253C329.463,254.189 327.858,254.87 329,256C330.142,257.13 331.786,254.078 333,256C334.214,257.922 333.185,259.589 335,260C336.815,260.411 337.261,259.327 338,261C338.739,262.673 338.66,264.083 340,264C341.34,263.917 343,264 343,264M238,222C238,222 235.266,220.586 236,219C236.734,217.414 237.135,217.404 237,216C236.865,214.596 237.329,213.37 235,213C232.671,212.63 231.754,212.748 231,214C230.246,215.252 228.538,218.717 227,218C225.462,217.283 220.536,215.074 221,213C221.464,210.926 222.373,209.499 223,209C223.627,208.501 223.948,206.843 225,208C226.052,209.157 227.13,210.909 228,210C228.87,209.091 229.327,208.251 229,207C228.673,205.749 228.21,205.496 227,205C225.79,204.504 224.669,205.363 225,203C225.331,200.637 225.358,201.098 226,199C226.642,196.902 227.196,196.933 228,196C228.804,195.067 228.803,194.21 229,193C229.197,191.79 229,190 229,190M105.658,234C105.658,234 106.888,233.646 108,233C109.112,232.354 108.273,231.737 111,232C113.727,232.263 116.291,234.551 117,233C117.709,231.449 118.943,231.085 120,230C121.057,228.915 123.866,228.262 124,228M136,241C136,241 133.893,238.208 132,237C130.107,235.792 127.422,233.094 127,232C126.578,230.906 124.228,230.696 124,227C123.772,223.304 124.952,222.578 124,220C123.048,217.422 122.391,217.646 121,215C119.609,212.354 119.549,210.18 117,210C114.451,209.82 107.965,206.053 107,204M92,312C92,312 90.878,308.536 89,308C87.122,307.464 86.055,307.884 86,306C85.945,304.116 85.493,304.336 84,304C82.507,303.664 82.579,302.861 82,301C81.421,299.139 82.018,298.852 80,298C77.982,297.148 77.376,297.024 77,296C76.624,294.976 77,293 77,293M105,354C105,354 105.937,349.451 103,349C100.063,348.549 100.833,351.351 99,349C97.167,346.649 96.2,345.053 97,343C97.8,340.947 96.815,338.12 95,337C93.185,335.88 89.349,336.473 90,335C90.651,333.527 92.082,333.912 92,332C91.918,330.088 88.444,329.351 90,328C91.556,326.649 92.634,327.423 93,325C93.366,322.577 93.901,321.586 93,320C92.099,318.414 89,314 89,314M104,264C104,264 104.697,265.653 105,267C105.303,268.347 106.805,268.732 108,269C109.195,269.268 110.348,269.455 111,271C111.652,272.545 112.457,275.666 114,276C115.543,276.334 116.565,277.919 118,276C119.435,274.081 120.469,274.069 122,273C123.531,271.931 123.909,272.937 125,271C126.091,269.063 128.066,269.135 128,267C127.934,264.865 126.325,262.357 128,261C129.675,259.643 130.175,259.737 131,258C131.825,256.263 135.669,255.375 136,255M162,309C162,309 161.551,306.325 160,305C158.449,303.675 158.117,304.373 159,303C159.883,301.627 161.346,298.674 160,298C158.654,297.326 153.442,299.746 154,297C154.558,294.254 156.364,293.433 155,292C153.636,290.567 150.201,290.204 149,291C147.799,291.796 146.037,292.969 144,291C141.963,289.031 141.314,287.788 140,288C138.686,288.212 140.188,285.215 140,284C139.812,282.785 140.031,281.877 139,281C137.969,280.123 137.212,278.076 138,277C138.788,275.924 140.543,274.533 139,274C137.457,273.467 135,273 135,273M139,238C139,238 145.17,239.82 145,242C144.83,244.18 143.429,244.543 145,246C146.571,247.457 147.279,246.447 148,249C148.721,251.553 148.514,253.785 150,254C151.486,254.215 151.292,253.682 154,254C156.708,254.318 155.81,251.737 158,254C160.19,256.263 164,259 164,259M64,328C64,328 64.277,326.46 66,325C67.723,323.54 66.537,322.658 68,321C69.463,319.342 71.212,321.471 73,318C74.788,314.529 72.652,313.929 75,313C77.348,312.071 78.249,313.929 80,313C81.751,312.071 79.074,309.621 82,311C84.926,312.379 85.593,312.7 87,313C88.407,313.3 88.009,314.748 90,313C91.991,311.252 92.425,313.001 94,311C95.575,308.999 96.431,307.465 98,309C99.569,310.535 101.721,313.103 103,311C104.279,308.897 104.751,308.994 106,307C107.249,305.006 106.45,306.783 109,304C111.55,301.217 112.962,299.903 112,298C111.038,296.097 110.866,289.788 113,289C115.134,288.212 115.951,287.631 118,287C120.049,286.369 122.831,285.727 124,284C125.169,282.273 126.729,281.209 126,280C125.271,278.791 124.783,277.202 126,276C127.217,274.798 126.789,274.178 129,275C131.211,275.822 131.82,276.383 133,276C134.18,275.617 134.284,278.581 135,275C135.716,271.419 132.031,269.756 135,269C137.969,268.244 138.188,270.009 139,268C139.812,265.991 139.061,262.562 140,261C140.939,259.438 141.007,259.429 140,258C138.993,256.571 135.001,256.393 135,253C134.999,249.607 132.85,244.018 135,242C137.15,239.982 139.314,239.445 139,237C138.686,234.555 139.826,229.842 139,228C138.174,226.158 136.236,224.293 137,222C137.764,219.707 138.549,217.413 140,216C141.451,214.587 141.989,214.383 143,213C144.011,211.617 142.658,208.575 144,206C145.342,203.425 150,202 150,202M177,220C177,220 180.35,218.158 182,217C183.65,215.842 186.124,215.142 188,215C189.876,214.858 192.651,214.156 193,213C193.349,211.844 193.767,210.484 195,211C196.233,211.516 197.18,213.435 199,213C200.82,212.565 202.789,213.27 204,212C205.211,210.73 205.577,210.287 207,211C208.423,211.713 209.252,214.452 211,214C212.748,213.548 211.91,212.156 214,212C216.09,211.844 216.436,211.042 218,212C219.564,212.958 221,213 221,213M237,214C237,214 238.416,214.287 240,213C241.584,211.713 242.222,210.088 244,209C245.778,207.912 246.224,207.892 248,208C249.776,208.108 250.062,208.12 251,207C251.938,205.88 252.785,205.858 254,206C255.215,206.142 258.197,207.433 259,208C259.803,208.567 260.724,210.843 262,210C263.276,209.157 262.726,209.105 265,209C267.274,208.895 267.318,208.68 269,210C270.682,211.32 271.287,211.697 272,212C272.713,212.303 275,213 275,213" style="fill:none;stroke:white;stroke-width:0.75px;"/>
    <path d="M410.599,318.105C408.177,314.164 406.898,309.626 406.905,305C406.905,291.15 418.15,279.905 432,279.905C445.85,279.905 457.095,291.15 457.095,305C457.095,315.301 450.875,324.16 441.989,328.025C445.005,332.435 446.615,337.657 446.607,343C446.607,357.685 434.685,369.607 420,369.607C405.315,369.607 393.393,357.685 393.393,343C393.393,331.624 400.548,321.906 410.599,318.105Z" style="fill:rgb(243,255,0);fill-opacity:0.5;"/>
    <path d="M380,312C380,312 385.965,308.457 392.309,304.546C397.142,301.568 398.933,298.69 405,300C410.418,301.17 416.142,312.535 421,318C422.295,319.457 428.689,326.338 432.678,329.507C439.034,334.555 443.346,337.824 447,338C456.461,338.455 457.061,339.678 460,341C464.917,343.212 465.683,351.419 470.483,361.619C473.987,369.065 477.785,377.961 481,380C484.504,382.223 493.179,384.078 502.142,384.236C512.67,384.422 524.594,381.648 528,381C539.487,378.816 549.207,383.914 553,386C556.793,388.086 566.167,392.685 573,391C579.833,389.315 597.516,376.991 601,375" style="fill:none;stroke:rgb(0,255,1);stroke-opacity:0.85;stroke-width:7px;"/>
    <circle cx="600.886" cy="375.259" r="7.941" style="fill:rgb(255,0,1);"/>
    <g>
        <g transform="matrix(1,0,0,1,597.549,379.282)">
            <text x="0px" y="0px" style="font-family:'Arial-BoldMT', 'Arial', sans-serif;font-weight:700;font-size:12px;fill:none;">1</text>
        </g>
        <g transform="matrix(1,0,0,1,597.549,379.282)">
            <text x="0px" y="0px" style="font-family:'Arial-BoldMT', 'Arial', sans-serif;font-weight:700;font-size:12px;fill:white;">1</text>
        </g>
    </g>
    <g transform="matrix(1,0,0,1,-196.114,-77.035)">
        <circle cx="600.886" cy="375.259" r="7.941" style="fill:rgb(255,0,1);"/>
        <g transform="matrix(1,0,0,1,597.549,379.282)">
            <text x="0px" y="0px" style="font-family:'Arial-BoldMT', 'Arial', sans-serif;font-weight:700;font-size:12px;fill:white;">2</text>
        </g>
    </g>
    <g transform="matrix(1,0,0,1,-220.485,-63.109)">
        <circle cx="600.886" cy="375.259" r="7.941" style="fill:rgb(255,0,1);"/>
        <g transform="matrix(1,0,0,1,597.549,379.282)">
            <text x="0px" y="0px" style="font-family:'Arial-BoldMT', 'Arial', sans-serif;font-weight:700;font-size:12px;fill:white;">3</text>
        </g>
    </g>
    <g>
        <g transform="matrix(1,0,0,1,55.468,316.825)">
            <text x="0px" y="0px" style="font-family:'Arial-BoldMT', 'Arial', sans-serif;font-weight:700;font-size:12px;fill:white;">1</text>
        </g>
        <g transform="matrix(1,0,0,1,55.468,316.825)">
            <text x="0px" y="0px" style="font-family:'Arial-BoldMT', 'Arial', sans-serif;font-weight:700;font-size:12px;fill:white;">1</text>
        </g>
        <g transform="matrix(1,0,0,1,78.38,347.033)">
            <text x="0px" y="0px" style="font-family:'Arial-BoldMT', 'Arial', sans-serif;font-weight:700;font-size:12px;fill:white;">2</text>
        </g>
        <g transform="matrix(1,0,0,1,78.38,347.033)">
            <text x="0px" y="0px" style="font-family:'Arial-BoldMT', 'Arial', sans-serif;font-weight:700;font-size:12px;fill:white;">2</text>
        </g>
        <g transform="matrix(1,0,0,1,96.3,293.529)">
            <text x="0px" y="0px" style="font-family:'Arial-BoldMT', 'Arial', sans-serif;font-weight:700;font-size:12px;fill:white;">3</text>
        </g>
        <g transform="matrix(1,0,0,1,96.3,293.529)">
            <text x="0px" y="0px" style="font-family:'Arial-BoldMT', 'Arial', sans-serif;font-weight:700;font-size:12px;fill:white;">3</text>
        </g>
        <g transform="matrix(1,0,0,1,118.828,315.569)">
            <text x="0px" y="0px" style="font-family:'Arial-BoldMT', 'Arial', sans-serif;font-weight:700;font-size:12px;fill:white;">4</text>
        </g>
        <g transform="matrix(1,0,0,1,118.828,315.569)">
            <text x="0px" y="0px" style="font-family:'Arial-BoldMT', 'Arial', sans-serif;font-weight:700;font-size:12px;fill:white;">4</text>
        </g>
        <g transform="matrix(1,0,0,1,114.988,255.385)">
            <text x="0px" y="0px" style="font-family:'Arial-BoldMT', 'Arial', sans-serif;font-weight:700;font-size:12px;fill:white;">5</text>
        </g>
        <g transform="matrix(1,0,0,1,114.988,255.385)">
            <text x="0px" y="0px" style="font-family:'Arial-BoldMT', 'Arial', sans-serif;font-weight:700;font-size:12px;fill:white;">5</text>
        </g>
        <g transform="matrix(1,0,0,1,149.164,276.633)">
            <text x="0px" y="0px" style="font-family:'Arial-BoldMT', 'Arial', sans-serif;font-weight:700;font-size:12px;fill:white;">6</text>
        </g>
        <g transform="matrix(1,0,0,1,149.164,276.633)">
            <text x="0px" y="0px" style="font-family:'Arial-BoldMT', 'Arial', sans-serif;font-weight:700;font-size:12px;fill:white;">6</text>
        </g>
        <g transform="matrix(1,0,0,1,96.684,218.009)">
            <text x="0px" y="0px" style="font-family:'Arial-BoldMT', 'Arial', sans-serif;font-weight:700;font-size:12px;fill:white;">7</text>
        </g>
        <g transform="matrix(1,0,0,1,96.684,218.009)">
            <text x="0px" y="0px" style="font-family:'Arial-BoldMT', 'Arial', sans-serif;font-weight:700;font-size:12px;fill:white;">7</text>
        </g>
        <g transform="matrix(1,0,0,1,127.276,216.729)">
            <text x="0px" y="0px" style="font-family:'Arial-BoldMT', 'Arial', sans-serif;font-weight:700;font-size:12px;fill:white;">8</text>
        </g>
        <g transform="matrix(1,0,0,1,127.276,216.729)">
            <text x="0px" y="0px" style="font-family:'Arial-BoldMT', 'Arial', sans-serif;font-weight:700;font-size:12px;fill:white;">8</text>
        </g>
        <g transform="matrix(1,0,0,1,145.276,232.729)">
            <text x="0px" y="0px" style="font-family:'Arial-BoldMT', 'Arial', sans-serif;font-weight:700;font-size:12px;fill:white;">9</text>
        </g>
        <g transform="matrix(1,0,0,1,145.276,232.729)">
            <text x="0px" y="0px" style="font-family:'Arial-BoldMT', 'Arial', sans-serif;font-weight:700;font-size:12px;fill:white;">9</text>
        </g>
        <g transform="matrix(1,0,0,1,220.74,293.785)">
            <text x="0px" y="0px" style="font-family:'Arial-BoldMT', 'Arial', sans-serif;font-weight:700;font-size:12px;fill:white;">10</text>
        </g>
        <g transform="matrix(1,0,0,1,220.74,293.785)">
            <text x="0px" y="0px" style="font-family:'Arial-BoldMT', 'Arial', sans-serif;font-weight:700;font-size:12px;fill:white;">10</text>
        </g>
        <g transform="matrix(1,0,0,1,191.432,-0.76)">
            <g transform="matrix(1,0,0,1,57.468,311.825)">
                <text x="0px" y="0px" style="font-family:'Arial-BoldMT', 'Arial', sans-serif;font-weight:700;font-size:12px;fill:white;">1</text>
            </g>
            <g transform="matrix(1,0,0,1,63.48,311.825)">
                <text x="0px" y="0px" style="font-family:'Arial-BoldMT', 'Arial', sans-serif;font-weight:700;font-size:12px;fill:white;">1</text>
            </g>
        </g>
        <g transform="matrix(1,0,0,1,191.432,-0.76)">
            <g transform="matrix(1,0,0,1,57.468,311.825)">
                <text x="0px" y="0px" style="font-family:'Arial-BoldMT', 'Arial', sans-serif;font-weight:700;font-size:12px;fill:white;">1</text>
            </g>
            <g transform="matrix(1,0,0,1,63.48,311.825)">
                <text x="0px" y="0px" style="font-family:'Arial-BoldMT', 'Arial', sans-serif;font-weight:700;font-size:12px;fill:white;">1</text>
            </g>
        </g>
        <g transform="matrix(1,0,0,1,289.22,299.673)">
            <text x="0px" y="0px" style="font-family:'Arial-BoldMT', 'Arial', sans-serif;font-weight:700;font-size:12px;fill:white;">12</text>
        </g>
        <g transform="matrix(1,0,0,1,289.22,299.673)">
            <text x="0px" y="0px" style="font-family:'Arial-BoldMT', 'Arial', sans-serif;font-weight:700;font-size:12px;fill:white;">12</text>
        </g>
        <g transform="matrix(1,0,0,1,297.924,324.633)">
            <text x="0px" y="0px" style="font-family:'Arial-BoldMT', 'Arial', sans-serif;font-weight:700;font-size:12px;fill:white;">13</text>
        </g>
        <g transform="matrix(1,0,0,1,297.924,324.633)">
            <text x="0px" y="0px" style="font-family:'Arial-BoldMT', 'Arial', sans-serif;font-weight:700;font-size:12px;fill:white;">13</text>
        </g>
        <g transform="matrix(1,0,0,1,331.204,314.137)">
            <text x="0px" y="0px" style="font-family:'Arial-BoldMT', 'Arial', sans-serif;font-weight:700;font-size:12px;fill:white;">14</text>
        </g>
        <g transform="matrix(1,0,0,1,331.204,314.137)">
            <text x="0px" y="0px" style="font-family:'Arial-BoldMT', 'Arial', sans-serif;font-weight:700;font-size:12px;fill:white;">14</text>
        </g>
        <g transform="matrix(1,0,0,1,188.164,205.729)">
            <text x="0px" y="0px" style="font-family:'Arial-BoldMT', 'Arial', sans-serif;font-weight:700;font-size:12px;fill:white;">15</text>
        </g>
        <g transform="matrix(1,0,0,1,188.164,205.729)">
            <text x="0px" y="0px" style="font-family:'Arial-BoldMT', 'Arial', sans-serif;font-weight:700;font-size:12px;fill:white;">15</text>
        </g>
        <g transform="matrix(1,0,0,1,209.028,229.281)">
            <text x="0px" y="0px" style="font-family:'Arial-BoldMT', 'Arial', sans-serif;font-weight:700;font-size:12px;fill:white;">16</text>
        </g>
        <g transform="matrix(1,0,0,1,209.028,229.281)">
            <text x="0px" y="0px" style="font-family:'Arial-BoldMT', 'Arial', sans-serif;font-weight:700;font-size:12px;fill:white;">16</text>
        </g>
        <g transform="matrix(1,0,0,1,256.9,201.505)">
            <text x="0px" y="0px" style="font-family:'Arial-BoldMT', 'Arial', sans-serif;font-weight:700;font-size:12px;fill:white;">17</text>
        </g>
        <g transform="matrix(1,0,0,1,256.9,201.505)">
            <text x="0px" y="0px" style="font-family:'Arial-BoldMT', 'Arial', sans-serif;font-weight:700;font-size:12px;fill:white;">17</text>
        </g>
        <g transform="matrix(1,0,0,1,252.292,227.361)">
            <text x="0px" y="0px" style="font-family:'Arial-BoldMT', 'Arial', sans-serif;font-weight:700;font-size:12px;fill:white;">18</text>
        </g>
        <g transform="matrix(1,0,0,1,252.292,227.361)">
            <text x="0px" y="0px" style="font-family:'Arial-BoldMT', 'Arial', sans-serif;font-weight:700;font-size:12px;fill:white;">18</text>
        </g>
        <g transform="matrix(1,0,0,1,291.204,198.689)">
            <text x="0px" y="0px" style="font-family:'Arial-BoldMT', 'Arial', sans-serif;font-weight:700;font-size:12px;fill:white;">19</text>
        </g>
        <g transform="matrix(1,0,0,1,291.204,198.689)">
            <text x="0px" y="0px" style="font-family:'Arial-BoldMT', 'Arial', sans-serif;font-weight:700;font-size:12px;fill:white;">19</text>
        </g>
        <g transform="matrix(1,0,0,1,282.372,232.993)">
            <text x="0px" y="0px" style="font-family:'Arial-BoldMT', 'Arial', sans-serif;font-weight:700;font-size:12px;fill:white;">20</text>
        </g>
        <g transform="matrix(1,0,0,1,282.372,232.993)">
            <text x="0px" y="0px" style="font-family:'Arial-BoldMT', 'Arial', sans-serif;font-weight:700;font-size:12px;fill:white;">20</text>
        </g>
        <g transform="matrix(1,0,0,1,315.524,215.073)">
            <text x="0px" y="0px" style="font-family:'Arial-BoldMT', 'Arial', sans-serif;font-weight:700;font-size:12px;fill:white;">21</text>
        </g>
        <g transform="matrix(1,0,0,1,315.524,215.073)">
            <text x="0px" y="0px" style="font-family:'Arial-BoldMT', 'Arial', sans-serif;font-weight:700;font-size:12px;fill:white;">21</text>
        </g>
        <g transform="matrix(1,0,0,1,301.316,254.753)">
            <text x="0px" y="0px" style="font-family:'Arial-BoldMT', 'Arial', sans-serif;font-weight:700;font-size:12px;fill:white;">22</text>
        </g>
        <g transform="matrix(1,0,0,1,301.316,254.753)">
            <text x="0px" y="0px" style="font-family:'Arial-BoldMT', 'Arial', sans-serif;font-weight:700;font-size:12px;fill:white;">22</text>
        </g>
        <g transform="matrix(1,0,0,1,320.644,271.649)">
            <text x="0px" y="0px" style="font-family:'Arial-BoldMT', 'Arial', sans-serif;font-weight:700;font-size:12px;fill:white;">23</text>
        </g>
        <g transform="matrix(1,0,0,1,320.644,271.649)">
            <text x="0px" y="0px" style="font-family:'Arial-BoldMT', 'Arial', sans-serif;font-weight:700;font-size:12px;fill:white;">23</text>
        </g>
        <g transform="matrix(1,0,0,1,330.372,241.569)">
            <text x="0px" y="0px" style="font-family:'Arial-BoldMT', 'Arial', sans-serif;font-weight:700;font-size:12px;fill:white;">24</text>
        </g>
        <g transform="matrix(1,0,0,1,330.372,241.569)">
            <text x="0px" y="0px" style="font-family:'Arial-BoldMT', 'Arial', sans-serif;font-weight:700;font-size:12px;fill:white;">24</text>
        </g>
        <g transform="matrix(1,0,0,1,359.812,236.449)">
            <text x="0px" y="0px" style="font-family:'Arial-BoldMT', 'Arial', sans-serif;font-weight:700;font-size:12px;fill:white;">25</text>
        </g>
        <g transform="matrix(1,0,0,1,359.812,236.449)">
            <text x="0px" y="0px" style="font-family:'Arial-BoldMT', 'Arial', sans-serif;font-weight:700;font-size:12px;fill:white;">25</text>
        </g>
        <g transform="matrix(1,0,0,1,358.66,273.697)">
            <text x="0px" y="0px" style="font-family:'Arial-BoldMT', 'Arial', sans-serif;font-weight:700;font-size:12px;fill:white;">26</text>
        </g>
        <g transform="matrix(1,0,0,1,358.66,273.697)">
            <text x="0px" y="0px" style="font-family:'Arial-BoldMT', 'Arial', sans-serif;font-weight:700;font-size:12px;fill:white;">26</text>
        </g>
        <g transform="matrix(1,0,0,1,381.991,247.817)">
            <text x="0px" y="0px" style="font-family:'Arial-BoldMT', 'Arial', sans-serif;font-weight:700;font-size:12px;fill:white;">27</text>
        </g>
        <g transform="matrix(1,0,0,1,381.991,247.817)">
            <text x="0px" y="0px" style="font-family:'Arial-BoldMT', 'Arial', sans-serif;font-weight:700;font-size:12px;fill:white;">27</text>
        </g>
        <g transform="matrix(1,0,0,1,394.612,275.864)">
            <text x="0px" y="0px" style="font-family:'Arial-BoldMT', 'Arial', sans-serif;font-weight:700;font-size:12px;fill:white;">28</text>
        </g>
        <g transform="matrix(1,0,0,1,394.612,275.864)">
            <text x="0px" y="0px" style="font-family:'Arial-BoldMT', 'Arial', sans-serif;font-weight:700;font-size:12px;fill:white;">28</text>
        </g>
        <g transform="matrix(1,0,0,1,374.341,300.215)">
            <text x="0px" y="0px" style="font-family:'Arial-BoldMT', 'Arial', sans-serif;font-weight:700;font-size:12px;fill:white;">29</text>
        </g>
        <g transform="matrix(1,0,0,1,374.341,300.215)">
            <text x="0px" y="0px" style="font-family:'Arial-BoldMT', 'Arial', sans-serif;font-weight:700;font-size:12px;fill:white;">29</text>
        </g>
        <g transform="matrix(1,0,0,1,360.572,381.044)">
            <text x="0px" y="0px" style="font-family:'Arial-BoldMT', 'Arial', sans-serif;font-weight:700;font-size:12px;fill:white;">30</text>
        </g>
        <g transform="matrix(1,0,0,1,360.572,381.044)">
            <text x="0px" y="0px" style="font-family:'Arial-BoldMT', 'Arial', sans-serif;font-weight:700;font-size:12px;fill:white;">30</text>
        </g>
        <g transform="matrix(1,0,0,1,378.676,353.123)">
            <text x="0px" y="0px" style="font-family:'Arial-BoldMT', 'Arial', sans-serif;font-weight:700;font-size:12px;fill:white;">32</text>
        </g>
        <g transform="matrix(1,0,0,1,378.676,353.123)">
            <text x="0px" y="0px" style="font-family:'Arial-BoldMT', 'Arial', sans-serif;font-weight:700;font-size:12px;fill:white;">32</text>
        </g>
        <g transform="matrix(1,0,0,1,395.122,316.406)">
            <text x="0px" y="0px" style="font-family:'Arial-BoldMT', 'Arial', sans-serif;font-weight:700;font-size:12px;fill:white;">32</text>
        </g>
        <g transform="matrix(1,0,0,1,395.122,316.406)">
            <text x="0px" y="0px" style="font-family:'Arial-BoldMT', 'Arial', sans-serif;font-weight:700;font-size:12px;fill:white;">32</text>
        </g>
        <g transform="matrix(1,0,0,1,406.596,367.912)">
            <text x="0px" y="0px" style="font-family:'Arial-BoldMT', 'Arial', sans-serif;font-weight:700;font-size:12px;fill:white;">36</text>
        </g>
        <g transform="matrix(1,0,0,1,406.596,367.912)">
            <text x="0px" y="0px" style="font-family:'Arial-BoldMT', 'Arial', sans-serif;font-weight:700;font-size:12px;fill:white;">36</text>
        </g>
        <g transform="matrix(1,0,0,1,413.481,339.354)">
            <text x="0px" y="0px" style="font-family:'Arial-BoldMT', 'Arial', sans-serif;font-weight:700;font-size:12px;fill:white;">35</text>
        </g>
        <g transform="matrix(1,0,0,1,413.481,339.354)">
            <text x="0px" y="0px" style="font-family:'Arial-BoldMT', 'Arial', sans-serif;font-weight:700;font-size:12px;fill:white;">35</text>
        </g>
        <g transform="matrix(1,0,0,1,426.357,307.609)">
            <text x="0px" y="0px" style="font-family:'Arial-BoldMT', 'Arial', sans-serif;font-weight:700;font-size:12px;fill:white;">34</text>
        </g>
        <g transform="matrix(1,0,0,1,426.357,307.609)">
            <text x="0px" y="0px" style="font-family:'Arial-BoldMT', 'Arial', sans-serif;font-weight:700;font-size:12px;fill:white;">34</text>
        </g>
        <g transform="matrix(1,0,0,1,428.142,276.757)">
            <text x="0px" y="0px" style="font-family:'Arial-BoldMT', 'Arial', sans-serif;font-weight:700;font-size:12px;fill:white;">33</text>
        </g>
        <g transform="matrix(1,0,0,1,428.142,276.757)">
            <text x="0px" y="0px" style="font-family:'Arial-BoldMT', 'Arial', sans-serif;font-weight:700;font-size:12px;fill:white;">33</text>
        </g>
        <g transform="matrix(1,0,0,1,463.457,254.829)">
            <text x="0px" y="0px" style="font-family:'Arial-BoldMT', 'Arial', sans-serif;font-weight:700;font-size:12px;fill:white;">39</text>
        </g>
        <g transform="matrix(1,0,0,1,463.457,254.829)">
            <text x="0px" y="0px" style="font-family:'Arial-BoldMT', 'Arial', sans-serif;font-weight:700;font-size:12px;fill:white;">39</text>
        </g>
        <g transform="matrix(1,0,0,1,488.572,244.884)">
            <text x="0px" y="0px" style="font-family:'Arial-BoldMT', 'Arial', sans-serif;font-weight:700;font-size:12px;fill:white;">40</text>
        </g>
        <g transform="matrix(1,0,0,1,488.572,244.884)">
            <text x="0px" y="0px" style="font-family:'Arial-BoldMT', 'Arial', sans-serif;font-weight:700;font-size:12px;fill:white;">40</text>
        </g>
        <g transform="matrix(1,0,0,1,518.572,204.884)">
            <text x="0px" y="0px" style="font-family:'Arial-BoldMT', 'Arial', sans-serif;font-weight:700;font-size:12px;fill:white;">41</text>
        </g>
        <g transform="matrix(1,0,0,1,518.572,204.884)">
            <text x="0px" y="0px" style="font-family:'Arial-BoldMT', 'Arial', sans-serif;font-weight:700;font-size:12px;fill:white;">41</text>
        </g>
        <g transform="matrix(1,0,0,1,520.572,252.884)">
            <text x="0px" y="0px" style="font-family:'Arial-BoldMT', 'Arial', sans-serif;font-weight:700;font-size:12px;fill:white;">42</text>
        </g>
        <g transform="matrix(1,0,0,1,520.572,252.884)">
            <text x="0px" y="0px" style="font-family:'Arial-BoldMT', 'Arial', sans-serif;font-weight:700;font-size:12px;fill:white;">42</text>
        </g>
        <g transform="matrix(1,0,0,1,503.572,286.884)">
            <text x="0px" y="0px" style="font-family:'Arial-BoldMT', 'Arial', sans-serif;font-weight:700;font-size:12px;fill:white;">43</text>
        </g>
        <g transform="matrix(1,0,0,1,503.572,286.884)">
            <text x="0px" y="0px" style="font-family:'Arial-BoldMT', 'Arial', sans-serif;font-weight:700;font-size:12px;fill:white;">43</text>
        </g>
        <g transform="matrix(1,0,0,1,548.572,294.884)">
            <text x="0px" y="0px" style="font-family:'Arial-BoldMT', 'Arial', sans-serif;font-weight:700;font-size:12px;fill:white;">45</text>
        </g>
        <g transform="matrix(1,0,0,1,548.572,294.884)">
            <text x="0px" y="0px" style="font-family:'Arial-BoldMT', 'Arial', sans-serif;font-weight:700;font-size:12px;fill:white;">45</text>
        </g>
        <g transform="matrix(1,0,0,1,482.572,346.884)">
            <text x="0px" y="0px" style="font-family:'Arial-BoldMT', 'Arial', sans-serif;font-weight:700;font-size:12px;fill:white;">44</text>
        </g>
        <g transform="matrix(1,0,0,1,482.572,346.884)">
            <text x="0px" y="0px" style="font-family:'Arial-BoldMT', 'Arial', sans-serif;font-weight:700;font-size:12px;fill:white;">44</text>
        </g>
        <g transform="matrix(1,0,0,1,488.309,377.482)">
            <text x="0px" y="0px" style="font-family:'Arial-BoldMT', 'Arial', sans-serif;font-weight:700;font-size:12px;fill:white;">46</text>
        </g>
        <g transform="matrix(1,0,0,1,488.309,377.482)">
            <text x="0px" y="0px" style="font-family:'Arial-BoldMT', 'Arial', sans-serif;font-weight:700;font-size:12px;fill:white;">46</text>
        </g>
        <g transform="matrix(1,0,0,1,513.297,374.805)">
            <text x="0px" y="0px" style="font-family:'Arial-BoldMT', 'Arial', sans-serif;font-weight:700;font-size:12px;fill:white;">47</text>
        </g>
        <g transform="matrix(1,0,0,1,513.297,374.805)">
            <text x="0px" y="0px" style="font-family:'Arial-BoldMT', 'Arial', sans-serif;font-weight:700;font-size:12px;fill:white;">47</text>
        </g>
        <g transform="matrix(1,0,0,1,539.688,347.012)">
            <text x="0px" y="0px" style="font-family:'Arial-BoldMT', 'Arial', sans-serif;font-weight:700;font-size:12px;fill:white;">48</text>
        </g>
        <g transform="matrix(1,0,0,1,539.688,347.012)">
            <text x="0px" y="0px" style="font-family:'Arial-BoldMT', 'Arial', sans-serif;font-weight:700;font-size:12px;fill:white;">48</text>
        </g>
        <g transform="matrix(1,0,0,1,533.568,408.462)">
            <text x="0px" y="0px" style="font-family:'Arial-BoldMT', 'Arial', sans-serif;font-weight:700;font-size:12px;fill:white;">49</text>
        </g>
        <g transform="matrix(1,0,0,1,533.568,408.462)">
            <text x="0px" y="0px" style="font-family:'Arial-BoldMT', 'Arial', sans-serif;font-weight:700;font-size:12px;fill:white;">49</text>
        </g>
        <g transform="matrix(1,0,0,1,566.461,381.817)">
            <text x="0px" y="0px" style="font-family:'Arial-BoldMT', 'Arial', sans-serif;font-weight:700;font-size:12px;fill:white;">50</text>
        </g>
        <g transform="matrix(1,0,0,1,566.461,381.817)">
            <text x="0px" y="0px" style="font-family:'Arial-BoldMT', 'Arial', sans-serif;font-weight:700;font-size:12px;fill:white;">50</text>
        </g>
        <g transform="matrix(1,0,0,1,582.652,351.856)">
            <text x="0px" y="0px" style="font-family:'Arial-BoldMT', 'Arial', sans-serif;font-weight:700;font-size:12px;fill:white;">51</text>
        </g>
        <g transform="matrix(1,0,0,1,582.652,351.856)">
            <text x="0px" y="0px" style="font-family:'Arial-BoldMT', 'Arial', sans-serif;font-weight:700;font-size:12px;fill:white;">51</text>
        </g>
        <g transform="matrix(1,0,0,1,618.987,398.135)">
            <text x="0px" y="0px" style="font-family:'Arial-BoldMT', 'Arial', sans-serif;font-weight:700;font-size:12px;fill:white;">52</text>
        </g>
        <g transform="matrix(1,0,0,1,618.987,398.135)">
            <text x="0px" y="0px" style="font-family:'Arial-BoldMT', 'Arial', sans-serif;font-weight:700;font-size:12px;fill:white;">52</text>
        </g>
        <g transform="matrix(1,0,0,1,597.186,425.163)">
            <text x="0px" y="0px" style="font-family:'Arial-BoldMT', 'Arial', sans-serif;font-weight:700;font-size:12px;fill:white;">53</text>
        </g>
        <g transform="matrix(1,0,0,1,597.186,425.163)">
            <text x="0px" y="0px" style="font-family:'Arial-BoldMT', 'Arial', sans-serif;font-weight:700;font-size:12px;fill:white;">53</text>
        </g>
        <g transform="matrix(1,0,0,1,637.728,357.083)">
            <text x="0px" y="0px" style="font-family:'Arial-BoldMT', 'Arial', sans-serif;font-weight:700;font-size:12px;fill:white;">54</text>
        </g>
        <g transform="matrix(1,0,0,1,637.728,357.083)">
            <text x="0px" y="0px" style="font-family:'Arial-BoldMT', 'Arial', sans-serif;font-weight:700;font-size:12px;fill:white;">54</text>
        </g>
        <g transform="matrix(1,0,0,1,635.943,311.06)">
            <text x="0px" y="0px" style="font-family:'Arial-BoldMT', 'Arial', sans-serif;font-weight:700;font-size:12px;fill:white;">55</text>
        </g>
        <g transform="matrix(1,0,0,1,635.943,311.06)">
            <text x="0px" y="0px" style="font-family:'Arial-BoldMT', 'Arial', sans-serif;font-weight:700;font-size:12px;fill:white;">55</text>
        </g>
        <g transform="matrix(1,0,0,1,600.883,307.235)">
            <text x="0px" y="0px" style="font-family:'Arial-BoldMT', 'Arial', sans-serif;font-weight:700;font-size:12px;fill:white;">56</text>
        </g>
        <g transform="matrix(1,0,0,1,600.883,307.235)">
            <text x="0px" y="0px" style="font-family:'Arial-BoldMT', 'Arial', sans-serif;font-weight:700;font-size:12px;fill:white;">56</text>
        </g>
        <g transform="matrix(1,0,0,1,615.034,257.131)">
            <text x="0px" y="0px" style="font-family:'Arial-BoldMT', 'Arial', sans-serif;font-weight:700;font-size:12px;fill:white;">57</text>
        </g>
        <g transform="matrix(1,0,0,1,615.034,257.131)">
            <text x="0px" y="0px" style="font-family:'Arial-BoldMT', 'Arial', sans-serif;font-weight:700;font-size:12px;fill:white;">57</text>
        </g>
        <g transform="matrix(1,0,0,1,632.628,189.817)">
            <text x="0px" y="0px" style="font-family:'Arial-BoldMT', 'Arial', sans-serif;font-weight:700;font-size:12px;fill:white;">58</text>
        </g>
        <g transform="matrix(1,0,0,1,632.628,189.817)">
            <text x="0px" y="0px" style="font-family:'Arial-BoldMT', 'Arial', sans-serif;font-weight:700;font-size:12px;fill:white;">58</text>
        </g>
        <g transform="matrix(1,0,0,1,728.756,185.227)">
            <text x="0px" y="0px" style="font-family:'Arial-BoldMT', 'Arial', sans-serif;font-weight:700;font-size:12px;fill:white;">59</text>
        </g>
        <g transform="matrix(1,0,0,1,728.756,185.227)">
            <text x="0px" y="0px" style="font-family:'Arial-BoldMT', 'Arial', sans-serif;font-weight:700;font-size:12px;fill:white;">59</text>
        </g>
        <g transform="matrix(1,0,0,1,755.018,227.681)">
            <text x="0px" y="0px" style="font-family:'Arial-BoldMT', 'Arial', sans-serif;font-weight:700;font-size:12px;fill:white;">60</text>
        </g>
        <g transform="matrix(1,0,0,1,755.018,227.681)">
            <text x="0px" y="0px" style="font-family:'Arial-BoldMT', 'Arial', sans-serif;font-weight:700;font-size:12px;fill:white;">60</text>
        </g>
        <g transform="matrix(1,0,0,1,463.967,292.693)">
            <text x="0px" y="0px" style="font-family:'Arial-BoldMT', 'Arial', sans-serif;font-weight:700;font-size:12px;fill:white;">38</text>
        </g>
        <g transform="matrix(1,0,0,1,463.967,292.693)">
            <text x="0px" y="0px" style="font-family:'Arial-BoldMT', 'Arial', sans-serif;font-weight:700;font-size:12px;fill:white;">38</text>
        </g>
        <g transform="matrix(1,0,0,1,455.807,331.705)">
            <text x="0px" y="0px" style="font-family:'Arial-BoldMT', 'Arial', sans-serif;font-weight:700;font-size:12px;fill:white;">37</text>
        </g>
        <g transform="matrix(1,0,0,1,455.807,331.705)">
            <text x="0px" y="0px" style="font-family:'Arial-BoldMT', 'Arial', sans-serif;font-weight:700;font-size:12px;fill:white;">37</text>
        </g>
    </g>
</svg>
