<svg clip-rule="evenodd" fill-rule="evenodd" viewBox="0 0 883 472" xmlns="http://www.w3.org/2000/svg"><circle cx="370" cy="97.02496" fill="none" r="33.3048" stroke="#000" stroke-width="2.5008"/><g fill="none" stroke="#000" stroke-width="2.49528"><circle cx="336.934" cy="53.621" r="15.096"/><circle cx="372.069" cy="44.222" r="15.096"/><circle cx="406.057" cy="57.983" r="15.096"/><circle cx="422.589" cy="91.665" r="15.096"/><circle cx="413.993" cy="125.995" r="15.096"/><circle cx="386.327" cy="147.536" r="15.096"/><circle cx="351.667" cy="147.369" r="15.096"/><circle cx="323.318" cy="123.872" r="15.096"/><circle cx="317.817" cy="86.476" r="15.096"/></g><path d="m351.16 91.84s6.002-9.213 7.2-10.08 4.447-5.197 5.28-5.76 4.324-4.416 6.24-4.8 5.186-.724 7.68-.48 5.022.103 6.24.96 2.599 2.275 2.4 3.36-.886 1.651-.96 2.4-.001 5.095-.48 6.24-.507.683-.96 2.88.008 4.234-.96 5.28-3.055 3.908-5.28 4.32-3.758.996-3.36 2.4 6.465 13.69 8.16 17.28c.63 1.334-.035 4.056-.96 4.32-1.157.331-4.571.382-5.76-1.92s-6.549-13.447-6.72-13.92-.391-.472-.96 0c-.397.329-3.347 3.604-4.8 3.84-1.278.208-2.085.306-3.36-.48s-2.867-2.468-3.84-2.88-5.273-4.59-7.2-6.72c-1.097-1.213-2.786-1.56-3.84-1.44-.597.068-1.543-.378-1.44-.96s5.571-.918 6.72-.48 2.651 1.065 4.8 1.44 2.31.336 3.36-.48 4.177-4.596 4.32-5.28c.196-.939.053-4.195-.96-4.32-.888-.109-1.872.941-2.4 1.92-.414.768-1.118 2.465-1.92 3.36-.884.987-1.826 2.227-3.84 1.44s-2.4-1.44-2.4-1.44zm13.169 5.473c-.646.308-1.775 1.439-2.129 2.207-.336.726-.946 2.046 0 2.4s1.355.412 1.92 0c1.91-1.393 1.786-1.684 1.92-1.92.289-.511.584-1.864 0-2.4s-1.024-.614-1.711-.287zm8.911-7.393s-1.78-.112-1.44.96.252 2.352.96 2.4 1.091.787 1.44 0 .709-2.035.48-2.88c-.193-.711-1.079-.492-1.358-.469-.487.04-.082-.011-.082-.011zm-5.76-9.6s2.849-2.722 4.32-3.36 1.44 0 1.44 0 .241 2.443.48 3.36.377 1.13.48 2.4.73 2.11 0 2.4c-.544.216-3.212.443-3.84 0s-1.318-.891-1.44-1.92-.989-.917-1.44-1.44 0-1.44 0-1.44z"/><g font-family="'Arial-BoldMT', 'Arial', sans-serif" font-size="10" font-weight="700" transform="translate(32 -6)"><text fill="none" x="324.649" y="180.741">Kōga</text><text x="324.649" y="180.741">Kōga</text></g><g font-family="'Arial-BoldMT', 'Arial', sans-serif" font-size="10" font-weight="700" transform="translate(201.656 -7.517)"><text fill="none" x="324.649" y="180.741">Iga</text><text x="324.649" y="180.741">Iga</text></g><path d="m546.464 123.856 7.214-3.813 2.404 5.899s9.595-.684 13.107 0c3.358.654 4.548 1.08 5.652 2.529.876 1.15 1.188 3.087 0 3.979s-2.285-.182-6.612-.526c-1.559-.124-6.695.348-9.978 2.333-3.048 1.843-5.054 1.146-9.119 7.313-2.016 3.058-2.306 3.35-3.545 5.044-.766 1.047-3.325 1.268-4.292.097s-.783-2.554 0-4.661c.593-1.596 6.676-9.107 8.532-11.349-.08-1.936-3.364-6.846-3.364-6.846zm-28.66-3.545 8.549 4.621-4.975 5.657s5.101 4.846 6.425 8.171c1.265 3.178 1.246 4.966.624 6.679-.493 1.359-1.458 1.665-2.851 1.148s-2.599-1.821-3.71-3.673c-.805-1.34-3.444-5.253-8.021-7.755-3.125-1.708-3.89-3.725-11.276-3.809-3.662-.042-3.206.126-5.301 0-1.296-.078-1.905-1.252-1.443-2.699.462-1.446 1.446-2.927 3.549-3.719 2.794-1.052 3.456-1.625 14.896 1.651 1.51-1.186 3.631-6.022 3.535-6.273zm-15.181-24.327 1.353 8.047-7.1 1.194s-.837 9.759-2.296 13.616c-1.21 3.2-1.585 2.884-3.309 3.477-1.367.47-2.234-.08-2.685-1.495-.621-1.949-.111-2.864.631-4.893.536-1.468.401-10.152 0-13.692-.402-3.539-.731-5.172-5.308-10.969-2.27-2.874-2.179-1.607-3.397-3.316-.754-1.056-.158-3.075 1.257-3.625s3.298.172 5.052 1.577c1.329 1.065 6.49 4.616 8.703 11.272 2.356-.408 7.101-1.194 7.101-1.194zm63.284 7.378 1.514-9.834 7.075 1.816s3.863-6.214 6.587-8.534c2.604-2.218 4.405-2.638 6.228-2.598 1.445.032 3.005 1.807 2.962 3.292s-.916 2.412-2.314 4.058c-1.012 1.192-5.488 5.391-6.238 9.931-.58 3.514-.747 3.712 1.282 10.814.742 2.597.619 4.704.287 6.876-.196 1.283-1.081 2.751-2.599 2.777a4.702 4.702 0 0 1 -4.36-2.777c-.474-1.021-1.368-6.07-2.743-10.118-.912-2.684-2.574-4.66-2.525-5.703-2.351-.432-5.155 0-5.155 0zm-54.109-37.746-7.532 10.827c-.96-1.929-2.025-3.846-4.158-5.651-.46.003-2.606 1.938-4.215 3.127-2.189 1.618-4.126 2.673-6.336 3.18-3.335.763-3.691.242-5.277-.656-1.258-.712-1.88-2.195-1.139-3.482.741-1.288 2.141-2.159 4.245-2.648 2.242-.522 6.226-2.573 8.507-5.309 2.533-3.038 6.113-6.88 6.391-11.053.243-3.654-.62-3.758 0-6.343.302-1.262 2.558-1.994 3.908-1.298s2.054 1.994 3.005 4.032c1.803 3.863-1.412 10.687-3.005 13.147 1.866 1.495 5.606 2.128 5.606 2.128zm51.238 7.6-4.984-6.941 5.701-4.397s-3.696-4.347-3.316-10.618c.124-2.043.876-4.83 1.762-5.881.768-.912 2.651-1.206 3.553-.426 2.023 1.749.785 4.533 1.212 6.787.575 3.043 1.776 4.899 2.534 6.457.514 1.056 1.27 1.502 2.016 2.41 2.95 3.592 7.712 3.462 10.268 3.915 1.298.23 2.177 1.809 2.708 2.821.531 1.013.469 2.928-.48 3.733-1.011.857-3.533 1.226-5.588.931-2.626-.376-6.737-1.453-9.204-3.671-3.262 1.617-6.181 4.878-6.181 4.878zm-26.356-14.496h-8.16s.123-6.705 0-7.2c-.197-.793-7.295-2.554-10.08-4.8-2.663-2.148-2.581-2.042-2.88-3.84-.237-1.426.453-2.166 1.92-2.4s2.922-.108 4.8.96c1.359.773 7.004 2.209 10.56 2.4s4.564 1.153 11.04-2.4c3.211-1.762 1.473-1.961 3.36-2.88 1.166-.568 3.532.433 3.84 1.92s-.243 3.303-1.92 4.8c-1.27 1.134-7.056 5.713-12.48 6.24-.105 1.874 0 7.185 0 7.2z"/><g fill="none" stroke="#000"><circle cx="534.65749" cy="92.283645" r="64.26784" stroke-width="10.00545"/><circle cx="533.796" cy="92.316" r="33.580575" stroke-width="6.00075"/><path d="m540.04 114.4 9.6-38.88c1.447-.191 2.604.212 3.36 1.44l-9.12 38.4s-1.902.514-3.84-.96zm-23.52-6.72c.983.696 1.935.413 2.88.48l8.16-38.88-3.36-.48z" stroke-width=".701"/></g><path d="m551.56 82.72s7.328-2.403 8.16-1.92-.084 5.052-.48 5.76-4.32 20.64-4.32 20.64l-9.6 2.4zm-2.4 14.88c.838-.638 5.746-1.665 6.24-.96s.032 3.622-.96 4.32-6.07 2.219-6.24 1.44-.263-3.869.96-4.8zm2.4-9.6c.8-.72 2.508-1.343 3.84-1.44 1.411-.103 2.417-.353 2.4.96-.011.831.156 1.967-1.44 2.4s-5.561 1.487-5.76.96.354-2.334.96-2.88zm-3.36-6.72s-.695.794-1.44 0-6.06-5.244-6.72-5.28-1.285-.528-1.44.48-6.156 24.313-5.76 25.44 8.06 7.454 8.16 8.64c.69-2.992 7.2-29.28 7.2-29.28zm-11.52 10.56c-.953.053-2.175 4.148-1.92 4.8.627 1.602 5.597 6.629 6.72 6.72 1.032.084 2.697-5.051 1.92-6.24s-4.973-5.376-6.72-5.28zm1.92-8.64c.88 1.28 5.703 5.297 6.24 5.28.979-.032 1.467-1.217.96-2.4-.297-.692-5.668-5.328-6.24-5.28-1.44.121-1.448 1.69-.96 2.4zm-11.041-13.896.001-.024-.001.024c.052.205.512 1.456.481 1.896-.035.496 7.997 10.22 7.68 11.04s-7.498 28.081-8.16 28.32-5.335-6.678-5.76-7.2-1.44 0-1.44 0 7.068-33.029 7.199-34.056zm-4.799 28.296c-.236-1.926 1.008-6.693 1.44-6.72 1.227-.076 5.635 6.652 5.76 7.2.331 1.455-.765 6.846-1.44 6.72-1.1-.205-5.464-4.789-5.76-7.2zm2.88-14.88c.64 1.68 4.745 7.09 5.28 7.2 1.573.325 2.409-1.362 1.92-2.4s-4.387-7.24-5.76-7.68c-.853-.273-1.822 1.877-1.44 2.88zm-8.594 22.807c.085-.513.2-1.73-.526-2.167-.93-.559-8.436 3.541-8.64 2.4s4.99-32.217 5.76-33.12 10.028-2.743 10.56-2.88c-.802 3.373-6.582 32.846-7.154 35.767l-.046.233zm-7.246-8.887c1.742-1.603 7.363-3.44 8.16-3.36.898-.041.023 3.764-.48 4.32-1.36 1.2-6.42 3.08-7.68 2.88-1.27-.159-.134-3.094 0-3.84zm2.88-14.4c1.26-1.381 6.8-3.84 8.16-3.84 1.139.02.195 3.194 0 3.84-1.35 1.212-6.8 3.36-8.16 3.36-1.12 0-.84-2.619 0-3.36z"/><g fill="none" stroke="#000" stroke-width="2"><path d="m851 78c-.757 1.888-7.99 7.865-10 10s-1.43 11.865-3 13-4.27 2.705-3 4 .33 3.985 0 6-3.03 4.945-2 7 .25 5.145 0 6 4.708 5.398 4 8-5.884 3.566-5 6 6.266 5.932 6 9 .167 11.56-1 12-2.571 3.038-2 4 1.395 1.434 0 3-3.394 2.732-4 5-1.199 9.115-3 11-5.316 5.923-5 8 1.06 4.746 0 6-4.876 3.602-5 6-2.405 4.949-5 6 .345 6.164-7 8c-2.607.652-2.055-2.027-8 2s-2.61 7.299-13 9c-2.448.401-13.693 19.514-16 21s-2.678 7.043-4 8-4.879 5.535-7 4-6.146-2.955-8-1-7.102 2.144-9 3-4.073 5.967-6 6-2.075-1.378-4-1-11.46-.696-14 8 2.115 7.241 1 10-1.116 7.607-2 10-3.807 9.842-5 11-4.563.45-3 6c.759 2.695-1.647 6.982-3 9s-3.829 4.839-4 7-2.227 9.975-5 10-17.957.368-18 0-3.825 7.219-8 9c-1.546.659.007 1.933 1 3s1.449 3.263 0 4-5.784 3.954-6 5-5.558 8.403-6 10-.478 3.881-2 5-6.58 3.476-7 6 1.076 3.051 0 4-1.645 2.267-1 4 .993 3.514 0 4-2.352 1.189-2 3 1.651 6.62 3 9 2.651 3.819 2 5-.857 1.936 0 3 .554-.44 1 1 1.651 3.414 0 4-6.65-.03-9-1-5.49-2.113-7-2-3.181.642-5 1-4.315-1.21-5 0-2.886 2.706-3 4 .673 2.609-1 3-4.51.505-5 2-.336 6.088-1 7-3.702 4.81-6 5-7.607.607-9 0-4.051-2.274-7-1-6.914 1.984-9 1-8.413-5.904-9-7c-.552-1.031-.874-3.069 0-4s-2.861-1.839-2-3 2.448-2.287 4-2 1.757.139 3-1 4.491-4.759 5-5c1.234-.585 2.088-1.953 4-2 2.128-.053 2.797-.773 4-1s3.986-1.578 4-3 1.092-2.117 2-2l2 1c.711-.044 2.772-1.23 3-2s.962-1.804 2-2 1.83 1.077 2 0-.59-7.121 0-8 1.242-5.991 1-7-1.773-5.678-3-5-.969 1.393-2 2-4.969 1.199-6 1-2.687.944-3 2-1.258 5.051-3 5-2.97.743-4 1-1.594.958-2 2-.286 1.616-1 2-1.373-.029-2 1-2.098 5.858-2 7-.454 1.113-1 2 .19 2.529-1 3-3.488 1.966-4 1-2.152-4.328-2-5c.28-1.234-.305-2.864 0-4 .347-1.294 1.539-1.519 2-3 .419-1.348 1.539-3.096 1-4s-1.938-3.62-3-3-7.039 2.676-9 2-5.106-2.385-6-2-1.583 2.34-3 2-3.228-.613-4 1-.872 6.012 0 7 2.356 1.791 2 3-1.161 3.335-2 4-1.718.65-2 2-.007 4-1 4-2.557 1.55-3 2-.806.543-2 1-5.021.235-7 1-1.618 3.41-2 4-1.381 2.264-3 3c-1.26.573-2.841 1.671-6 0s-3.733-1.288-4-2 .871-2.336 0-3-1.129-.92-1-2 .897-3.732 1-4 1.663-1.471 1-3-.646-2.558 0-3 3.173-3.095 3-4 .327-1.451 1-2 .522-3.223 1-4 2.314-1.734 2-3 .267-2.553 1-3 2.335-1.673 4-2 2.892.105 3-1 .865-1.741 0-3-3.129-1.969-5-2a9.478 9.478 0 0 1 -4-1c-.589-.306-4.009.46-5 1s-2.68 3.346-4 3-1.492-1.318-3-1-3.271 2.817-4 4-2.573 2.481-4 2-3.305-.626-5 0-5.306 2.676-6 4-2.004 3.133-4 3-5.139-1.707-6-3-7.71-8.251-9-9-3.12-.466-4-2-.502-5.064-2-6-10.04-7.648-13-8-4.289-1.165-5-2-5.309-1.152-4-2 3.221-3.085 5-2 3.289 1.452 5 1 3.92-2.313 3-4-.752-3.327-3-4-4.765-.71-5-2-.947-1.602-2-2-2.128 1.626-3 1-1.732-1.549-1-3 1.342-2.891 3-4 4.342-5.087 3-6-3.772-.529-4 0-1.779 1.94-3 1-2.028-1.966-3-1-.914 2.216-2 3-2.498.008-3 1 .012 1.753-1 3-4.646-.656-6 1-4.184 4.217-5 5-4.499 3.633-4 6 2.548 4.419 3 7 2.038 1.876 2 3 .051 1.923-1 3 1.095 4.212 1 5c-.105.875-2.17 2.44-3 3s-1.425-1.493-2-3-1.701-2.09-3-2-2.084.023-3-1-4.822-.621-5 0-3.95 2.084-5 1-1.964-1.017-3-1-5.226 1.191-6 0-1.132-.809-3-1-5.535-.882-6 0-5.932 5.245-6 6-1.603 2.595-3 3-2.946-.016-4 1-.396 3.092-2 4-5.53 2.911-6 3-10.525 4.576-16 10c0 0-2.035 1.495-3-3s-8.734-11.976-10-13c-1.4-.521-3.56-.66-3-2s2.635-4.822 2-6c-1.843-1.01-4.11-1.755-4-4s2.689-2.87 4-4c1.814-2.305 4.655-4.401 3-8s-3.123-5.448-4-6-1.412.129-2-1c1.795-2.169 2.588-3.469 1-5s-2.278-.522-2-2 7.387-10.624 9-11 2.653.597 3.492-.443c.839-1.041 1.225-1.067 2.508-1.557s4.925-3.504 5-5-1.424-5.793-2-7-.528-3.895 1-5 2.95-4.448 5-4 2.105 3.385 4 3 7.464-1.098 8-2 3.996-3.801 3-7-1.789-5.795-3-6-4.148-.397-6-1-2.33-.81-3-2-1.975-2.476-3-4-.555-.841-1-3-1.334-7.076-4-10-3.376-2.14-4-4-1.107-2.183-2.508-3-1.668.565-3.492-1-2.024-5.429-5-5-5.067 2.608-5 4-.584 2.021 1 3c.186 3.006-2.915 5.246-5 5s-4.366-2.006-7-2-4.639-.72-5-2-4.606-2.991-5 1 1.124 2.021 1 4c-.066 1.052.307 4.54-3 3-3.217-1.73-4.406-.243-5-2s.649-2.146-2-3-3.883.602-4-1 1.515-5.757 0-7c-2.353-1.383-9.064-4.843-12-5-2.098-3.723-.295-3.846-2-7s-4.073-5.168-6-5-5.991-1.555-7-3-.168-5.871-3-6-6.065.715-7-1-.801-3.376-3-3-1.929 1.904-5 1-5.756-2.762-7-4-2.938-.665-3-2 1.67-3.422 0-5-.932-3.319-2-5-6.221-7.286-7-7c-2.037 2.103-15.143 15.694-16 19s-.502 3.043-2 3c-.671-.019-2.749 1.37-3.87 3s-1.286 3.499-2.13 4c-3.482-1.451-13.123-3.966-14-9s-1.15-3.261 0-6 4.36-1.836 3-4-11.4-9.474-14-9-3.641.924-7 0-5.817-3.666-7-6-2.441-2.058-3-3-.602-5.746-1-6-.246-3.229-2-3-2.541-1.481-3-2c-.951-1.075-.63-3.28 0-5s3.987-4.326 4-6 4.41-5.158 6-7-1.174-4.11 2-4 8.995 4.722 11 6 2.52 4.524 6 5 6.478 1.47 8 0 3.051-4.38 5-4-.202 2.596 2 2 3.607-2.127 6.13-3 2.254-2.561 5.87-1 8.294 4.91 10 6 2.97 4.759 5 4 2.856-3.759 7-4 3.146-.994 6-2 3.562-1.41 5-3 2.779-.615 6-1 4.021-.796 7-1 5.238 3.644 8 3 3.046-5.062 7-7 3.24-4.369 8-3 9.048 2.276 11 3 3.958 3.385 7 4 5.477-.097 6 2-1.438 3.036 2 4 4.52.681 7 2 4.454 4.489 7 7 .798 3.748 5 4 1.6-.914 5 1 3.89 5.321 6 5 5.438-1.263 7 1 2.493 3.334 3 5-3.013 3.671 1 4 5.741-.841 8 0 3.235.599 5 2 4.248 4.401 7 5 4.742.022 6 2-.426 2.076 4 3 10.461.974 12 1 2.515.444 3 3 .792 8.023-1 10-4.106 3.879-3 6 2.648 2.596 5 2 3.6-1.41 4-3-.141-2.922 1-2 .402 4.982 2 5 2.872-.633 5 0 3.981 2.35 5 4 .578 3.223 3 3 1.379-1.258 4 1 2.518 1.844 6 2 9.814-.934 11-3 4.098-2.145 3-4-1.824-.766-1-3 1.182-2.434 3-3 3.261-.417 3-3 .274-5.628 4-6 4.997-1.122 6-3 4.088-3.303 7-3 3.299-1.852 5-4 1.902-3.442 6-3 5.144.786 8 0 7.205-.449 8-2 4.194-5.998 7-7 4.483-.233 6-2 3.507-7.993 2-10-4.131-6.361-2-7 5.056-2.446 6-4 4.25-7.223 7-7 3.618.855 6 1 6.245 2.018 8 4 1.787 4.94 3 3 3.312-9.458 6-10 7.584-2.892 10-1 2.765 3.042 3 6-.549 6.175-2 6-1.886-1.156-3 0-1.869 4.905-4 6-1.158 3.471-4 3-1.731-1.378-5-2-5.557-.143-6 1-1.154 4.502-3 4-.365-1.908-3-1-5.672 2.279-4 4 1.72 1.562 4 2 3.618.388 3 2-4.365 3.063-5 5-.341 4.431-1 6-2.522.438-2 3-.72 3.492 2 4 4.829 5.498 7 5 5.173-1.713 7-3 2.541-1.785 5 0 3.861 4.938 7 5 4.819-.007 7 1 2.91 1.607 7 1 3.766-2.574 7-2 1.954 3.071 5 3 3.834.836 6-1 1.328-3.55 4-3 3.853 1.71 7 2 5.118 1.041 7 0 3.354-.297 4-2 1.571-5.177 5-6 4.987-1.135 6-4 2.741-4.166 5-5-1.891-1.991 3-3 5.381.654 10 1 6.363.111 8-1 3.141.551 5 1 3.533 1.804 5 0 2.286 1.394 5 0 5.859.514 7-3 5.173-6.191 5-9 2.493-8.228 5-9 2.776.97 3-2 .042-4.374 3-7 3.765-2.254 5-5-.042-1.977 5-4 6.808-2.038 7-5 3.869-2.737 5-5-2.203-4.207 1-6 3.424.66 7-2 8.184-10.943 11-11 3.6 3.436 5 0 2.04-4.775 3-6 1.299-.577 2-3 .125-1.324 2-3 1.818-2.794 2-5 1.414-3.794 3-3 4.728.169 5-3-2.634-2.681-2-4 4.499-2.687 4-4-.122-2.585-2-2-5.411 2.385-6 0 .39-5.471 2-7 5.12-5.61 7-7 4.591-.514 6-3 4.447-3.623 6-5c.12-3.322-2.222-2.479-1-5s2.525-.769 3-4 .248-10.529 2-12 4.207-3.614 6-5 2.111-.566 4-2 1.039-1.849 3-2 4.611 2.212 6 4 1.901 5.29 4 4 2.467-.975 3-4 1.167-2.415 3-4 1.04-5.452 2-7 3.149-3.025 4-5-1.001-4.236 1-5 9.295 1.862 10 7-1.326 4.615-2 8-.869 5.495-2 7-2.869 4.658-2 6 .674 3.737 2 3-1.013-2.601 2-3 3.97-2.058 6 0 4.338 6.774 6 8 3.375 6.322 6 7 3.019.449 4 0 1.791-2.943 2-4-3.288-.95-2-3 3.333-2.318 4-5 2.152-2.71 1-5-1.625-4.071-4-4-4.963-1.873-5-3 .856-3.698 0-4-.065-.319 0-2 2.29-1.657 0-3-1.089-1.537 0-4 .76-4.007 2-6-.462-2.983 3-3 5.363-.748 6 1-1.347 3.138 2 7 3.834 4.814 4 7-1.033 4.434 1 5 3.304.206 4 1 1.611 1.826 1 3-1.178 2.637 0 2c2.561-1.384 3.165-.41 3 0z"/><path d="m620 186s3.789-4.681 4-6 1.334-2.65 3-3 3.32-1.684 4-2 .175-.208 2 0 1.916-.736 4-2 6.873-4.018 9-5 3.287-1.97 5-2 1.142-1.577 3-1 1.717 1.72 3 2 2.259.182 2 2-.007 2.316-2 4-5.517 5.698-5 7 .597 1.487 0 3-.286 1.342 1 3 3.731 2.904 3 5-3.303 3.152-3 4 1.235 1.317-1 2-3.737 1.81-6 2-2.595 1.255-6 2-2.566.665-6 1-9.228-.207-10-2-1.39-2.504 0-3 4.841-2.131 4-4-2.31-4.065-4-3-3.69 1.687-4 0-1.59-2.513 0-4zm-294 118s2.918-1.102 5-3 2.714-3.573 6-4 8.2-.653 9-1 4.379-.733 6-1 4.317-.883 5 0 .85 2.052 0 3-1.457 1.22-1 3 1.996 3.928 0 5-6.64 3.333-7 5-1.172 2.655 0 4 2.904 2.363 2 4-4.436 5.297-7 5-11.71.053-13-2-.334-2.338-2-3-2.258-.893-2-3 1.819-3.448 1-5-.575-2.065-2-2-2.729-1.696-2-3 2-2 2-2zm-114.926-24.518c1.093-.159 2.809.583 5.926 1.518s2.591 1.978 5 0 7.628-7.118 10-7 1.489.488 4-1 7.603-7.078 10-8 4.315-1.385 6-1 3.242 1.868 3 4-.838 2.35-1 5 .399 4.062 1 6-1.207 2.843 1 4 3.432 1.54 6 2 5.301.091 7 2 2.4 3.715 5 4 2.265 1.723 5 2 2.499 1.248 3-1-1.957-9.935 0-10 1.835.142 5 0 1.846-.402 4-1 4.872 4 7 4 3.121-.376 5 1 4.081 6.033 8 7 5.176.588 7 3 3.716 9.395 3 11-2.517 3.804-2 6-.357 7.451 1 9 .95 1.845 1 3-4.685 4.017-5 5-1.915.564-1 2 2.472 2.495 2 3-3.704-1.118-5 0-2.803 1.955-5 1-4.745-1.735-6-1-3.38 3.349-5 3-1.161-.877-3 0-3.325 2.908-4 4-2.099-.004-2 2 .353 3.543-1 4-2.578.784-3 2-.045 3.098-1 3-2.899-1.427-3 1 .163 5.036-2 4-5.461-2.212-5-4 .926-3.384 1-5-1.002-.705-1-3-.921-2.026 0-4 .911-2.968-1-5-3.874-6.925-5-9-3.341-3.794-3-6 1.177-3.188-2-4-3.145 1.195-5 0-1.776-2.422-4-2-1.561 2.275-4 2-5.27-.484-6 1 .332 6.232-2 7-5.008-.301-8 1-2.8 1.933-6 2-4.431.017-6 1-1.596 1.415-3 3-3.53 2.583-4 4-5.1 7.372-7 7-2.881-1.881-4-4-2.958-2.355-2-4 .743-1.443 2-3 1.126-2.075 1-4-2.433-5.17-4-6-4.531-1.024-6-2-3.535-2.586-3-5 .713-4.138 3-5 2.334-.609 3-2-.812-1.543 1-3 6.057-2.175 7-4 2.604-2.35 3-5 2.218-6.146 1-8-1.779-5.165-1-6 3.069-3.371 4.074-3.518zm-49.074-77.482c1.052.314 1.459 3.519 1 3-1.507 1.578-2.836 3.06-3 5s.75 4.076-1 5-1.691-.21-2 2-.739 4.225 0 5 1.358 2.149 0 3-1.83.073-1 2 1.267 5.534 4 8c3.961 3.574 1.48 6.022 3 7 7.742.768 12.112 1.437 15 0 1.969-.98 2.773-.446 3 1s1 7 1 7 .66 5.041-1 6-4.635 4.078-5 5 .21 3.47-2 3-4.714-.244-5-2-2.219-3.126-3-3-1.402.014-2 0 .125 10.173 2 12 13.08 5.784 13 8c-1.478 2.425-6.188 4.906-6 8s-.775 4.25 1 5 5.219.594 5 2-2.957.566-4 2-3.21 3.603-3 5 1.468 7.543 0 8-6.116-.667-9 0-6.335 2.467-8 3-4.618 3.09-8 3-6.327-1.728-8 0-9.449 7.787-10 10-1.379 3.775-1 6-.002 4.188-2 5 .681 3.924-2 4-4.915-.942-6 1-6.553 4.998-7 7-.994 3.733-1 5 1.726 3.797 1 4-4.87 1.615-5 0-.122-2.707-1-3-2.621.001-5 3-4.615 3.059-5 6-.19 5.284-2 6-1.114 4.069-3 4-3.877-1.038-4-3-1.725-7.902-4-10-2.579-1.999-4-1-5.127.469-6 0-1.449-1.348-2 0-1.267 2.597 0 4 3.432 1.591 2 3-3.002 4.327-4 5-1.969 4.671-4 4-5.119-4.156-7-5-5.295.731-6-1-2.021-2.634 0-4 13.003-8.078 13-10-.835-5.185 0-6 2.396.101 2-2-1.884-3.522-1-4 4.615-3.441 6-5 1.174-.876 1-3-1.072-4.058-3-4-1.696-.241-3-1-1.62-2.961-3-2-1.641 3.656-2 5-2.678 4.043-4 5-2.161.778-3 3-.769.912 0 3 1.93 2.025 1 3-2.134.788-3 2-.897 2.733-2 4-2.074 6.636-4 5-10.217-10.565-11-14-1.652-4.301-3-6-1.937-8.654 0-10 13.55 2.158 14 1 2.711-4.986 2-8-4.912-8.108-4-10 3.425-3.312 5-4 1.796 1.092 2-2-.119-3.44 2-4 4.778-2.686 6-4 1.493-1.568 3-2 .788-1.933 3-3 2.572-1.1 4 0 3.582 2.691 6 2 4.758-2.529 6-5 1.473-2.173 3-4-.366-8.064 1-9 2.719 1.033 4-1 2.327-3.38 1-4-3.764.325-3-2 1.783-2.976 4-3 3.449.163 5 0 6.088.051 7-1 2.039-2.196 2-4 .668-14.999 0-17-.31-2.197 0-5 1.787-9.62 0-11-4.019-4.663-5-4-4.013 3.213-4 4-1.846 1.928-2 3-1.007 2.244-1 4-.19 2.706-1 3-1.023.673-2 3-.98 3.801 0 6-1.065 6.278-2 7-3.36 2.886-4 1-.968-4.382 0-6 2.36-1.795 1-3-5.273-4.671-8-5-1.568-.3-4 0-8.927 2.287-9 0-.109-10.808-1-12-1.948-2.544-1-4 6.691-4.994 7-7 .195-4.177 2-4 3.05.258 4 2 .378 2.833 0 4-1.23 6.304 0 8 4.339 7.019 6 6 3.613-2.899 4-5 2.746-1.635 3-4 2.473-5.204 0-7-3.473-1.45-5-4c-.409-3.598-1.479-8.922 0-10s.731-1.077 1-3 .236-3.701 2-4 2.251-1.798 4 0 4.449 5.965 6 5 2.169.181 2-2-1.229-3.555 0-5 1.695-2.764 3-2 3.787.901 3 3-2.305.826-2 3-1.66 3.659 1 4 2.754 2.358 4 1-.21-2.712 3-2 2.946 2.057 5 1 4.508-6.497 8-5 2.733 4.196 5 4 3.007-.126 4-1 5.388-.357 7-1 2.5-1.442 3-3 3.628-1.937 5 0 1.343 3.728 3 5 1.476 2.841 3 3 3.863.847 5-1 2.948-2.314 4-2z"/></g><path d="m759 101c1.162.445 3.486 1.334 5.282 1.171 1.833-.167 4.265-3.142 5.718-2.171s-1.436 6.147 3 8c3.654-1.786 1.825-3.931 6.594-3.256 3.033.428 1.309 1.517 4.406 1.256 3.93-.331 4.809-2.359 7-1.256 2.191 1.102 11.316 14.178 10 17.256s-2.969 3.654-3 6 1.746 3.857 0 5-3.314 1.997-4 5-.291 3.935-3 5-4.189-.945-4 3 .221 6.87-2 7-4.548-.298-5.406 5c-.857 5.298 1.464 4.66 1.406 7s.309 3.128-1.406 5 .858 1.718 0 4c-.857 2.282-1.676 2.533-3.594 4s-2.489 2.613-3 4-.957 1.878-3 2-.159 8.568-3 9-3.034-1.535-6 0-3.767 2.463-6 5-5.152 4.278-7 5-1.54 3.928-2 6-2.967 2.783-3 5 .605 2.598-1 4-1.415 1.576-2 4 .545 2.881-1 4-3.27.226-4 3 .16 5.959-2 7-11.835 6.671-13 6-1 0-1 0-1.18-2.431-3-1-3.77 5.504-5 8-4.523 5.869-6 7-3.133 1.847-5 4-1.478 4.499-4 4-5.313-2.846-6-4-1.923-3.906-4-4 2.077-2.761 0-4-4.288-.844-6 0-2.001.381-4 0-2.693-.599-4 0-2.366 1.851-3 0-2.428-2.759 0-5 4.224-3.104 4-5-.428-2.591-1-5-2.083-3.956 1-6 4.547-1.589 7-2 7.422.536 8-3-3.721-4.054-2-6 3.627-.787 2-4-2.128-2.744-2-5 .282-4.967-2-6-4.573-1.864-6-2m0 135s-2.816-9.647-5-12-3.488-3.89-4-6-1.448-1.93 0-3 1.124-1.255 0-3-5.854-4.008-6-6 1.452-4.78 2-7 1.044-3.778 0-6 1.779-3.653 0-6-1.811-3.978-4-5-1.891 1.104-4-1-.216-2.711-3-4-3.909-.548-5 0-.661 2.349-4 2-4.129-1.488-6 0-1.719 1.777-4 2-2.412.592-4 2-1.839 3.002-3 0-1.164-3.976-3-6-5.144-2.546-3-4 4.221-2.258 6-4 5.564-6.378 9-7h6c3.439-.622 2.191-.928 6-2s2.679 1.807 6 0 8.22-8.895 13.517-10.814m-20.517 141.814s-1.647-1.421-3-4-3.015-1.853-5-1-6.335 1.419-8-2-.415-3.493-2-8-3.135-5.093-3-8 1.449-2.277-1-4-5.503-.181-5-3 .937-4.269 2-7 3.529-2.741 3-6-2.287-6.597 0-8 5.393-.421 8-2 4.145-3.733 6-4 1.329-1.381 3-3 3.209-1.869 5-2 .753-2.957 3-5 3.993-.757 6-3 3.145-3.821 2-7 .201-2.981 1-5-1.951-2.061 0-3 3 0 3 0m-34.976 33.284s-4.375-1.417-6.024-.284-2.255.403-4 0-3.055-1.773-4 0-1.391 3.251-2 2-2.655-2.013-4-4-1.663-2.477-4-3-3.407-.661-3-2-.167-3.589 3-4 3.329.283 6 0 3.361.123 5-2 6.217-3.109 7-3 2.705.835 2-1-2.783-2.197-2-4 5.377-4.645 5-7-1.287-2.397 0-5 2.249-1.173 1-4-5.391-3.285-3-6 3.305-2.933 4-5 .925-3.635-.172-6.486m-51.828-40.514s2.473 3.595 0 5-6.295 5.939-4 7 5.433 1.707 7 1 4.545-.813 6-3 1.937-2.837 4-2 3.761 1.867 4 5-.159 9.475 1 12 1.465 4.531 4 5 2.265-.053 4 2 1.321 3.483 3 2 1.889-.693 3 0 1.177 2.379 3 0 2.337-4.469 4-4 5.428.029 5.428.029m6.572 138.971s1.505-4.493 0-7-.271-5.781-3-6-2.711.251-4 2-1.383 2.763-3 2-2.415-1.317-4-2-3.343 1.323-4 0m-4-19s-.399-5.181 0-7 .705-.085 1-3-3.063-1.629-1-4 1.761.595 3-3 2.937-1.237 1-6-3.679-2.421-3-5 3.321-2.477 2-4-2.263-1.661 0-3 4.073-.437 4-3 0-4 0-4m-13 43s.945-3.845-1-6-2.087-3.541-4-4-1.735 1.531-4-1-9.239-7.325-11-8-3.471.259-3-2 .393-4.413-2-5-5.047-3.013-5-5-1.199-5.309 0-8 2.385-1.597 0-4-3.647-2.653-5-4-4.263-1.533-3-4 3.585-1.437 3-4-1.591-10.349 0-11 3.001-.149 3-2 .417-1.893 2-2 2.961 1.515 4 0 .481-3.461 3-3 3.945.163 4 3-1.671 3.403-1 6 1.825 4.539 4 6 .705 3.515 4 3 .353-.845 4-1 5.105 5.675 7 5 2 0 2 0m-22.26-21.711s-.995-3.326 2.26-5.289 3.753-2.117 6-3 4.521-1.229 3-4-4.383-1.469-5-5 2.025-2.245 0-5-6.487-2.637-4-5 2.825-3.237 4-6 2.601-2.885 4-5-.423-3.325 1-4 5-1 5-1m-35 123s-1.471-1.677 0-4 3.553-2.221 2-4-5.839-3.565-6-6 2.721-2.317 0-5-5.951-4.965-6-6 2.625-6.309 5-7 3.529.099 5-1 5.745-1.749 7-2 2.825-2.421 3-3m-32 32s1.761-1.885 5-2 3.353 1.363 4-2 .089-4.285-2-6-5.303-3.213-6-4-2.183 1.811-4 0-7.319-7.949-7-10 .353-4.269 2-7 3.505-2.533 2-5-1.727-3.597-2-7-.751-6.069 0-8 .913-1.333 0-4-3.343-4.165-2-7 3.953-6.557 7-7 2.393.875 4-1 5.049-3.997 8-3 3.081 2.443 5 3 3.985-.093 5 1 .761 1.755 3 2 5 0 5 0m-24.6 54.005s.385-3.786 2.6-4.005 3.225-1.605 4-2 1.641-.245 3 0m-43 26s-2.407-4.885-2-7 1.929-2.125 2-5-3.431-7.189-2-9 4.905-3.533 4-6-3.607-3.773-2-6 3.321-3.373 4-6 .761-2.765 2-5-.391-2.773 1-5 3.073-1.421 3-4-1.719-1.965 0-4 3.513-3.613 3-5-.783-3.077 3-3 5.325-.033 5.325-.033m-51.325 59.033 1.115-.947c.936-.793 1.169.693 1.885-2.053.831-3.187-1.01-5.16 1-7 1.763-1.613 1.831-1.567 2-3 .241-2.046-1.207-6.221 1-7s2.513-2.309 3-5 .777-3.517 3-4 3.473-.653 4-3 .993-3.141 3-3 1.945-.893 3-3 2.721-1.205 4-3-.047-1.981 1-4 .649-1.549 2-3-.887-3.941 1-5-.239-1.533 3-2 9-1 9-1m-9 1s-.942-1.771-3-3-3.227-1.151-4-3-1.155-2.803-3-4-4.797-1.545-4-3 1.121-3.387 2-5 1.402-1.853 2-3 0-4 0-4m-48-58s.921.802 2 3 1.211 2.897 3 3 2.491-.628 3 2v5c.69 1.791 2.423 3.956 4 5s1.256-.311 3 1 2.645 5.531 5 6 3.483-1.284 5 0 5.234.526 6 0m-9-42s.017 1.548 1 4 .845 2.833 2 4 1.397 2.208 2 3 3.686 2.865 4 4 .501.973 0 3-1.942 1.168 0 3 3.614 1.915 4 4 1.171 2.376 2 3 3 2 3 2m3-35s3.407-.403 5 1 1.058 2.878 3 3 3.805-1.208 5 0 2.181 1.615 3 2 2.466.81 3 2 1 4 1 4m14 23s-1.217 5.594-3 6-3.213-.478-2 2 2.715 3.259 4 4 6.009 3.196 6 5 .914 4.857 0 6-5.837 5.536-6 8-.308 1.536-2 2-1.955 2.007-3 3-4.059 1.658-4 3 1.588 1.491 2 3 2.394 1.867 0 3-4.349 1.953-5 1-1.638-2.776-3-2-2.738.057-3 2-.661 2.962-2 2-1.322-3.228-4-3-3.159-.771-5 0-3.363 2.677-5 1-2.634-1.518-2-3 1.637-2.084 1-4-1.291-3.921-3-5-3.205-4.677-3-6-.386-.967 0-3 .99-2.157 2-3 2.347-1.537 1-3-2.309-.094-4-2-4.852-3.569-3-5 7.171-4.053 7-6 1.275-4.081 2-6 1.836-2.642 3-4 10-6 10-6m19-17s-.326.548-2 2-3.077 2.005-5 2-3.453.104-4 1-6.304 5.865-7 7-2.118 5.073-1 6 .9.087 3 2 1.366 2.829 3 4 .466 2.367 2 1-.059-2.361 3-2 3.502 1.729 5 1 1.606-3.533 3-1-.108 4.2 2 4 1.629-1.248 3 0 2.095 2.2 3 1 .019-2.357 2-3 4.679.634 6-1 .96-2.746 2-4 5.177-3.298 7-3 2.548 1.268 3 3 1.386 2.729 3 3 1.77.263 4-1 2.965-1.361 4 0 1.888 3.363 3 2 4.192-2.275 6-2m-93 58s3.515 4.016 5 5 1.981.392 3 2 1.542 2.854 3 3 1.547 1.845 2 0 .189-3.169 1-4 3-1 3-1m-40 23s.586-.299 1.456 0c1.232.423 3.032 1.442 4.544 1 2.581-.755 1.799-2.44 4-3s1.084.026 3 1 1.912 1.289 3 0 2.569-2.639 4-4 2.026-.205 2-3 .035-4.49 1-5 1.949-1.146 2-3-1.517-6.002-2-8 .211-4.02 0-5-5.3-8.152-9-9-2.491 1.21-4 0-1.966-3.251-4-3-1.522 1.197-3 0-3.726-2.26-5-2-1.179-3.021-1-5 1.007-1.767 1-4 .631-3.967-1-5-3.554-1.989-3-4-.093-4.741 1-6 1.541-2.488 1-4-.093-2.044 0-3 3.02-2.881 4-4 4-3 4-3m-53.769-4.154s-2.509-1.323-5.231.154-4.462 2.091-5 3-1.11 1.523-3 0-1.038-4.637-3-5-1.606.203-3-2-3.022-3.333-4-2-.926 1.387-3 2-2.342-1.381-4 0-2.71 3.771-5 2-4.014-3.029-2-4 4.45-.165 4-3-4.062-3.869-2-7 2.818-4.005 5-6 4.922-4.437 4-10m46 57s-3.11-.909-3-3 1.682-2.325 0-4-4.014-.949-4-4-1.582-2.133-2-4 .93-1.573 0-3-8.238.499-9-2 .042-2.685-1-4-1.054-1.869 1-3 1.69-1.669 2-3m-11 99c.833-.375 3.997.959 5 0 1.538-1.47 4.11-3.258 6-4s4.894-1.32 7 0 2.364 2.586 5 2 3.99-.696 5-2 5.274-3.292 6-6 .336-7.607 1-9 3.807-2.138 5-2 2.651 1.08 3 0m.442-1.951s-2.672-.562-4.442-2.049c-1.181-1.953-3.539-2.517-4-5s-1.134-6.143-3-6-4.573 3.546-5 4-.418 2.421-3 2-5.014-.048-6 0-3.64-.736-4-1m-23 56s-.522-2.188 0-5 .948-2.283 2-4 2.198-1.785 2-4-1.176-2.598 1-4 3.95-1.505 4-3 1.074-3.07 0-5-1.863-5.134-1-7 5.608-4.449 6-7-.017-1.733 0-5-.173-3.078 1-5 1.702-3.11 2-5 .141-3.454 2-3 2.767 1.264 4 1 3.549-.487 3-3-2.546-2.895-3-5 .235-2.928-1-5-2.297-4.524-2-7-1.296-5.901 1-7 7.457-2.402 9-4 5.771-4.811 6-7 4.212-1.03 7-1 8.089 1.845 9 0 3.996-2.719 4-5 .716-5.315 2-6 4-1 4-1m-6 74s-1.16-1.98-1-4 1.559-2.231 1-4-4.349-2.889-4-5 1.996-5.61 3-7 .528-.018 1-3 .435-2.956 2-4 2.499-1.426 4-4 3.436-6.679 2-8-.345-4.274 0-5m-95-7s3.707-1.003 5 0 3.326 2.026 4 1 2.076-1.829 2-4-.717-3.697 1-4 2.24 1.185 4 0 3.668-1.581 4-3-.758-2.743 1-3 2.993-.126 3-1 .228-5.834 1-6m9 21s-3.87-2.551-4-5 .698-3.57 2-5 3.796-1.412 2-3-3.733-1.255-4-3-2.379-3.097-4-4-2.947-3.194-4-5-1.437-5.389-2-6-2.554-.369-3-2-1-6-1-6m-19 76s2.724 1.754 4 0 .253-3.207 2-2 1.311 1.694 4 2 2.016-1.541 4 0 1.485 2.047 4 2 7 0 7 0m13 33s-2.838-2.693-6-2-4.054 2.283-7 2-1.374-2.053-6-2-7.15-1.205-8 0-3.342 2.379-6 0-6.19-4.581-5-7-.054-5.405 3-5 3.666.715 4-2 .338-4.005 2-4 .802-1.733 2-4 1.554-3.221 4-3 2.738 3.107 4 0 1.538-3.821 3-5 2.234.123 3-2-.094-4.757 2-6 2.498-1.301 3-3 3.815-4.15 4.437-4.56m16.563 5.56s-2.766-3.301-6-3-9.086 1.155-10-1-1.598-6.885-1-9 .122-8.957 1-12 2.178-4.301 3-7-1.302-2.661 2-3 4.266 1.875 5 0 2.402-2.797 4-4 2.434-2.189 4-4 1.954-.685 4-4 5.09-5.277 6-5m-220 51s2.329-3.143 5-4.56c2.671-1.418 1.921-2.214 3-4.44s-1.015-3.134 4-3 5.609.474 8-2 2.617-2.934 5-2 3.185 3.418 4 0-.271-4.79 2-5 2.145 2.258 4 0-.335-2.974 3-3 2.697 3.866 5 0-.959-4.854 4-5 5.921-1.774 8 0 2.929 3.586 5 3 4.681.874 6 2 2.249 1.418 3 3-1.231 2.37 2 3 3.697 3.658 5 4 1.321 1.482 4 2 3.609.618 5 3 2.561 4.242 3 6 .025 1.298 1 3-.639 4.458 1 5 3.209.722 3 3 0 6 0 6m64-118v12s.05 1.705-2 4-2.206 3.817-2 6 .21 3.129 2 4 2.546.905 3 3 2 3 2 3m-17 19s-.862.849 0-3-1.294-4.567 1-6 2.25-.471 4-3 4.106-3.935 6-4 1.546.913 3 1 1.394 2.009 2-1 .194-2.815 2-4 1.378-.991 3 0 1.69 3.425 3 4 1.746 1.089 3 0m-92 44s3.913 2.21 5 3 5 4 5 4-.279 1.962 2 2 2.137.346 4 0 1.401 2.298 4 2 1.177-.758 4-2 2.441-1.094 5-2 4.657 1.194 7 2 6.53 0 6.53 0m-47.53-1s3.057-.766 4-3 .033-1.798 1-4 .057-3.99 0-7m23-20s1.014-1.634 3-2 2.911-1.243 4-2 2.646-.593 4-2 2.771-2.845 3-4 .479-1.871 1-3 1.604-1.575 2-3 .7-3.279 1-4-.107-2.751 0-5 .472-1.489 1-3 .003-1.213 0-2c-.005-1.362.768-2.705.768-2.705m-31.768 24.705s1.833.454 2-1 1.576-1.203 1-3-.717-.989-1-3-1.967-3.675 0-4 3.462.253 4-1 .177-1.669 1-4 .734-2.191 2-3 1.891-2.756 1-4 .256-1.413 1-3 2.484-2.814 2-4 .363-1.664 1-3 1.756-1.772 2-3 .021-2.458 1-3 1.357-1.874 1.558-1.895m-11.866-9.105s.592.662 2.308 0 2.227-.831 3-2 2.078-2.774 3-3 .628-.303 1-2-.358-1.796 2-3 3.464-.796 5-1 1.893.647 3-1 1.029-1.782 2-3 .908.375 2-1 1.165-1.669 1-3 0-4 0-4m-48 56s-1.017-2.538 0-4 1.21-1.597 1-3-.772-1.733-1-4-1.356-2.303 0-5 1.4-2.665 2-5 2.608-1.253 2-4-2.148-2.276-2-5 .495-4.222 1-5 1.721-1.792 1-4-.333-3.53 1-4 2.631.542 3-2 1.029-4.594 2-6 2.011.8 2-2-1.12-6.639 0-8-.215-2.114 0-4 0-3 0-3m35 50-5-2s.559-.778-2-2-2.839.919-4-1-.577-3.027-2-4-3.939-.235-5-1-.337-2.521-2-3-2.64.516-3-1-.699-2.752-2-4-.926-2.566-1-4 3.581-2.078 0-3-6.989.357-8 0-1.256 1.113-3 1-1.935-.66-2.941-1.356m77.941 25.356s-5.086-2.326-5-4 .968-2.778-1-2-1.091 2.43-3 2-3.186 1.407-3-2 .791-5.765-2-6-4.725-.86-8-1-3.481 1.163-4 3-1.635 4.353-3 4-4.979.733-6 2-3.282 2.095-3 4 .134 1.041 1 3 .492 1.969 0 4 1.437 4.2 2 6 4.537 8.811 6 10-.142 1.87 1 3 2.786-1.922 4 0 .185 3.589 2 4 2.261-.673 3 1 .66 3.083 2 3 3 0 3 0m-105-42s-2.734-1.414-2-3 1.135-1.596 1-3 .329-2.63-2-3-3.246-.252-4 1-2.462 4.717-4 4-6.464-2.926-6-5 1.373-3.501 2-4 .948-2.157 2-1 2.13 2.909 3 2 1.327-1.749 1-3-.79-1.504-2-2-2.331.363-2-2 .358-1.902 1-4 1.196-2.067 2-3 .803-1.79 1-3 0-3 0-3m-123.342 44s1.23-.354 2.342-1 .273-1.263 3-1 5.291 2.551 6 1 1.943-1.915 3-3 3.866-1.738 4-2m12 13s-2.107-2.792-4-4-4.578-3.906-5-5-2.772-1.304-3-5 .952-4.422 0-7-1.609-2.354-3-5-1.451-4.82-4-5-9.035-3.947-10-6m-15 108s-1.122-3.464-3-4-2.945-.116-3-2-.507-1.664-2-2-1.421-1.139-2-3 .018-2.148-2-3-2.624-.976-3-2 0-3 0-3m28 61s.937-4.549-2-5-2.167 2.351-4 0-2.8-3.947-2-6-.185-4.88-2-6-5.651-.527-5-2 2.082-1.088 2-3-3.556-2.649-2-4 2.634-.577 3-3 .901-3.414 0-5-4-6-4-6m15-50s.697 1.653 1 3 1.805 1.732 3 2 2.348.455 3 2 1.457 4.666 3 5 2.565 1.919 4 0 2.469-1.931 4-3 1.909-.063 3-2 3.066-1.865 3-4-1.675-4.643 0-6 2.175-1.263 3-3 4.669-2.625 5-3m26 54s-.449-2.675-2-4-1.883-.627-1-2 2.346-4.326 1-5-6.558 1.746-6-1 2.364-3.567 1-5-4.799-1.796-6-1-2.963 1.969-5 0-2.686-3.212-4-3 .188-2.785 0-4 .031-2.123-1-3-1.788-2.924-1-4 2.543-2.467 1-3-4-1-4-1m4-35s6.17 1.82 6 4-1.571 2.543 0 4 2.279.447 3 3 .514 4.785 2 5 1.292-.318 4 0 1.81-2.263 4 0 6 5 6 5m-100 69s.277-1.54 2-3 .537-2.342 2-4 3.212.471 5-3-.348-4.071 2-5 3.249.929 5 0-.926-3.379 2-2 3.593 1.7 5 2 1.009 1.748 3 0 2.425.001 4-2 2.431-3.535 4-2 3.721 4.103 5 2 1.751-2.006 3-4 .45-.217 3-3 3.962-4.097 3-6-1.134-8.212 1-9 2.951-1.369 5-2 4.831-1.273 6-3 2.729-2.791 2-4-1.217-2.798 0-4 .789-1.822 3-1 2.82 1.383 4 1 1.284 2.581 2-1-2.969-5.244 0-6 3.188 1.009 4-1 .061-5.438 1-7 1.007-1.571 0-3-4.999-1.607-5-5-2.15-8.982 0-11 4.314-2.555 4-5 .826-7.158 0-9-2.764-3.707-2-6 1.549-4.587 3-6 1.989-1.617 3-3-.342-4.425 1-7 6-4 6-4m27 18s3.35-1.842 5-3 4.124-1.858 6-2 4.651-.844 5-2 .767-2.516 2-2 2.18 2.435 4 2 3.789.27 5-1 1.577-1.713 3-1 2.252 3.452 4 3 .91-1.844 3-2 2.436-.958 4 0 3 1 3 1m16 1s1.416.287 3-1 2.222-2.912 4-4 2.224-1.108 4-1 2.062.12 3-1 1.785-1.142 3-1 4.197 1.433 5 2 1.724 2.843 3 2 .726-.895 3-1 2.318-.32 4 1 2.287 1.697 3 2 3 1 3 1" fill="none" stroke="#000" stroke-width=".75"/><path d="m410.599 318.105a24.962 24.962 0 0 1 -3.694-13.105c0-13.85 11.245-25.095 25.095-25.095s25.095 11.245 25.095 25.095c0 10.301-6.22 19.16-15.106 23.025a26.463 26.463 0 0 1 4.618 14.975c0 14.685-11.922 26.607-26.607 26.607s-26.607-11.922-26.607-26.607c0-11.376 7.155-21.094 17.206-24.895z" fill="#f3ff00" fill-opacity=".5"/><path d="m380 312s5.965-3.543 12.309-7.454c4.833-2.978 6.624-5.856 12.691-4.546 5.418 1.17 11.142 12.535 16 18 1.295 1.457 7.689 8.338 11.678 11.507 6.356 5.048 10.668 8.317 14.322 8.493 9.461.455 10.061 1.678 13 3 4.917 2.212 5.683 10.419 10.483 20.619 3.504 7.446 7.302 16.342 10.517 18.381 3.504 2.223 12.179 4.078 21.142 4.236 10.528.186 22.452-2.588 25.858-3.236 11.487-2.184 21.207 2.914 25 5s13.167 6.685 20 5 24.516-14.009 28-16" fill="none" stroke="#00ff01" stroke-opacity=".849" stroke-width="7"/><circle cx="600.886" cy="375.259" fill="#ff0001" r="7.941"/><g font-family="'Arial-BoldMT', 'Arial', sans-serif" font-size="12" font-weight="700" transform="translate(-3.615 3.967)"><text fill="none" x="601.164" y="375.315">1</text><text fill="#fff" x="601.164" y="375.315">1</text></g><g transform="translate(-196.114 -77.035)"><circle cx="600.886" cy="375.259" fill="#ff0001" r="7.941"/><text fill="#fff" font-family="'Arial-BoldMT', 'Arial', sans-serif" font-size="12" font-weight="700" transform="translate(-3.615 3.967)" x="601.164" y="375.315">2</text></g><g transform="translate(-220.485 -63.109)"><circle cx="600.886" cy="375.259" fill="#ff0001" r="7.941"/><text fill="#fff" font-family="'Arial-BoldMT', 'Arial', sans-serif" font-size="12" font-weight="700" transform="translate(-3.615 3.967)" x="601.164" y="375.315">3</text></g><g font-family="'Arial-BoldMT', 'Arial', sans-serif" font-size="12" font-weight="700"><text fill="none" transform="translate(-2 5)" x="57.468" y="311.825">1</text><text transform="translate(-2 5)" x="57.468" y="311.825">1</text><text fill="none" transform="translate(20.912 35.208)" x="57.468" y="311.825">2</text><text transform="translate(20.912 35.208)" x="57.468" y="311.825">2</text><text fill="none" transform="translate(38.832 -18.296)" x="57.468" y="311.825">3</text><text transform="translate(38.832 -18.296)" x="57.468" y="311.825">3</text><text fill="none" transform="translate(61.36 3.744)" x="57.468" y="311.825">4</text><text transform="translate(61.36 3.744)" x="57.468" y="311.825">4</text><text fill="none" transform="translate(57.52 -56.44)" x="57.468" y="311.825">5</text><text transform="translate(57.52 -56.44)" x="57.468" y="311.825">5</text><text fill="none" transform="translate(91.696 -35.192)" x="57.468" y="311.825">6</text><text transform="translate(91.696 -35.192)" x="57.468" y="311.825">6</text><text fill="none" transform="translate(39.216 -93.816)" x="57.468" y="311.825">7</text><text transform="translate(39.216 -93.816)" x="57.468" y="311.825">7</text><text fill="none" transform="translate(69.808 -95.096)" x="57.468" y="311.825">8</text><text transform="translate(69.808 -95.096)" x="57.468" y="311.825">8</text><text fill="none" transform="translate(87.808 -79.096)" x="57.468" y="311.825">9</text><text transform="translate(87.808 -79.096)" x="57.468" y="311.825">9</text><text fill="none" transform="translate(163.272 -18.04)" x="57.468" y="311.825">10</text><text transform="translate(163.272 -18.04)" x="57.468" y="311.825">10</text><text fill="none" transform="translate(191.432 -.76)" x="57.468" y="311.825">1<tspan x="63.48" y="311.825">1</tspan></text><text transform="translate(191.432 -.76)" x="57.468" y="311.825">1<tspan x="63.48" y="311.825">1</tspan></text><text fill="none" transform="translate(231.752 -12.152)" x="57.468" y="311.825">12</text><text transform="translate(231.752 -12.152)" x="57.468" y="311.825">12</text><text fill="none" transform="translate(240.456 12.808)" x="57.468" y="311.825">13</text><text transform="translate(240.456 12.808)" x="57.468" y="311.825">13</text><text fill="none" transform="translate(273.736 2.312)" x="57.468" y="311.825">14</text><text transform="translate(273.736 2.312)" x="57.468" y="311.825">14</text><text fill="none" transform="translate(130.696 -106.096)" x="57.468" y="311.825">15</text><text transform="translate(130.696 -106.096)" x="57.468" y="311.825">15</text><text fill="none" transform="translate(151.56 -82.544)" x="57.468" y="311.825">16</text><text transform="translate(151.56 -82.544)" x="57.468" y="311.825">16</text><text fill="none" transform="translate(199.432 -110.32)" x="57.468" y="311.825">17</text><text transform="translate(199.432 -110.32)" x="57.468" y="311.825">17</text><text fill="none" transform="translate(194.824 -84.464)" x="57.468" y="311.825">18</text><text transform="translate(194.824 -84.464)" x="57.468" y="311.825">18</text><text fill="none" transform="translate(233.736 -113.136)" x="57.468" y="311.825">19</text><text transform="translate(233.736 -113.136)" x="57.468" y="311.825">19</text><text fill="none" transform="translate(224.904 -78.832)" x="57.468" y="311.825">20</text><text transform="translate(224.904 -78.832)" x="57.468" y="311.825">20</text><text fill="none" transform="translate(258.056 -96.752)" x="57.468" y="311.825">21</text><text transform="translate(258.056 -96.752)" x="57.468" y="311.825">21</text><text fill="none" transform="translate(243.848 -57.072)" x="57.468" y="311.825">22</text><text transform="translate(243.848 -57.072)" x="57.468" y="311.825">22</text><text fill="none" transform="translate(263.176 -40.176)" x="57.468" y="311.825">23</text><text transform="translate(263.176 -40.176)" x="57.468" y="311.825">23</text><text fill="none" transform="translate(272.904 -70.256)" x="57.468" y="311.825">24</text><text transform="translate(272.904 -70.256)" x="57.468" y="311.825">24</text><text fill="none" transform="translate(302.344 -75.376)" x="57.468" y="311.825">25</text><text transform="translate(302.344 -75.376)" x="57.468" y="311.825">25</text><text fill="none" transform="translate(301.192 -38.128)" x="57.468" y="311.825">26</text><text transform="translate(301.192 -38.128)" x="57.468" y="311.825">26</text><text fill="none" transform="translate(324.523 -64.008)" x="57.468" y="311.825">27</text><text transform="translate(324.523 -64.008)" x="57.468" y="311.825">27</text><text fill="none" transform="translate(337.144 -35.961)" x="57.468" y="311.825">28</text><text transform="translate(337.144 -35.961)" x="57.468" y="311.825">28</text><text fill="none" transform="translate(316.873 -11.61)" x="57.468" y="311.825">29</text><text transform="translate(316.873 -11.61)" x="57.468" y="311.825">29</text><text fill="none" transform="translate(303.104 69.219)" x="57.468" y="311.825">30</text><text transform="translate(303.104 69.219)" x="57.468" y="311.825">30</text><text fill="none" transform="translate(321.208 41.298)" x="57.468" y="311.825">32</text><text transform="translate(321.208 41.298)" x="57.468" y="311.825">32</text><text fill="none" transform="translate(337.654 4.581)" x="57.468" y="311.825">32</text><text transform="translate(337.654 4.581)" x="57.468" y="311.825">32</text><text fill="none" transform="translate(349.128 56.087)" x="57.468" y="311.825">36</text><text transform="translate(349.128 56.087)" x="57.468" y="311.825">36</text><text fill="none" transform="translate(356.013 27.529)" x="57.468" y="311.825">35</text><text transform="translate(356.013 27.529)" x="57.468" y="311.825">35</text><text fill="none" transform="translate(368.889 -4.216)" x="57.468" y="311.825">34</text><text transform="translate(368.889 -4.216)" x="57.468" y="311.825">34</text><text fill="none" transform="translate(370.674 -35.068)" x="57.468" y="311.825">33</text><text transform="translate(370.674 -35.068)" x="57.468" y="311.825">33</text><text fill="none" transform="translate(405.989 -56.996)" x="57.468" y="311.825">39</text><text transform="translate(405.989 -56.996)" x="57.468" y="311.825">39</text><text fill="none" transform="translate(431.104 -66.941)" x="57.468" y="311.825">40</text><text transform="translate(431.104 -66.941)" x="57.468" y="311.825">40</text><text fill="none" transform="translate(461.104 -106.941)" x="57.468" y="311.825">41</text><text transform="translate(461.104 -106.941)" x="57.468" y="311.825">41</text><text fill="none" transform="translate(463.104 -58.941)" x="57.468" y="311.825">42</text><text transform="translate(463.104 -58.941)" x="57.468" y="311.825">42</text><text fill="none" transform="translate(446.104 -24.941)" x="57.468" y="311.825">43</text><text transform="translate(446.104 -24.941)" x="57.468" y="311.825">43</text><text fill="none" transform="translate(491.104 -16.941)" x="57.468" y="311.825">45</text><text transform="translate(491.104 -16.941)" x="57.468" y="311.825">45</text><text fill="none" transform="translate(425.104 35.059)" x="57.468" y="311.825">44</text><text transform="translate(425.104 35.059)" x="57.468" y="311.825">44</text><text fill="none" transform="translate(430.841 65.657)" x="57.468" y="311.825">46</text><text transform="translate(430.841 65.657)" x="57.468" y="311.825">46</text><text fill="none" transform="translate(455.829 62.98)" x="57.468" y="311.825">47</text><text transform="translate(455.829 62.98)" x="57.468" y="311.825">47</text><text fill="none" transform="translate(482.22 35.187)" x="57.468" y="311.825">48</text><text transform="translate(482.22 35.187)" x="57.468" y="311.825">48</text><text fill="none" transform="translate(476.1 96.637)" x="57.468" y="311.825">49</text><text transform="translate(476.1 96.637)" x="57.468" y="311.825">49</text><text fill="none" transform="translate(508.993 69.992)" x="57.468" y="311.825">50</text><text transform="translate(508.993 69.992)" x="57.468" y="311.825">50</text><text fill="none" transform="translate(525.184 40.031)" x="57.468" y="311.825">51</text><text transform="translate(525.184 40.031)" x="57.468" y="311.825">51</text><text fill="none" transform="translate(561.519 86.31)" x="57.468" y="311.825">52</text><text transform="translate(561.519 86.31)" x="57.468" y="311.825">52</text><text fill="none" transform="translate(539.718 113.338)" x="57.468" y="311.825">53</text><text transform="translate(539.718 113.338)" x="57.468" y="311.825">53</text><text fill="none" transform="translate(580.26 45.258)" x="57.468" y="311.825">54</text><text transform="translate(580.26 45.258)" x="57.468" y="311.825">54</text><text fill="none" transform="translate(578.475 -.765)" x="57.468" y="311.825">55</text><text transform="translate(578.475 -.765)" x="57.468" y="311.825">55</text><text fill="none" transform="translate(543.415 -4.59)" x="57.468" y="311.825">56</text><text transform="translate(543.415 -4.59)" x="57.468" y="311.825">56</text><text fill="none" transform="translate(557.566 -54.694)" x="57.468" y="311.825">57</text><text transform="translate(557.566 -54.694)" x="57.468" y="311.825">57</text><text fill="none" transform="translate(575.16 -122.008)" x="57.468" y="311.825">58</text><text transform="translate(575.16 -122.008)" x="57.468" y="311.825">58</text><text fill="none" transform="translate(671.288 -126.598)" x="57.468" y="311.825">59</text><text transform="translate(671.288 -126.598)" x="57.468" y="311.825">59</text><text fill="none" transform="translate(697.55 -84.144)" x="57.468" y="311.825">60</text><text transform="translate(697.55 -84.144)" x="57.468" y="311.825">60</text><text fill="none" transform="translate(406.499 -19.132)" x="57.468" y="311.825">38</text><text transform="translate(406.499 -19.132)" x="57.468" y="311.825">38</text><g transform="translate(398.339 19.88)"><text fill="none" x="57.468" y="311.825">37</text><text x="57.468" y="311.825">37</text></g></g></svg>