<?xml version="1.0" encoding="UTF-8" standalone="no"?>
<!DOCTYPE svg PUBLIC "-//W3C//DTD SVG 1.1//EN" "http://www.w3.org/Graphics/SVG/1.1/DTD/svg11.dtd">
<svg width="100%" height="100%" viewBox="0 0 800 560" version="1.1" xmlns="http://www.w3.org/2000/svg" xmlns:xlink="http://www.w3.org/1999/xlink" xml:space="preserve" xmlns:serif="http://www.serif.com/" style="fill-rule:evenodd;clip-rule:evenodd;stroke-linejoin:round;stroke-miterlimit:2;">
    <rect x="0" y="0" width="800" height="560" style="fill:none;"/>
    <g transform="matrix(1,0,0,1,314.321,66.211)">
        <text x="0px" y="0px" style="font-family:'Arial-BoldItalicMT', 'Arial', sans-serif;font-weight:700;font-style:italic;font-size:36px;fill:white;">taĳutsu</text>
    </g>
    <g transform="matrix(0.999,0,0,0.999,95.4615,121.397)">
        <text x="0px" y="0px" style="font-family:'Arial-BoldItalicMT', 'Arial', sans-serif;font-weight:700;font-style:italic;font-size:24px;fill:white;">taihen jutsu</text>
    </g>
    <g transform="matrix(0.999,0,0,0.999,89.6374,137.904)">
        <text x="0px" y="0px" style="font-family:'ArialMT', 'Arial', sans-serif;font-size:16px;fill:white;">Körperbewegungen</text>
    </g>
    <g transform="matrix(0.999,0,0,0.999,95.4615,121.397)">
        <text x="0px" y="0px" style="font-family:'Arial-BoldItalicMT', 'Arial', sans-serif;font-weight:700;font-style:italic;font-size:24px;fill:white;">taihen jutsu</text>
    </g>
    <g transform="matrix(0.999,0,0,0.999,89.6374,137.904)">
        <text x="0px" y="0px" style="font-family:'ArialMT', 'Arial', sans-serif;font-size:16px;fill:white;">Körperbewegungen</text>
    </g>
    <g transform="matrix(0.999,0,0,0.999,138.415,174.13)">
        <text x="0px" y="0px" style="font-family:'Arial-BoldItalicMT', 'Arial', sans-serif;font-weight:700;font-style:italic;font-size:18px;fill:white;">tachi</text>
    </g>
    <g transform="matrix(0.999,0,0,0.999,121.628,190.637)">
        <text x="0px" y="0px" style="font-family:'ArialMT', 'Arial', sans-serif;font-size:16px;fill:white;">Stellungen</text>
    </g>
    <g transform="matrix(0.999,0,0,0.999,131.404,226.864)">
        <text x="0px" y="0px" style="font-family:'Arial-BoldItalicMT', 'Arial', sans-serif;font-weight:700;font-style:italic;font-size:18px;fill:white;">kamae</text>
    </g>
    <g transform="matrix(0.999,0,0,0.999,122.963,243.371)">
        <text x="0px" y="0px" style="font-family:'ArialMT', 'Arial', sans-serif;font-size:16px;fill:white;">Haltungen</text>
    </g>
    <g transform="matrix(0.999,0,0,0.999,133.415,279.016)">
        <text x="0px" y="0px" style="font-family:'Arial-BoldItalicMT', 'Arial', sans-serif;font-weight:700;font-style:italic;font-size:18px;fill:white;">ukemi</text>
    </g>
    <g transform="matrix(0.999,0,0,0.999,137.632,295.523)">
        <text x="0px" y="0px" style="font-family:'ArialMT', 'Arial', sans-serif;font-size:16px;fill:white;">Fallen</text>
    </g>
    <g transform="matrix(0.999,0,0,0.999,133.415,330.973)">
        <text x="0px" y="0px" style="font-family:'Arial-BoldItalicMT', 'Arial', sans-serif;font-weight:700;font-style:italic;font-size:18px;fill:white;">kaiten</text>
    </g>
    <g transform="matrix(0.999,0,0,0.999,130.077,347.48)">
        <text x="0px" y="0px" style="font-family:'ArialMT', 'Arial', sans-serif;font-size:16px;fill:white;">Abrollen</text>
    </g>
    <g transform="matrix(0.999,0,0,0.999,142.923,383.802)">
        <text x="0px" y="0px" style="font-family:'Arial-BoldItalicMT', 'Arial', sans-serif;font-weight:700;font-style:italic;font-size:18px;fill:white;">tobi</text>
    </g>
    <g transform="matrix(0.999,0,0,0.999,127.408,400.309)">
        <text x="0px" y="0px" style="font-family:'ArialMT', 'Arial', sans-serif;font-size:16px;fill:white;">Springen</text>
    </g>
    <g transform="matrix(0.999,0,0,0.999,131.408,436.536)">
        <text x="0px" y="0px" style="font-family:'Arial-BoldItalicMT', 'Arial', sans-serif;font-weight:700;font-style:italic;font-size:18px;fill:white;">sabaki</text>
    </g>
    <g transform="matrix(0.999,0,0,0.999,111.413,453.043)">
        <text x="0px" y="0px" style="font-family:'ArialMT', 'Arial', sans-serif;font-size:16px;fill:white;">Sichbewege</text>
    </g>
    <g transform="matrix(0.999,0,0,0.999,198.497,453.043)">
        <text x="0px" y="0px" style="font-family:'ArialMT', 'Arial', sans-serif;font-size:16px;fill:white;">n</text>
    </g>
    <g transform="matrix(0.999,0,0,0.999,115.946,489.269)">
        <text x="0px" y="0px" style="font-family:'Arial-BoldItalicMT', 'Arial', sans-serif;font-weight:700;font-style:italic;font-size:18px;fill:white;">shinobi-iri</text>
    </g>
    <g transform="matrix(0.999,0,0,0.999,100.751,505.776)">
        <text x="0px" y="0px" style="font-family:'ArialMT', 'Arial', sans-serif;font-size:16px;fill:white;">Leises Bewegen</text>
    </g>
    <path d="M157.97,145.902L159.963,145.902L159.963,155.891L157.97,155.891L157.97,145.902ZM157.97,198.984L159.963,198.984L159.963,208.973L157.97,208.973L157.97,198.984ZM157.97,251.964L159.963,251.964L159.963,261.953L157.97,261.953L157.97,251.964ZM157.97,301.354L159.963,301.354L159.963,311.343L157.97,311.343L157.97,301.354ZM157.97,355.334L159.963,355.334L159.963,365.323L157.97,365.323L157.97,355.334ZM157.97,408.315L159.963,408.315L159.963,418.304L157.97,418.304L157.97,408.315ZM157.97,460.629L159.963,460.629L159.963,470.618L157.97,470.618L157.97,460.629Z" style="fill:white;"/>
    <g transform="matrix(0.999,0,0,0.999,323.626,174.13)">
        <text x="0px" y="0px" style="font-family:'Arial-BoldItalicMT', 'Arial', sans-serif;font-weight:700;font-style:italic;font-size:18px;fill:white;">koppō jutsu</text>
    </g>
    <g transform="matrix(0.999,0,0,0.999,-88.941,116.335)">
        <g transform="matrix(1,0,0,1,407.802,74.376)">
            <text x="0px" y="0px" style="font-family:'ArialMT', 'Arial', sans-serif;font-size:16px;fill:white;">Knocheangrif</text>
        </g>
        <g transform="matrix(1,0,0,1,501.802,74.376)">
            <text x="0px" y="0px" style="font-family:'ArialMT', 'Arial', sans-serif;font-size:16px;fill:white;">fe</text>
        </g>
    </g>
    <g transform="matrix(0.999,0,0,0.999,327.108,226.864)">
        <text x="0px" y="0px" style="font-family:'Arial-BoldItalicMT', 'Arial', sans-serif;font-weight:700;font-style:italic;font-size:18px;fill:white;">koshĳutsu</text>
    </g>
    <g transform="matrix(0.999,0,0,0.999,-88.941,169.069)">
        <g transform="matrix(1,0,0,1,366.904,74.376)">
            <text x="0px" y="0px" style="font-family:'ArialMT', 'Arial', sans-serif;font-size:16px;fill:white;">Organ- und Muskelangrif</text>
        </g>
        <g transform="matrix(1,0,0,1,542.7,74.376)">
            <text x="0px" y="0px" style="font-family:'ArialMT', 'Arial', sans-serif;font-size:16px;fill:white;">fe</text>
        </g>
    </g>
    <g transform="matrix(0.999,0,0,0.999,327.095,279.016)">
        <text x="0px" y="0px" style="font-family:'Arial-BoldItalicMT', 'Arial', sans-serif;font-weight:700;font-style:italic;font-size:18px;fill:white;">atemiwaza</text>
    </g>
    <g transform="matrix(0.999,0,0,0.999,-88.941,221.221)">
        <g transform="matrix(1,0,0,1,399.946,74.376)">
            <text x="0px" y="0px" style="font-family:'ArialMT', 'Arial', sans-serif;font-size:16px;fill:white;">V</text>
        </g>
        <g transform="matrix(1,0,0,1,410.329,74.376)">
            <text x="0px" y="0px" style="font-family:'ArialMT', 'Arial', sans-serif;font-size:16px;fill:white;">italpunktangrif</text>
        </g>
        <g transform="matrix(1,0,0,1,509.657,74.376)">
            <text x="0px" y="0px" style="font-family:'ArialMT', 'Arial', sans-serif;font-size:16px;fill:white;">fe</text>
        </g>
    </g>
    <g transform="matrix(0.999,0,0,0.999,294.788,121.397)">
        <text x="0px" y="0px" style="font-family:'Arial-BoldItalicMT', 'Arial', sans-serif;font-weight:700;font-style:italic;font-size:24px;fill:white;">dakentaĳutsu</text>
    </g>
    <g transform="matrix(0.999,0,0,0.999,313.418,137.904)">
        <text x="0px" y="0px" style="font-family:'ArialMT', 'Arial', sans-serif;font-size:16px;fill:white;">Schlagtechniken</text>
    </g>
    <path d="M370.194,143.503L372.187,143.503L372.187,153.492L370.194,153.492L370.194,143.503ZM370.194,196.585L372.187,196.585L372.187,206.574L370.194,206.574L370.194,196.585ZM370.194,250.565L372.187,250.565L372.187,260.554L370.194,260.554L370.194,250.565Z" style="fill:white;"/>
    <g transform="matrix(0.999,0,0,0.999,569.586,174.13)">
        <text x="0px" y="0px" style="font-family:'Arial-BoldItalicMT', 'Arial', sans-serif;font-weight:700;font-style:italic;font-size:18px;fill:white;">nagewaza</text>
    </g>
    <g transform="matrix(0.999,0,0,0.999,151.048,116.335)">
        <g transform="matrix(1,0,0,1,410.486,74.376)">
            <text x="0px" y="0px" style="font-family:'ArialMT', 'Arial', sans-serif;font-size:16px;fill:white;">W</text>
        </g>
        <g transform="matrix(1,0,0,1,425.298,74.376)">
            <text x="0px" y="0px" style="font-family:'ArialMT', 'Arial', sans-serif;font-size:16px;fill:white;">urftechniken</text>
        </g>
    </g>
    <g transform="matrix(0.999,0,0,0.999,580.092,226.282)">
        <text x="0px" y="0px" style="font-family:'Arial-BoldItalicMT', 'Arial', sans-serif;font-weight:700;font-style:italic;font-size:18px;fill:white;">ha jutsu</text>
    </g>
    <g transform="matrix(0.999,0,0,0.999,539.641,242.789)">
        <text x="0px" y="0px" style="font-family:'ArialMT', 'Arial', sans-serif;font-size:16px;fill:white;">Befreiungstechniken</text>
    </g>
    <g transform="matrix(0.999,0,0,0.999,564.585,279.016)">
        <text x="0px" y="0px" style="font-family:'Arial-BoldItalicMT', 'Arial', sans-serif;font-weight:700;font-style:italic;font-size:18px;fill:white;">shimewaza</text>
    </g>
    <g transform="matrix(0.999,0,0,0.999,554.309,295.523)">
        <text x="0px" y="0px" style="font-family:'ArialMT', 'Arial', sans-serif;font-size:16px;fill:white;">Würgetechniken</text>
    </g>
    <g transform="matrix(0.999,0,0,0.999,589.583,330.973)">
        <text x="0px" y="0px" style="font-family:'Arial-BoldItalicMT', 'Arial', sans-serif;font-weight:700;font-style:italic;font-size:18px;fill:white;">torite</text>
    </g>
    <g transform="matrix(0.999,0,0,0.999,514.779,347.48)">
        <text x="0px" y="0px" style="font-family:'ArialMT', 'Arial', sans-serif;font-size:16px;fill:white;">Nahkampfumstoßtechniken</text>
    </g>
    <g transform="matrix(0.999,0,0,0.999,564.585,383.802)">
        <text x="0px" y="0px" style="font-family:'Arial-BoldItalicMT', 'Arial', sans-serif;font-weight:700;font-style:italic;font-size:18px;fill:white;">gyakuwaza</text>
    </g>
    <g transform="matrix(0.999,0,0,0.999,556.967,400.309)">
        <text x="0px" y="0px" style="font-family:'ArialMT', 'Arial', sans-serif;font-size:16px;fill:white;">Hebeltechniken</text>
    </g>
    <g transform="matrix(0.999,0,0,0.999,558.785,121.397)">
        <text x="0px" y="0px" style="font-family:'Arial-BoldItalicMT', 'Arial', sans-serif;font-weight:700;font-style:italic;font-size:24px;fill:white;">jūtaĳutsu</text>
    </g>
    <g transform="matrix(0.999,0,0,0.999,560.539,137.904)">
        <text x="0px" y="0px" style="font-family:'ArialMT', 'Arial', sans-serif;font-size:16px;fill:white;">Greiftechniken</text>
    </g>
    <path d="M612.743,143.503L614.736,143.503L614.736,153.492L612.743,153.492L612.743,143.503ZM612.743,196.585L614.736,196.585L614.736,206.574L612.743,206.574L612.743,196.585ZM612.743,251.564L614.736,251.564L614.736,261.553L612.743,261.553L612.743,251.564ZM612.743,302.879L614.736,302.879L614.736,312.868L612.743,312.868L612.743,302.879ZM612.743,355.527L614.736,355.527L614.736,365.516L612.743,365.516L612.743,355.527ZM372.586,85.441L615.281,85.441L615.253,97.462L613.253,97.462L613.281,87.443L372.586,87.443L372.586,97.462L370.586,97.462L370.586,87.443L160.253,87.443L160.253,97.453L158.253,97.453L158.253,85.441L370.586,85.441L370.586,72.694L372.586,72.694L372.586,85.441Z" style="fill:white;"/>
</svg>
