<svg clip-rule="evenodd" fill-rule="evenodd" viewBox="0 0 800 560" xmlns="http://www.w3.org/2000/svg"><path d="m0 0h800v560h-800z" fill="none"/><text font-family="'Arial-BoldItalicMT', 'Arial', sans-serif" font-size="36" font-style="italic" font-weight="700" transform="translate(-77.321 8.358)" x="391.642" y="57.853">taĳutsu</text><g transform="matrix(.999 0 0 .999 -301.613 63.602)"><text fill="none" font-family="'Arial-BoldItalicMT', 'Arial', sans-serif" font-size="24" font-style="italic" font-weight="700" x="397.472" y="57.853">taihen jutsu</text><text fill="none" font-family="'ArialMT', 'Arial', sans-serif" font-size="16" x="391.642" y="74.376">Körperbewegungen</text><text font-family="'Arial-BoldItalicMT', 'Arial', sans-serif" font-size="24" font-style="italic" font-weight="700" x="397.472" y="57.853">taihen jutsu</text><text font-family="'ArialMT', 'Arial', sans-serif" font-size="16" x="391.642" y="74.376">Körperbewegungen</text></g><text font-family="'Arial-BoldItalicMT', 'Arial', sans-serif" font-size="18" font-style="italic" font-weight="700" transform="matrix(.999 0 0 .999 -301.613 116.335)" x="440.468" y="57.853">tachi</text><text font-family="'ArialMT', 'Arial', sans-serif" font-size="16" transform="matrix(.999 0 0 .999 -301.613 116.335)" x="423.665" y="74.376">Stellungen</text><text font-family="'Arial-BoldItalicMT', 'Arial', sans-serif" font-size="18" font-style="italic" font-weight="700" transform="matrix(.999 0 0 .999 -301.613 169.069)" x="433.45" y="57.853">kamae</text><text font-family="'ArialMT', 'Arial', sans-serif" font-size="16" transform="matrix(.999 0 0 .999 -301.613 169.069)" x="425.001" y="74.376">Haltungen</text><text font-family="'Arial-BoldItalicMT', 'Arial', sans-serif" font-size="18" font-style="italic" font-weight="700" transform="matrix(.999 0 0 .999 -301.613 221.221)" x="435.463" y="57.853">ukemi</text><text font-family="'ArialMT', 'Arial', sans-serif" font-size="16" transform="matrix(.999 0 0 .999 -301.613 221.221)" x="439.685" y="74.376">Fallen</text><text font-family="'Arial-BoldItalicMT', 'Arial', sans-serif" font-size="18" font-style="italic" font-weight="700" transform="matrix(.999 0 0 .999 -301.613 273.178)" x="435.463" y="57.853">kaiten</text><text font-family="'ArialMT', 'Arial', sans-serif" font-size="16" transform="matrix(.999 0 0 .999 -301.613 273.178)" x="432.122" y="74.376">Abrollen</text><text font-family="'Arial-BoldItalicMT', 'Arial', sans-serif" font-size="18" font-style="italic" font-weight="700" transform="matrix(.999 0 0 .999 -301.613 326.007)" x="444.981" y="57.853">tobi</text><text font-family="'ArialMT', 'Arial', sans-serif" font-size="16" transform="matrix(.999 0 0 .999 -301.613 326.007)" x="429.45" y="74.376">Springen</text><g transform="matrix(.999 0 0 .999 -301.613 378.741)"><text font-family="'Arial-BoldItalicMT', 'Arial', sans-serif" font-size="18" font-style="italic" font-weight="700" x="433.454" y="57.853">sabaki</text><text font-family="'ArialMT', 'Arial', sans-serif" font-size="16" x="413.439" y="74.376">Sichbewege</text><text font-family="'ArialMT', 'Arial', sans-serif" font-size="16" x="500.611" y="74.376">n</text></g><text font-family="'Arial-BoldItalicMT', 'Arial', sans-serif" font-size="18" font-style="italic" font-weight="700" transform="matrix(.999 0 0 .999 -301.613 431.474)" x="417.977" y="57.853">shinobi-iri</text><text font-family="'ArialMT', 'Arial', sans-serif" font-size="16" transform="matrix(.999 0 0 .999 -301.613 431.474)" x="402.767" y="74.376">Leises Bewegen</text><path d="m157.97 145.902h1.993v9.989h-1.993zm0 53.082h1.993v9.989h-1.993zm0 52.98h1.993v9.989h-1.993zm0 49.39h1.993v9.989h-1.993zm0 53.98h1.993v9.989h-1.993zm0 52.981h1.993v9.989h-1.993zm0 52.314h1.993v9.989h-1.993z"/><text font-family="'Arial-BoldItalicMT', 'Arial', sans-serif" font-size="18" font-style="italic" font-weight="700" transform="matrix(.999 0 0 .999 -88.941 116.335)" x="412.98" y="57.853">koppō jutsu</text><text font-family="'ArialMT', 'Arial', sans-serif" font-size="16" transform="matrix(.999 0 0 .999 -88.941 116.335)" x="407.802" y="74.376">Knocheangrif<tspan x="501.802 506.247" y="74.376 74.376">fe</tspan></text><text font-family="'Arial-BoldItalicMT', 'Arial', sans-serif" font-size="18" font-style="italic" font-weight="700" transform="matrix(.999 0 0 .999 -88.941 169.069)" x="416.465" y="57.853">koshĳutsu</text><text font-family="'ArialMT', 'Arial', sans-serif" font-size="16" transform="matrix(.999 0 0 .999 -88.941 169.069)" x="366.904" y="74.376">Organ- und Muskelangrif<tspan x="542.7 547.146" y="74.376 74.376">fe</tspan></text><text font-family="'Arial-BoldItalicMT', 'Arial', sans-serif" font-size="18" font-style="italic" font-weight="700" transform="matrix(.999 0 0 .999 -88.941 221.221)" x="416.452" y="57.853">atemiwaza</text><text font-family="'ArialMT', 'Arial', sans-serif" font-size="16" transform="matrix(.999 0 0 .999 -88.941 221.221)" x="399.946" y="74.376">V<tspan x="410.329 413.884" y="74.376 74.376">it</tspan>alpunktangrif<tspan x="509.657 514.103" y="74.376 74.376">fe</tspan></text><text font-family="'Arial-BoldItalicMT', 'Arial', sans-serif" font-size="24" font-style="italic" font-weight="700" transform="matrix(.999 0 0 .999 -96.462 63.602)" x="391.642" y="57.853">dakentaĳutsu</text><text font-family="'ArialMT', 'Arial', sans-serif" font-size="16" transform="matrix(.999 0 0 .999 -96.462 63.602)" x="410.29" y="74.376">Schlagtechniken</text><path d="m370.194 143.503h1.993v9.989h-1.993zm0 53.082h1.993v9.989h-1.993zm0 53.98h1.993v9.989h-1.993z"/><text font-family="'Arial-BoldItalicMT', 'Arial', sans-serif" font-size="18" font-style="italic" font-weight="700" transform="matrix(.999 0 0 .999 151.048 116.335)" x="418.957" y="57.853">nagewaza</text><text font-family="'ArialMT', 'Arial', sans-serif" font-size="16" transform="matrix(.999 0 0 .999 151.048 116.335)" x="410.486" y="74.376">W<tspan x="425.298 434.196" y="74.376 74.376">ur</tspan>ftechniken</text><text font-family="'Arial-BoldItalicMT', 'Arial', sans-serif" font-size="18" font-style="italic" font-weight="700" transform="matrix(.999 0 0 .999 151.048 168.487)" x="429.473" y="57.853">ha jutsu</text><text font-family="'ArialMT', 'Arial', sans-serif" font-size="16" transform="matrix(.999 0 0 .999 151.048 168.487)" x="388.982" y="74.376">Befreiungstechniken</text><text font-family="'Arial-BoldItalicMT', 'Arial', sans-serif" font-size="18" font-style="italic" font-weight="700" transform="matrix(.999 0 0 .999 151.048 221.221)" x="413.951" y="57.853">shimewaza</text><text font-family="'ArialMT', 'Arial', sans-serif" font-size="16" transform="matrix(.999 0 0 .999 151.048 221.221)" x="403.665" y="74.376">Würgetechniken</text><text font-family="'Arial-BoldItalicMT', 'Arial', sans-serif" font-size="18" font-style="italic" font-weight="700" transform="matrix(.999 0 0 .999 151.048 273.178)" x="438.974" y="57.853">torite</text><text font-family="'ArialMT', 'Arial', sans-serif" font-size="16" transform="matrix(.999 0 0 .999 151.048 273.178)" x="364.095" y="74.376">Nahkampfumstoßtechniken</text><text font-family="'Arial-BoldItalicMT', 'Arial', sans-serif" font-size="18" font-style="italic" font-weight="700" transform="matrix(.999 0 0 .999 151.048 326.007)" x="413.951" y="57.853">gyakuwaza</text><text font-family="'ArialMT', 'Arial', sans-serif" font-size="16" transform="matrix(.999 0 0 .999 151.048 326.007)" x="406.325" y="74.376">Hebeltechniken</text><text font-family="'Arial-BoldItalicMT', 'Arial', sans-serif" font-size="24" font-style="italic" font-weight="700" transform="matrix(.999 0 0 .999 164.853 63.602)" x="394.326" y="57.853">jūtaĳutsu</text><text font-family="'ArialMT', 'Arial', sans-serif" font-size="16" transform="matrix(.999 0 0 .999 164.853 63.602)" x="396.082" y="74.376">Greiftechniken</text><path d="m612.743 143.503h1.993v9.989h-1.993zm0 53.082h1.993v9.989h-1.993zm0 54.979h1.993v9.989h-1.993zm0 51.315h1.993v9.989h-1.993zm0 52.648h1.993v9.989h-1.993zm-240.157-270.086h242.695l-.028 12.021h-2l.028-10.019h-240.695v10.019h-2v-10.019h-210.333v10.01h-2v-12.012h212.333v-12.747h2z"/></svg>